<svg width="16" height="16" viewBox="0 0 16 16" fill="none" xmlns="http://www.w3.org/2000/svg">
<path fill-rule="evenodd" clip-rule="evenodd" d="M1.25 0.5H6.5C6.95 0.5 7.25 0.8 7.25 1.25V6.5C7.25 6.95 6.95 7.25 6.5 7.25H1.25C0.8 7.25 0.5 6.95 0.5 6.5V1.25C0.5 0.8 0.8 0.5 1.25 0.5ZM2 5.75H5.75V2H2V5.75ZM14.75 0.5H9.5C9.05 0.5 8.75 0.8 8.75 1.25V6.5C8.75 6.95 9.05 7.25 9.5 7.25H14.75C15.2 7.25 15.5 6.95 15.5 6.5V1.25C15.5 0.8 15.2 0.5 14.75 0.5ZM10.25 5.75H14V2H10.25V5.75ZM14.75 8.75H9.5C9.05 8.75 8.75 9.05 8.75 9.5V14.75C8.75 15.2 9.05 15.5 9.5 15.5H14.75C15.2 15.5 15.5 15.2 15.5 14.75V9.5C15.5 9.05 15.2 8.75 14.75 8.75ZM10.25 14H14V10.25H10.25V14ZM6.5 8.75H1.25C0.8 8.75 0.5 9.05 0.5 9.5V14.75C0.5 15.2 0.8 15.5 1.25 15.5H6.5C6.95 15.5 7.25 15.2 7.25 14.75V9.5C7.25 9.05 6.95 8.75 6.5 8.75ZM2 14H5.75V10.25H2V14Z" fill="black"/>
</svg>
