<svg width="16" height="18" viewBox="0 0 16 18" fill="none" xmlns="http://www.w3.org/2000/svg">
<path fill-rule="evenodd" clip-rule="evenodd" d="M13.25 2.25H11.75V1.5C11.75 1.05 11.45 0.75 11 0.75C10.55 0.75 10.25 1.05 10.25 1.5V2.25H5.75V1.5C5.75 1.05 5.45 0.75 5 0.75C4.55 0.75 4.25 1.05 4.25 1.5V2.25H2.75C1.475 2.25 0.5 3.225 0.5 4.5V15C0.5 16.275 1.475 17.25 2.75 17.25H13.25C14.525 17.25 15.5 16.275 15.5 15V4.5C15.5 3.225 14.525 2.25 13.25 2.25ZM2.75 3.75H4.25V4.5C4.25 4.95 4.55 5.25 5 5.25C5.45 5.25 5.75 4.95 5.75 4.5V3.75H10.25V4.5C10.25 4.95 10.55 5.25 11 5.25C11.45 5.25 11.75 4.95 11.75 4.5V3.75H13.25C13.7 3.75 14 4.05 14 4.5V6.75H2V4.5C2 4.05 2.3 3.75 2.75 3.75ZM2.75 15.75H13.25C13.7 15.75 14 15.45 14 15V8.25H2V15C2 15.45 2.3 15.75 2.75 15.75Z" fill="black"/>
</svg>
