<svg width="21" height="20" viewBox="0 0 21 20" fill="none" xmlns="http://www.w3.org/2000/svg">
<path fill-rule="evenodd" clip-rule="evenodd" d="M17.6429 2.5H2.64285C1.22619 2.5 0.142853 3.58333 0.142853 5V15C0.142853 16.4167 1.22619 17.5 2.64285 17.5H17.6429C19.0595 17.5 20.1429 16.4167 20.1429 15V5C20.1429 3.58333 19.0595 2.5 17.6429 2.5ZM2.64285 4.16667H17.6429C18.1429 4.16667 18.4762 4.5 18.4762 5V7.5H1.80952V5C1.80952 4.5 2.14285 4.16667 2.64285 4.16667ZM2.64285 15.8333H17.6429C18.1429 15.8333 18.4762 15.5 18.4762 15V9.16667H1.80952V15C1.80952 15.5 2.14285 15.8333 2.64285 15.8333Z" fill="black"/>
<mask id="mask0" style="mask-type:alpha" maskUnits="userSpaceOnUse" x="0" y="2" width="21" height="16">
<path fill-rule="evenodd" clip-rule="evenodd" d="M17.6429 2.5H2.64285C1.22619 2.5 0.142853 3.58333 0.142853 5V15C0.142853 16.4167 1.22619 17.5 2.64285 17.5H17.6429C19.0595 17.5 20.1429 16.4167 20.1429 15V5C20.1429 3.58333 19.0595 2.5 17.6429 2.5ZM2.64285 4.16667H17.6429C18.1429 4.16667 18.4762 4.5 18.4762 5V7.5H1.80952V5C1.80952 4.5 2.14285 4.16667 2.64285 4.16667ZM2.64285 15.8333H17.6429C18.1429 15.8333 18.4762 15.5 18.4762 15V9.16667H1.80952V15C1.80952 15.5 2.14285 15.8333 2.64285 15.8333Z" fill="white"/>
</mask>
<g mask="url(#mask0)">
<rect x="0.142853" width="20" height="20" fill="#FF9F43"/>
</g>
</svg>
