<svg width="28" height="28" viewBox="0 0 28 28" fill="none" xmlns="http://www.w3.org/2000/svg">
<path fill-rule="evenodd" clip-rule="evenodd" d="M3.4836 9.66667H0.833333C0.373096 9.66667 0 9.29357 0 8.83333C0 8.3731 0.373096 8 0.833333 8H4.16667C4.56386 8 4.90584 8.28032 4.98379 8.66979L5.68369 12.1667H19.1667C19.6895 12.1667 20.0832 12.6425 19.9852 13.1561L18.6507 20.154C18.4148 21.3418 17.3615 22.1897 16.1667 22.1667L8.08263 22.1665C6.87186 22.1897 5.81855 21.3418 5.58287 20.1552L4.19066 13.1993C4.18501 13.1763 4.18032 13.1529 4.17663 13.1292L3.4836 9.66667ZM5.83333 25.5014C5.83333 26.5022 6.49946 27.1694 7.49864 27.1694C8.49782 27.1694 9.16395 26.5022 9.16395 25.5014C9.16395 24.5005 8.49782 23.8333 7.49864 23.8333C6.49946 23.8333 5.83333 24.5005 5.83333 25.5014ZM15 25.5C15 26.5 15.6661 27.1667 16.6653 27.1667C17.6645 27.1667 18.3306 26.5 18.3306 25.5C18.3306 24.5 17.6645 23.8333 16.6653 23.8333C15.6661 23.8333 15 24.5 15 25.5ZM7.21737 19.8293L6.01728 13.8333H18.1594L17.0148 19.8356C16.9373 20.2252 16.5862 20.5079 16.1826 20.5002L8.06667 20.5C7.64711 20.5079 7.29601 20.2252 7.21737 19.8293Z" fill="black"/>
<mask id="mask0" style="mask-type:alpha" maskUnits="userSpaceOnUse" x="0" y="8" width="21" height="20">
<path fill-rule="evenodd" clip-rule="evenodd" d="M3.4836 9.66667H0.833333C0.373096 9.66667 0 9.29357 0 8.83333C0 8.3731 0.373096 8 0.833333 8H4.16667C4.56386 8 4.90584 8.28032 4.98379 8.66979L5.68369 12.1667H19.1667C19.6895 12.1667 20.0832 12.6425 19.9852 13.1561L18.6507 20.154C18.4148 21.3418 17.3615 22.1897 16.1667 22.1667L8.08263 22.1665C6.87186 22.1897 5.81855 21.3418 5.58287 20.1552L4.19066 13.1993C4.18501 13.1763 4.18032 13.1529 4.17663 13.1292L3.4836 9.66667ZM5.83333 25.5014C5.83333 26.5022 6.49946 27.1694 7.49864 27.1694C8.49782 27.1694 9.16395 26.5022 9.16395 25.5014C9.16395 24.5005 8.49782 23.8333 7.49864 23.8333C6.49946 23.8333 5.83333 24.5005 5.83333 25.5014ZM15 25.5C15 26.5 15.6661 27.1667 16.6653 27.1667C17.6645 27.1667 18.3306 26.5 18.3306 25.5C18.3306 24.5 17.6645 23.8333 16.6653 23.8333C15.6661 23.8333 15 24.5 15 25.5ZM7.21737 19.8293L6.01728 13.8333H18.1594L17.0148 19.8356C16.9373 20.2252 16.5862 20.5079 16.1826 20.5002L8.06667 20.5C7.64711 20.5079 7.29601 20.2252 7.21737 19.8293Z" fill="white"/>
</mask>
<g mask="url(#mask0)">
<rect y="8" width="20" height="20" fill="#6E6B7B"/>
</g>
<circle cx="19" cy="9" r="9" fill="#7367F0"/>
<path d="M21.5619 8.584C22.0019 8.784 22.3379 9.056 22.5699 9.4C22.8099 9.736 22.9299 10.132 22.9299 10.588C22.9299 11.1 22.7859 11.548 22.4979 11.932C22.2179 12.316 21.8179 12.612 21.2979 12.82C20.7779 13.02 20.1739 13.12 19.4859 13.12C18.7979 13.12 18.1939 13.02 17.6739 12.82C17.1619 12.612 16.7659 12.316 16.4859 11.932C16.2059 11.548 16.0659 11.1 16.0659 10.588C16.0659 10.132 16.1819 9.736 16.4139 9.4C16.6459 9.056 16.9779 8.784 17.4099 8.584C17.0739 8.4 16.8139 8.16 16.6299 7.864C16.4539 7.56 16.3659 7.212 16.3659 6.82C16.3659 6.348 16.4939 5.936 16.7499 5.584C17.0139 5.232 17.3819 4.96 17.8539 4.768C18.3259 4.576 18.8699 4.48 19.4859 4.48C20.1099 4.48 20.6579 4.576 21.1299 4.768C21.6019 4.96 21.9699 5.232 22.2339 5.584C22.4979 5.936 22.6299 6.348 22.6299 6.82C22.6299 7.212 22.5379 7.556 22.3539 7.852C22.1699 8.148 21.9059 8.392 21.5619 8.584ZM19.4859 5.704C18.9979 5.704 18.6099 5.808 18.3219 6.016C18.0419 6.224 17.9019 6.516 17.9019 6.892C17.9019 7.252 18.0419 7.54 18.3219 7.756C18.6099 7.964 18.9979 8.068 19.4859 8.068C19.9819 8.068 20.3739 7.964 20.6619 7.756C20.9499 7.54 21.0939 7.252 21.0939 6.892C21.0939 6.516 20.9459 6.224 20.6499 6.016C20.3619 5.808 19.9739 5.704 19.4859 5.704ZM19.4859 11.896C20.0619 11.896 20.5179 11.776 20.8539 11.536C21.1899 11.296 21.3579 10.964 21.3579 10.54C21.3579 10.124 21.1899 9.796 20.8539 9.556C20.5179 9.316 20.0619 9.196 19.4859 9.196C18.9099 9.196 18.4579 9.316 18.1299 9.556C17.8019 9.796 17.6379 10.124 17.6379 10.54C17.6379 10.964 17.8019 11.296 18.1299 11.536C18.4579 11.776 18.9099 11.896 19.4859 11.896Z" fill="white"/>
</svg>
