<svg width="130" height="68" viewBox="0 0 130 68" fill="none" xmlns="http://www.w3.org/2000/svg">
<path d="M23.4917 12H23.9917V11.5H23.4917V12ZM22.4917 67H21.9917V67.5H22.4917V67ZM46.1934 12H46.6934V11.5H46.1934V12ZM45.1934 67H44.6934V67.5H45.1934V67ZM69.455 67V67.5H69.955V67H69.455ZM68.455 12V11.5H67.955V12H68.455ZM93.4403 12H93.9403V11.5H93.4403V12ZM92.4403 67H91.9403V67.5H92.4403V67ZM116.683 12V11.5H116.183V12H116.683ZM117.683 67V67.5H118.183V67H117.683ZM23.4917 11.5H22.9917V12.5H23.4917V11.5ZM21.9917 12V13.9643H22.9917V12H21.9917ZM21.9917 17.8929V21.8214H22.9917V17.8929H21.9917ZM21.9917 25.75V29.6786H22.9917V25.75H21.9917ZM21.9917 33.6071V37.5357H22.9917V33.6071H21.9917ZM21.9917 41.4643V45.3929H22.9917V41.4643H21.9917ZM21.9917 49.3214V53.25H22.9917V49.3214H21.9917ZM21.9917 57.1786V61.1071H22.9917V57.1786H21.9917ZM21.9917 65.0357V67H22.9917V65.0357H21.9917ZM22.4917 67.5H22.9917V66.5H22.4917V67.5ZM23.9917 67V65.0357H22.9917V67H23.9917ZM23.9917 61.1071V57.1786H22.9917V61.1071H23.9917ZM23.9917 53.25V49.3214H22.9917V53.25H23.9917ZM23.9917 45.3929V41.4643H22.9917V45.3929H23.9917ZM23.9917 37.5357V33.6071H22.9917V37.5357H23.9917ZM23.9917 29.6786V25.75H22.9917V29.6786H23.9917ZM23.9917 21.8214V17.8929H22.9917V21.8214H23.9917ZM23.9917 13.9643V12H22.9917V13.9643H23.9917ZM46.1934 11.5H45.6934V12.5H46.1934V11.5ZM44.6934 12V13.9643H45.6934V12H44.6934ZM44.6934 17.8929V21.8214H45.6934V17.8929H44.6934ZM44.6934 25.75V29.6786H45.6934V25.75H44.6934ZM44.6934 33.6071V37.5357H45.6934V33.6071H44.6934ZM44.6934 41.4643V45.3929H45.6934V41.4643H44.6934ZM44.6934 49.3214V53.25H45.6934V49.3214H44.6934ZM44.6934 57.1786V61.1071H45.6934V57.1786H44.6934ZM44.6934 65.0357V67H45.6934V65.0357H44.6934ZM45.1934 67.5H45.6934V66.5H45.1934V67.5ZM46.6934 67V65.0357H45.6934V67H46.6934ZM46.6934 61.1071V57.1786H45.6934V61.1071H46.6934ZM46.6934 53.25V49.3214H45.6934V53.25H46.6934ZM46.6934 45.3929V41.4643H45.6934V45.3929H46.6934ZM46.6934 37.5357V33.6071H45.6934V37.5357H46.6934ZM46.6934 29.6786V25.75H45.6934V29.6786H46.6934ZM46.6934 21.8214V17.8929H45.6934V21.8214H46.6934ZM46.6934 13.9643V12H45.6934V13.9643H46.6934ZM69.455 66.5H68.955V67.5H69.455V66.5ZM68.955 67V65.0357H67.955V67H68.955ZM68.955 61.1071V57.1786H67.955V61.1071H68.955ZM68.955 53.25V49.3214H67.955V53.25H68.955ZM68.955 45.3929V41.4643H67.955V45.3929H68.955ZM68.955 37.5357V33.6071H67.955V37.5357H68.955ZM68.955 29.6786V25.75H67.955V29.6786H68.955ZM68.955 21.8214V17.8929H67.955V21.8214H68.955ZM68.955 13.9643V12H67.955V13.9643H68.955ZM68.455 12.5H68.955V11.5H68.455V12.5ZM68.955 12V13.9643H69.955V12H68.955ZM68.955 17.8929V21.8214H69.955V17.8929H68.955ZM68.955 25.75V29.6786H69.955V25.75H68.955ZM68.955 33.6071V37.5357H69.955V33.6071H68.955ZM68.955 41.4643V45.3929H69.955V41.4643H68.955ZM68.955 49.3214V53.25H69.955V49.3214H68.955ZM68.955 57.1786V61.1071H69.955V57.1786H68.955ZM68.955 65.0357V67H69.955V65.0357H68.955ZM93.4403 11.5H92.9403V12.5H93.4403V11.5ZM91.9403 12V13.9643H92.9403V12H91.9403ZM91.9403 17.8929V21.8214H92.9403V17.8929H91.9403ZM91.9403 25.75V29.6786H92.9403V25.75H91.9403ZM91.9403 33.6071V37.5357H92.9403V33.6071H91.9403ZM91.9403 41.4643V45.3929H92.9403V41.4643H91.9403ZM91.9403 49.3214V53.25H92.9403V49.3214H91.9403ZM91.9403 57.1786V61.1071H92.9403V57.1786H91.9403ZM91.9403 65.0357V67H92.9403V65.0357H91.9403ZM92.4403 67.5H92.9403V66.5H92.4403V67.5ZM93.9403 67V65.0357H92.9403V67H93.9403ZM93.9403 61.1071V57.1786H92.9403V61.1071H93.9403ZM93.9403 53.25V49.3214H92.9403V53.25H93.9403ZM93.9403 45.3929V41.4643H92.9403V45.3929H93.9403ZM93.9403 37.5357V33.6071H92.9403V37.5357H93.9403ZM93.9403 29.6786V25.75H92.9403V29.6786H93.9403ZM93.9403 21.8214V17.8929H92.9403V21.8214H93.9403ZM93.9403 13.9643V12H92.9403V13.9643H93.9403ZM2.53131 66.5H2.03131V67.5H2.53131V66.5ZM2.03131 67V64.943H1.03131V67H2.03131ZM2.03131 60.8291V56.7152H1.03131V60.8291H2.03131ZM2.03131 52.6012V48.4873H1.03131V52.6012H2.03131ZM2.03131 44.3734V40.2594H1.03131V44.3734H2.03131ZM2.03131 36.1455V32.0316H1.03131V36.1455H2.03131ZM2.03131 27.9176V23.8037H1.03131V27.9176H2.03131ZM2.03131 19.6898V15.5759H1.03131V19.6898H2.03131ZM1.53131 14.0189H2.03131V13.0189H1.53131V14.0189ZM2.03131 13.5189V15.5759H3.03131V13.5189H2.03131ZM2.03131 19.6898V23.8037H3.03131V19.6898H2.03131ZM2.03131 27.9176V32.0316H3.03131V27.9176H2.03131ZM2.03131 36.1455V40.2594H3.03131V36.1455H2.03131ZM2.03131 44.3734V48.4873H3.03131V44.3734H2.03131ZM2.03131 52.6012V56.7152H3.03131V52.6012H2.03131ZM2.03131 60.8291V64.943H3.03131V60.8291H2.03131ZM117.183 67V65.0357H116.183V67H117.183ZM117.183 61.1071V57.1786H116.183V61.1071H117.183ZM117.183 53.25V49.3214H116.183V53.25H117.183ZM117.183 45.3929V41.4643H116.183V45.3929H117.183ZM117.183 37.5357V33.6071H116.183V37.5357H117.183ZM117.183 29.6786V25.75H116.183V29.6786H117.183ZM117.183 21.8214V17.8929H116.183V21.8214H117.183ZM117.183 13.9643V12H116.183V13.9643H117.183ZM116.683 12.5H117.183V11.5H116.683V12.5ZM117.183 12V13.9643H118.183V12H117.183ZM117.183 17.8929V21.8214H118.183V17.8929H117.183ZM117.183 25.75V29.6786H118.183V25.75H117.183ZM117.183 33.6071V37.5357H118.183V33.6071H117.183ZM117.183 41.4643V45.3929H118.183V41.4643H117.183ZM117.183 49.3214V53.25H118.183V49.3214H117.183ZM117.183 57.1786V61.1071H118.183V57.1786H117.183ZM117.183 65.0357V67H118.183V65.0357H117.183ZM117.683 66.5H117.183V67.5H117.683V66.5Z" fill="#EBEBEB"/>
<path d="M1.5238 67L22.6057 44.6003L43.7795 59.3782L66.2311 33.2919L89.4047 48.4262L117.69 12" stroke="#00CFE8" stroke-width="2.5"/>
<g filter="url(#filter0_d)">
<circle cx="117.824" cy="12" r="8" fill="white"/>
<circle cx="117.824" cy="12" r="5.5" stroke="#00CFE8" stroke-width="5"/>
</g>
<defs>
<filter id="filter0_d" x="101.824" y="0" width="28" height="28" filterUnits="userSpaceOnUse" color-interpolation-filters="sRGB">
<feFlood flood-opacity="0" result="BackgroundImageFix"/>
<feColorMatrix in="SourceAlpha" type="matrix" values="0 0 0 0 0 0 0 0 0 0 0 0 0 0 0 0 0 0 127 0" result="hardAlpha"/>
<feOffset dx="-2" dy="2"/>
<feGaussianBlur stdDeviation="3"/>
<feColorMatrix type="matrix" values="0 0 0 0 0 0 0 0 0 0.811765 0 0 0 0 0.909804 0 0 0 0.6819 0"/>
<feBlend mode="normal" in2="BackgroundImageFix" result="effect1_dropShadow"/>
<feBlend mode="normal" in="SourceGraphic" in2="effect1_dropShadow" result="shape"/>
</filter>
</defs>
</svg>
