<svg width="127" height="60" viewBox="0 0 127 60" fill="none" xmlns="http://www.w3.org/2000/svg">
<path d="M0.5 2.30769C0.5 1.03319 1.53319 0 2.80769 0H4.19231C5.46681 0 6.5 1.03319 6.5 2.30769V57C6.5 58.6569 5.15685 60 3.5 60C1.84315 60 0.5 58.6569 0.5 57V2.30769Z" fill="#F3F3F3"/>
<path d="M29.5 2.30769C29.5 1.03319 30.5332 0 31.8077 0H33.1923C34.4668 0 35.5 1.03319 35.5 2.30769V57C35.5 58.6569 34.1569 60 32.5 60C30.8431 60 29.5 58.6569 29.5 57V2.30769Z" fill="#F3F3F3"/>
<path d="M61.5 2.30769C61.5 1.03319 62.5332 0 63.8077 0H65.1923C66.4668 0 67.5 1.03319 67.5 2.30769V57C67.5 58.6569 66.1569 60 64.5 60C62.8431 60 61.5 58.6569 61.5 57V2.30769Z" fill="#F3F3F3"/>
<path d="M91.5 2.30769C91.5 1.03319 92.5332 0 93.8077 0H95.1923C96.4668 0 97.5 1.03319 97.5 2.30769V57C97.5 58.6569 96.1569 60 94.5 60C92.8431 60 91.5 58.6569 91.5 57V2.30769Z" fill="#F3F3F3"/>
<path d="M120.5 2.30769C120.5 1.03319 121.533 0 122.808 0H124.192C125.467 0 126.5 1.03319 126.5 2.30769V57C126.5 58.6569 125.157 60 123.5 60C121.843 60 120.5 58.6569 120.5 57V2.30769Z" fill="#F3F3F3"/>
<path d="M0.5 39H6.5V57C6.5 58.6569 5.15685 60 3.5 60C1.84315 60 0.5 58.6569 0.5 57V39Z" fill="#FFAB00"/>
<path d="M29.5 13H35.5V57C35.5 58.6569 34.1569 60 32.5 60C30.8431 60 29.5 58.6569 29.5 57V13Z" fill="#FFAB00"/>
<path d="M61.5 31H67.5V57C67.5 58.6569 66.1569 60 64.5 60C62.8431 60 61.5 58.6569 61.5 57V31Z" fill="#FFAB00"/>
<path d="M91.5 42H97.5V57C97.5 58.6569 96.1569 60 94.5 60C92.8431 60 91.5 58.6569 91.5 57V42Z" fill="#FFAB00"/>
<path d="M120.5 24H126.5V57C126.5 58.6569 125.157 60 123.5 60C121.843 60 120.5 58.6569 120.5 57V24Z" fill="#FFAB00"/>
</svg>
