<svg width="29" height="29" viewBox="0 0 29 29" fill="none" xmlns="http://www.w3.org/2000/svg">
<path fill-rule="evenodd" clip-rule="evenodd" d="M8.38333 14.6614C8.38333 11.3664 11.2991 8.68607 14.8833 8.68607C18.4676 8.68607 21.3833 11.3664 21.3833 14.6614C21.3833 17.9564 18.4676 20.6367 14.8833 20.6367C11.2991 20.6367 8.38333 17.9564 8.38333 14.6614ZM9.61367 14.6614C9.61367 17.3314 11.9788 19.5057 14.8833 19.5057C17.7878 19.5057 20.153 17.3314 20.153 14.6614C20.153 11.9913 17.7878 9.81708 14.8833 9.81708C11.9788 9.81708 9.61367 11.9913 9.61367 14.6614Z" fill="white"/>
<path d="M14.2076 8.99823C11.4133 9.08892 9.13474 11.3618 9.04405 14.1618C8.9477 17.2509 11.47 19.7731 14.5534 19.6711C17.3477 19.5804 19.6262 17.3075 19.7169 14.5075C19.819 11.4185 17.2967 8.89621 14.2076 8.99823Z" fill="#4787F3"/>
<path d="M14.3833 0.331818C9.41816 0.331818 5.05946 2.91643 2.5712 6.81036L8.19954 16.5423L8.20521 16.531C7.95581 15.8395 7.81978 15.097 7.81978 14.3261C7.81978 10.71 10.7615 7.76825 14.3777 7.76825C14.7518 7.76825 15.1145 7.80226 15.4716 7.85894H26.7963C24.4667 3.38688 19.785 0.331818 14.3833 0.331818Z" fill="#DC483C"/>
<path d="M26.802 7.86462H15.4773C18.5777 8.38608 20.9412 11.0841 20.9412 14.3318C20.9412 15.9756 20.3347 17.4776 19.3315 18.6282L13.6692 28.3148C13.9072 28.3262 14.1453 28.3318 14.3833 28.3318C22.1145 28.3318 28.3833 22.063 28.3833 14.3318C28.3833 11.9966 27.8109 9.79742 26.802 7.86462Z" fill="#FFCE43"/>
<path d="M14.3833 20.8897C11.538 20.8897 9.11774 19.0703 8.20519 16.5367L8.19953 16.548L2.57119 6.81036C1.18819 8.98688 0.383331 11.5658 0.383331 14.3318C0.383331 21.8249 6.26673 27.9407 13.6692 28.3148L19.3315 18.6282C18.1299 20.0112 16.3558 20.8897 14.3833 20.8897Z" fill="#149F5C"/>
</svg>
