<svg width="18" height="16" viewBox="0 0 18 16" fill="none" xmlns="http://www.w3.org/2000/svg">
<path fill-rule="evenodd" clip-rule="evenodd" d="M15 3.5H12.75V2.75C12.75 1.475 11.775 0.5 10.5 0.5H7.5C6.225 0.5 5.25 1.475 5.25 2.75V3.5H3C1.725 3.5 0.75 4.475 0.75 5.75V13.25C0.75 14.525 1.725 15.5 3 15.5H15C16.275 15.5 17.25 14.525 17.25 13.25V5.75C17.25 4.475 16.275 3.5 15 3.5ZM6.75 2.75C6.75 2.3 7.05 2 7.5 2H10.5C10.95 2 11.25 2.3 11.25 2.75V3.5H6.75V2.75ZM11.25 14V5H6.75V14H11.25ZM2.25 13.25V5.75C2.25 5.3 2.55 5 3 5H5.25V14H3C2.55 14 2.25 13.7 2.25 13.25ZM15 14C15.45 14 15.75 13.7 15.75 13.25V5.75C15.75 5.3 15.45 5 15 5H12.75V14H15Z" fill="black"/>
</svg>
