<svg width="21" height="20" viewBox="0 0 21 20" fill="none" xmlns="http://www.w3.org/2000/svg">
<path d="M17.7928 6.41667L8.62618 15.5833C8.45951 15.75 8.29285 15.8333 8.04285 15.8333C7.79285 15.8333 7.62618 15.75 7.45951 15.5833L3.29285 11.4167C2.95951 11.0833 2.95951 10.5833 3.29285 10.25C3.62618 9.91667 4.12618 9.91667 4.45951 10.25L8.04285 13.8333L16.6262 5.25C16.9595 4.91667 17.4595 4.91667 17.7928 5.25C18.1262 5.58333 18.1262 6.08333 17.7928 6.41667Z" fill="black"/>
<mask id="mask0" style="mask-type:alpha" maskUnits="userSpaceOnUse" x="3" y="5" width="16" height="11">
<path d="M17.7928 6.41667L8.62618 15.5833C8.45951 15.75 8.29285 15.8333 8.04285 15.8333C7.79285 15.8333 7.62618 15.75 7.45951 15.5833L3.29285 11.4167C2.95951 11.0833 2.95951 10.5833 3.29285 10.25C3.62618 9.91667 4.12618 9.91667 4.45951 10.25L8.04285 13.8333L16.6262 5.25C16.9595 4.91667 17.4595 4.91667 17.7928 5.25C18.1262 5.58333 18.1262 6.08333 17.7928 6.41667Z" fill="white"/>
</mask>
<g mask="url(#mask0)">
<rect x="0.542847" width="20" height="20" fill="#28C76F"/>
</g>
</svg>
