<svg width="40" height="37" viewBox="0 0 40 37" fill="none" xmlns="http://www.w3.org/2000/svg">
<g clip-path="url(#clip0)">
<circle cx="19.3119" cy="20.2354" r="13.5" stroke="#E9ECEF" stroke-width="4"/>
<mask id="path-2-inside-1" fill="white">
<path d="M24.6296 32.6628C25.0605 33.6697 26.2345 34.1472 27.1781 33.5914C29.6542 32.1331 31.6883 30.0073 33.036 27.4399C34.6924 24.2844 35.2109 20.6544 34.504 17.1613C33.797 13.6682 31.908 10.5255 29.1549 8.26226C26.915 6.42089 24.2145 5.25331 21.3662 4.87248C20.2806 4.72734 19.3847 5.62378 19.3793 6.71895C19.3738 7.81413 20.2637 8.68905 21.3418 8.88181C23.2761 9.22764 25.1016 10.0642 26.6364 11.326C28.685 13.0101 30.0907 15.3487 30.6167 17.948C31.1428 20.5473 30.757 23.2485 29.5244 25.5966C28.6009 27.3558 27.2444 28.8363 25.5968 29.9071C24.6785 30.5038 24.1988 31.6559 24.6296 32.6628Z"/>
</mask>
<path d="M25.5968 29.9071L23.4172 26.5531L25.5968 29.9071ZM21.3662 4.87248L21.8963 0.90776L21.3662 4.87248ZM29.2081 37.0381C32.3232 35.2034 34.8822 32.5291 36.5777 29.2991L29.4943 25.5808C28.4944 27.4856 26.9853 29.0628 25.1482 30.1448L29.2081 37.0381ZM36.5777 29.2991C38.6616 25.3292 39.3138 20.7624 38.4245 16.3679L30.5834 17.9547C31.1079 20.5464 30.7233 23.2396 29.4943 25.5808L36.5777 29.2991ZM38.4245 16.3679C37.5351 11.9734 35.1586 8.01956 31.6951 5.17232L26.6148 11.3522C28.6574 13.0313 30.059 15.3631 30.5834 17.9547L38.4245 16.3679ZM31.6951 5.17232C28.877 2.85571 25.4796 1.38687 21.8963 0.90776L20.8361 8.8372C22.9494 9.11975 24.953 9.98607 26.6148 11.3522L31.6951 5.17232ZM20.6378 12.8194C21.9014 13.0453 23.0938 13.5918 24.0963 14.4159L29.1765 8.23601C27.1094 6.53668 24.6508 5.41 22.0458 4.94424L20.6378 12.8194ZM24.0963 14.4159C25.4344 15.5159 26.3526 17.0435 26.6962 18.7414L34.5373 17.1546C33.8288 13.6538 31.9356 10.5042 29.1765 8.23601L24.0963 14.4159ZM26.6962 18.7414C27.0398 20.4392 26.7878 22.2037 25.9827 23.7375L33.0661 27.4557C34.7262 24.2933 35.2457 20.6553 34.5373 17.1546L26.6962 18.7414ZM25.9827 23.7375C25.3795 24.8865 24.4935 25.8536 23.4172 26.5531L27.7764 33.2611C29.9953 31.8191 31.8223 29.8251 33.0661 27.4557L25.9827 23.7375ZM23.4172 26.5531C21.2277 27.9759 19.5988 31.0738 20.9522 34.2364L28.3071 31.0892C28.5386 31.6301 28.4924 32.1582 28.3584 32.52C28.233 32.8586 28.0207 33.1023 27.7764 33.2611L23.4172 26.5531ZM21.8963 0.90776C18.0743 0.396741 15.395 3.55501 15.3793 6.69902L23.3792 6.73889C23.3745 7.69255 22.487 9.05793 20.8361 8.8372L21.8963 0.90776ZM15.3793 6.69902C15.3622 10.1391 18.0674 12.3598 20.6378 12.8194L22.0458 4.94424C22.3326 4.99552 22.623 5.13745 22.8702 5.40071C23.1343 5.68196 23.3822 6.15048 23.3792 6.73889L15.3793 6.69902ZM25.1482 30.1448C26.5834 29.2995 27.9319 30.2124 28.3071 31.0892L20.9522 34.2364C22.1891 37.127 25.8856 38.995 29.2081 37.0381L25.1482 30.1448Z" fill="#7367F0" mask="url(#path-2-inside-1)"/>
</g>
<defs>
<clipPath id="clip0">
<rect width="39" height="35.852" fill="white" transform="translate(0.154755 0.735413)"/>
</clipPath>
</defs>
</svg>
