<svg width="25" height="24" viewBox="0 0 25 24" fill="none" xmlns="http://www.w3.org/2000/svg">
<path fill-rule="evenodd" clip-rule="evenodd" d="M13.6014 0.599988L21.6014 4.59999C22.7014 5.09999 23.3014 6.09999 23.3014 7.19999V16.7C23.3014 17.9 22.6014 18.9 21.6014 19.4L13.6014 23.4C13.2014 23.6 12.8014 23.7 12.3014 23.7C11.9014 23.7 11.4014 23.6 11.0014 23.4L3.00139 19.4C1.90139 18.9 1.30139 17.8 1.30139 16.7V7.19999C1.30139 6.09999 1.90139 5.09999 2.90139 4.59999L10.9014 0.599988C11.8014 0.199988 12.8014 0.199988 13.6014 0.599988ZM12.3014 2.19999C12.2014 2.19999 12.0014 2.19999 11.9014 2.29999L4.50139 5.99999L12.3014 9.89999L20.1014 5.99999L12.7014 2.29999C12.6014 2.19999 12.5014 2.19999 12.3014 2.19999ZM3.80139 17.7C3.50139 17.5 3.30139 17.1 3.30139 16.8V7.59999L11.3014 11.6V21.4L3.80139 17.7ZM13.3014 21.4L20.7014 17.7C21.1014 17.5 21.3014 17.2 21.3014 16.8V7.59999L13.3014 11.6V21.4Z" fill="black"/>
<mask id="mask0" style="mask-type:alpha" maskUnits="userSpaceOnUse" x="1" y="0" width="23" height="24">
<path fill-rule="evenodd" clip-rule="evenodd" d="M13.6014 0.599988L21.6014 4.59999C22.7014 5.09999 23.3014 6.09999 23.3014 7.19999V16.7C23.3014 17.9 22.6014 18.9 21.6014 19.4L13.6014 23.4C13.2014 23.6 12.8014 23.7 12.3014 23.7C11.9014 23.7 11.4014 23.6 11.0014 23.4L3.00139 19.4C1.90139 18.9 1.30139 17.8 1.30139 16.7V7.19999C1.30139 6.09999 1.90139 5.09999 2.90139 4.59999L10.9014 0.599988C11.8014 0.199988 12.8014 0.199988 13.6014 0.599988ZM12.3014 2.19999C12.2014 2.19999 12.0014 2.19999 11.9014 2.29999L4.50139 5.99999L12.3014 9.89999L20.1014 5.99999L12.7014 2.29999C12.6014 2.19999 12.5014 2.19999 12.3014 2.19999ZM3.80139 17.7C3.50139 17.5 3.30139 17.1 3.30139 16.8V7.59999L11.3014 11.6V21.4L3.80139 17.7ZM13.3014 21.4L20.7014 17.7C21.1014 17.5 21.3014 17.2 21.3014 16.8V7.59999L13.3014 11.6V21.4Z" fill="white"/>
</mask>
<g mask="url(#mask0)">
<rect x="0.301392" width="24" height="24" fill="#EA5455"/>
</g>
</svg>
