<svg width="18" height="18" viewBox="0 0 18 18" fill="none" xmlns="http://www.w3.org/2000/svg">
<path fill-rule="evenodd" clip-rule="evenodd" d="M3.75 1.5C3.75 1.08579 4.08579 0.75 4.5 0.75C4.91421 0.75 5.25 1.08579 5.25 1.5V3.75C5.25 4.16421 4.91421 4.5 4.5 4.5C4.08579 4.5 3.75 4.16421 3.75 3.75V1.5ZM14.25 11.9731V7.49083C14.7492 7.53768 15.3997 7.70517 15.8838 8.20969C16.7865 9.15039 16.4114 10.4086 16.4114 10.4086C16.4114 10.4086 16.0315 11.5002 15.0108 11.8914C14.686 11.9289 14.4382 11.955 14.25 11.9731ZM14.2425 13.4965C14.1152 15.5908 12.3764 17.25 10.25 17.25H4.75C2.54086 17.25 0.75 15.4591 0.75 13.25V6H13.5H14.25H14.3097C14.5469 6 14.6892 6.02594 14.8778 6.06033C14.9485 6.07322 15.0257 6.0873 15.1169 6.10165C16.9014 6.38365 17.7631 8.26759 17.9281 9C18.093 9.73241 18 11.0348 17.0427 12.2477C16.1987 13.3171 14.6073 13.4743 14.2425 13.4965ZM12.75 7.5H2.25V12.75C2.25 14.4069 3.59315 15.75 5.25 15.75H9.75C11.4069 15.75 12.75 14.4069 12.75 12.75V7.5ZM7.5 0.75C7.08579 0.75 6.75 1.08579 6.75 1.5V3.75C6.75 4.16421 7.08579 4.5 7.5 4.5C7.91421 4.5 8.25 4.16421 8.25 3.75V1.5C8.25 1.08579 7.91421 0.75 7.5 0.75ZM9.75 1.5C9.75 1.08579 10.0858 0.75 10.5 0.75C10.9142 0.75 11.25 1.08579 11.25 1.5V3.75C11.25 4.16421 10.9142 4.5 10.5 4.5C10.0858 4.5 9.75 4.16421 9.75 3.75V1.5Z" fill="#D8D8D8"/>
<mask id="mask0" style="mask-type:alpha" maskUnits="userSpaceOnUse" x="0" y="0" width="18" height="18">
<path fill-rule="evenodd" clip-rule="evenodd" d="M3.75 1.5C3.75 1.08579 4.08579 0.75 4.5 0.75C4.91421 0.75 5.25 1.08579 5.25 1.5V3.75C5.25 4.16421 4.91421 4.5 4.5 4.5C4.08579 4.5 3.75 4.16421 3.75 3.75V1.5ZM14.25 11.9731V7.49083C14.7492 7.53768 15.3997 7.70517 15.8838 8.20969C16.7865 9.15039 16.4114 10.4086 16.4114 10.4086C16.4114 10.4086 16.0315 11.5002 15.0108 11.8914C14.686 11.9289 14.4382 11.955 14.25 11.9731ZM14.2425 13.4965C14.1152 15.5908 12.3764 17.25 10.25 17.25H4.75C2.54086 17.25 0.75 15.4591 0.75 13.25V6H13.5H14.25H14.3097C14.5469 6 14.6892 6.02594 14.8778 6.06033C14.9485 6.07322 15.0257 6.0873 15.1169 6.10165C16.9014 6.38365 17.7631 8.26759 17.9281 9C18.093 9.73241 18 11.0348 17.0427 12.2477C16.1987 13.3171 14.6073 13.4743 14.2425 13.4965ZM12.75 7.5H2.25V12.75C2.25 14.4069 3.59315 15.75 5.25 15.75H9.75C11.4069 15.75 12.75 14.4069 12.75 12.75V7.5ZM7.5 0.75C7.08579 0.75 6.75 1.08579 6.75 1.5V3.75C6.75 4.16421 7.08579 4.5 7.5 4.5C7.91421 4.5 8.25 4.16421 8.25 3.75V1.5C8.25 1.08579 7.91421 0.75 7.5 0.75ZM9.75 1.5C9.75 1.08579 10.0858 0.75 10.5 0.75C10.9142 0.75 11.25 1.08579 11.25 1.5V3.75C11.25 4.16421 10.9142 4.5 10.5 4.5C10.0858 4.5 9.75 4.16421 9.75 3.75V1.5Z" fill="white"/>
</mask>
<g mask="url(#mask0)">
<rect width="18" height="18" fill="#28C76F"/>
</g>
</svg>
