<svg width="21" height="20" viewBox="0 0 21 20" fill="none" xmlns="http://www.w3.org/2000/svg">
<path fill-rule="evenodd" clip-rule="evenodd" d="M12.2262 9.16667H10.9762V5H14.3095C14.8095 5 15.1428 4.66667 15.1428 4.16667C15.1428 3.66667 14.8095 3.33333 14.3095 3.33333H10.9762V0.833333C10.9762 0.333333 10.6428 0 10.1428 0C9.64284 0 9.30951 0.333333 9.30951 0.833333V3.33333H8.05951C5.97618 3.33333 4.30951 5 4.30951 7.08333C4.30951 9.16667 5.97618 10.8333 8.05951 10.8333H9.30951V15H5.14284C4.64284 15 4.30951 15.3333 4.30951 15.8333C4.30951 16.3333 4.64284 16.6667 5.14284 16.6667H9.30951V19.1667C9.30951 19.6667 9.64284 20 10.1428 20C10.6428 20 10.9762 19.6667 10.9762 19.1667V16.6667H12.2262C14.3095 16.6667 15.9762 15 15.9762 12.9167C15.9762 10.8333 14.3095 9.16667 12.2262 9.16667ZM8.05951 9.16667C6.89284 9.16667 5.97618 8.25 5.97618 7.08333C5.97618 5.91667 6.89284 5 8.05951 5H9.30951V9.16667H8.05951ZM10.9762 15H12.2262C13.3928 15 14.3095 14.0833 14.3095 12.9167C14.3095 11.75 13.3928 10.8333 12.2262 10.8333H10.9762V15Z" fill="black"/>
<mask id="mask0" style="mask-type:alpha" maskUnits="userSpaceOnUse" x="4" y="0" width="12" height="20">
<path fill-rule="evenodd" clip-rule="evenodd" d="M12.2262 9.16667H10.9762V5H14.3095C14.8095 5 15.1428 4.66667 15.1428 4.16667C15.1428 3.66667 14.8095 3.33333 14.3095 3.33333H10.9762V0.833333C10.9762 0.333333 10.6428 0 10.1428 0C9.64284 0 9.30951 0.333333 9.30951 0.833333V3.33333H8.05951C5.97618 3.33333 4.30951 5 4.30951 7.08333C4.30951 9.16667 5.97618 10.8333 8.05951 10.8333H9.30951V15H5.14284C4.64284 15 4.30951 15.3333 4.30951 15.8333C4.30951 16.3333 4.64284 16.6667 5.14284 16.6667H9.30951V19.1667C9.30951 19.6667 9.64284 20 10.1428 20C10.6428 20 10.9762 19.6667 10.9762 19.1667V16.6667H12.2262C14.3095 16.6667 15.9762 15 15.9762 12.9167C15.9762 10.8333 14.3095 9.16667 12.2262 9.16667ZM8.05951 9.16667C6.89284 9.16667 5.97618 8.25 5.97618 7.08333C5.97618 5.91667 6.89284 5 8.05951 5H9.30951V9.16667H8.05951ZM10.9762 15H12.2262C13.3928 15 14.3095 14.0833 14.3095 12.9167C14.3095 11.75 13.3928 10.8333 12.2262 10.8333H10.9762V15Z" fill="white"/>
</mask>
<g mask="url(#mask0)">
<rect x="0.142853" width="20" height="20" fill="#EA5455"/>
</g>
</svg>
