<svg width="25" height="24" viewBox="0 0 25 24" fill="none" xmlns="http://www.w3.org/2000/svg">
<path fill-rule="evenodd" clip-rule="evenodd" d="M15.3767 11H13.8767V6H17.8767C18.4767 6 18.8767 5.6 18.8767 5C18.8767 4.4 18.4767 4 17.8767 4H13.8767V1C13.8767 0.4 13.4767 0 12.8767 0C12.2767 0 11.8767 0.4 11.8767 1V4H10.3767C7.87671 4 5.87671 6 5.87671 8.5C5.87671 11 7.87671 13 10.3767 13H11.8767V18H6.87671C6.27671 18 5.87671 18.4 5.87671 19C5.87671 19.6 6.27671 20 6.87671 20H11.8767V23C11.8767 23.6 12.2767 24 12.8767 24C13.4767 24 13.8767 23.6 13.8767 23V20H15.3767C17.8767 20 19.8767 18 19.8767 15.5C19.8767 13 17.8767 11 15.3767 11ZM10.3767 11C8.97671 11 7.87671 9.9 7.87671 8.5C7.87671 7.1 8.97671 6 10.3767 6H11.8767V11H10.3767ZM13.8767 18H15.3767C16.7767 18 17.8767 16.9 17.8767 15.5C17.8767 14.1 16.7767 13 15.3767 13H13.8767V18Z" fill="black"/>
<mask id="mask0" style="mask-type:alpha" maskUnits="userSpaceOnUse" x="5" y="0" width="15" height="24">
<path fill-rule="evenodd" clip-rule="evenodd" d="M15.3767 11H13.8767V6H17.8767C18.4767 6 18.8767 5.6 18.8767 5C18.8767 4.4 18.4767 4 17.8767 4H13.8767V1C13.8767 0.4 13.4767 0 12.8767 0C12.2767 0 11.8767 0.4 11.8767 1V4H10.3767C7.87671 4 5.87671 6 5.87671 8.5C5.87671 11 7.87671 13 10.3767 13H11.8767V18H6.87671C6.27671 18 5.87671 18.4 5.87671 19C5.87671 19.6 6.27671 20 6.87671 20H11.8767V23C11.8767 23.6 12.2767 24 12.8767 24C13.4767 24 13.8767 23.6 13.8767 23V20H15.3767C17.8767 20 19.8767 18 19.8767 15.5C19.8767 13 17.8767 11 15.3767 11ZM10.3767 11C8.97671 11 7.87671 9.9 7.87671 8.5C7.87671 7.1 8.97671 6 10.3767 6H11.8767V11H10.3767ZM13.8767 18H15.3767C16.7767 18 17.8767 16.9 17.8767 15.5C17.8767 14.1 16.7767 13 15.3767 13H13.8767V18Z" fill="white"/>
</mask>
<g mask="url(#mask0)">
<rect x="0.876709" width="24" height="24" fill="#28C76F"/>
</g>
</svg>
