<svg width="376" height="122" viewBox="0 0 376 122" fill="none" xmlns="http://www.w3.org/2000/svg">
<g clip-path="url(#clip0)">
<path d="M0 83.0804C0 80.8713 1.79086 79.0804 4 79.0804C6.20914 79.0804 8 80.8713 8 83.0804V120.322H0V83.0804Z" fill="#7367F0"/>
<path d="M46 47.1264C46 44.9173 47.7909 43.1264 50 43.1264C52.2091 43.1264 54 44.9173 54 47.1264V121.379H46V47.1264Z" fill="#7367F0"/>
<path d="M92 4.82757C92 2.61843 93.7909 0.827576 96 0.827576C98.2091 0.827576 100 2.61844 100 4.82758V118.207H92V4.82757Z" fill="#7367F0"/>
<path d="M138 17.5172C138 15.3081 139.791 13.5172 142 13.5172C144.209 13.5172 146 15.3081 146 17.5172V119.264H138V17.5172Z" fill="#7367F0"/>
<path d="M184 78.8506C184 76.6414 185.791 74.8506 188 74.8506C190.209 74.8506 192 76.6414 192 78.8506V121.379H184V78.8506Z" fill="#7367F0"/>
<path d="M230 97.885C230 95.6759 231.791 93.885 234 93.885C236.209 93.885 238 95.6759 238 97.885V119.264H230V97.885Z" fill="#7367F0"/>
<path d="M276 49.2414C276 47.0322 277.791 45.2414 280 45.2414C282.209 45.2414 284 47.0322 284 49.2414V121.379H276V49.2414Z" fill="#7367F0"/>
<path d="M322 25.977C322 23.7678 323.791 21.977 326 21.977C328.209 21.977 330 23.7679 330 25.977V119.264H322V25.977Z" fill="#7367F0"/>
<path d="M368 89.4253C368 87.2162 369.791 85.4253 372 85.4253C374.209 85.4253 376 87.2162 376 89.4253V118.207H368V89.4253Z" fill="#7367F0"/>
</g>
<defs>
<clipPath id="clip0">
<rect width="376" height="120.552" fill="white" transform="translate(0 0.827576)"/>
</clipPath>
</defs>
</svg>
