<svg width="376" height="75" viewBox="0 0 376 75" fill="none" xmlns="http://www.w3.org/2000/svg">
<g clip-path="url(#clip0)">
<path d="M0 60.2874C0 62.4965 1.79086 64.2874 4 64.2874C6.20914 64.2874 8 62.4965 8 60.2874V1.89656H0V60.2874Z" fill="#FF9F43"/>
<path d="M46 32.7931C46 35.0022 47.7909 36.7931 50 36.7931C52.2091 36.7931 54 35.0022 54 32.7931V1.89655H46V32.7931Z" fill="#FF9F43"/>
<path d="M92 22.2184C92 24.4275 93.7909 26.2184 96 26.2184C98.2091 26.2184 100 24.4275 100 22.2184V1.89655H92V22.2184Z" fill="#FF9F43"/>
<path d="M138 70.8621C138 73.0712 139.791 74.8621 142 74.8621C144.209 74.8621 146 73.0712 146 70.8621V0.839081H138V70.8621Z" fill="#FF9F43"/>
<path d="M184 42.3103C184 44.5195 185.791 46.3103 188 46.3103C190.209 46.3103 192 44.5195 192 42.3103V1.89655H184V42.3103Z" fill="#FF9F43"/>
<path d="M230 22.2184C230 24.4275 231.791 26.2184 234 26.2184C236.209 26.2184 238 24.4275 238 22.2184V1.89655H230V22.2184Z" fill="#FF9F43"/>
<path d="M276 35.9655C276 38.1747 277.791 39.9655 280 39.9655C282.209 39.9655 284 38.1747 284 35.9655V0.839085H276V35.9655Z" fill="#FF9F43"/>
<path d="M322 29.6207C322 31.8298 323.791 33.6207 326 33.6207C328.209 33.6207 330 31.8298 330 29.6207V0.839092H322V29.6207Z" fill="#FF9F43"/>
<path d="M368 42.3103C368 44.5195 369.791 46.3103 372 46.3103C374.209 46.3103 376 44.5195 376 42.3103V0.839073H368V42.3103Z" fill="#FF9F43"/>
</g>
<defs>
<clipPath id="clip0">
<rect width="376" height="74.023" fill="white" transform="translate(0 0.839081)"/>
</clipPath>
</defs>
</svg>
