<svg width="40" height="37" viewBox="0 0 40 37" fill="none" xmlns="http://www.w3.org/2000/svg">
<g clip-path="url(#clip0)">
<circle cx="19.3369" cy="19.9484" r="13.5" stroke="#E9ECEF" stroke-width="4"/>
<path d="M31.1091 26.5565C31.1116 26.4726 31.134 26.3728 31.1853 26.2767C31.978 24.7925 32.4883 23.166 32.6818 21.4802C32.9666 18.9992 32.5541 16.4879 31.4906 14.2284C30.4272 11.9688 28.7549 10.0504 26.6616 8.68867C25.2392 7.76337 23.6606 7.11996 22.0116 6.78489C21.9049 6.7632 21.8137 6.71689 21.7475 6.66535C23.5051 6.98434 25.1892 7.65035 26.6984 8.63209C28.8022 10.0007 30.4829 11.9287 31.5517 14.1996C32.6205 16.4705 33.0351 18.9944 32.7489 21.4879C32.5435 23.2765 31.9835 24.9987 31.1091 26.5565ZM31.1527 26.7301C31.1527 26.7301 31.1524 26.73 31.152 26.7298L31.1527 26.7301ZM21.6415 6.52109C21.6415 6.5211 21.6415 6.52134 21.6413 6.5218L21.6415 6.52109Z" stroke="#82868B" stroke-width="4"/>
</g>
<defs>
<clipPath id="clip0">
<rect width="39" height="35.852" fill="white" transform="translate(0.179749 0.448425)"/>
</clipPath>
</defs>
</svg>
