<svg width="18" height="18" viewBox="0 0 18 18" fill="none" xmlns="http://www.w3.org/2000/svg">
<path fill-rule="evenodd" clip-rule="evenodd" d="M9.975 0.450006L15.975 3.45001C16.8 3.82501 17.25 4.57501 17.25 5.40001V12.525C17.25 13.425 16.725 14.175 15.975 14.55L9.975 17.55C9.675 17.7 9.375 17.775 9 17.775C8.7 17.775 8.325 17.7 8.025 17.55L2.025 14.55C1.2 14.175 0.75 13.35 0.75 12.525V5.40001C0.75 4.57501 1.2 3.82501 1.95 3.45001L7.95 0.450006C8.625 0.150006 9.375 0.150006 9.975 0.450006ZM9.00001 1.65001C8.92501 1.65001 8.77501 1.65001 8.70001 1.72501L3.15001 4.50001L9.00001 7.42501L14.85 4.50001L9.30001 1.72501C9.22501 1.65001 9.15001 1.65001 9.00001 1.65001ZM2.625 13.275C2.4 13.125 2.25 12.825 2.25 12.6V5.70001L8.25 8.70001V16.05L2.625 13.275ZM9.75 16.05L15.3 13.275C15.6 13.125 15.75 12.9 15.75 12.6V5.70001L9.75 8.70001V16.05Z" fill="black"/>
</svg>
