<svg width="16" height="16" viewBox="0 0 16 16" fill="none" xmlns="http://www.w3.org/2000/svg">
<path fill-rule="evenodd" clip-rule="evenodd" d="M15.275 4.475L11.525 0.725C11.375 0.575 11.225 0.5 11 0.5H2.75C1.475 0.5 0.5 1.475 0.5 2.75V13.25C0.5 14.525 1.475 15.5 2.75 15.5H13.25C14.525 15.5 15.5 14.525 15.5 13.25V5C15.5 4.775 15.425 4.625 15.275 4.475ZM11 14H5V9.5H11V14ZM13.25 14C13.7 14 14 13.7 14 13.25V5.3L10.7 2H5V4.25H10.25C10.7 4.25 11 4.55 11 5C11 5.45 10.7 5.75 10.25 5.75H4.25C3.8 5.75 3.5 5.45 3.5 5V2H2.75C2.3 2 2 2.3 2 2.75V13.25C2 13.7 2.3 14 2.75 14H3.5V8.75C3.5 8.3 3.8 8 4.25 8H11.75C12.2 8 12.5 8.3 12.5 8.75V14H13.25Z" fill="black"/>
</svg>
