<svg width="29" height="29" viewBox="0 0 29 29" fill="none" xmlns="http://www.w3.org/2000/svg">
<circle cx="14.8119" cy="14.9731" r="14" fill="url(#paint0_radial)"/>
<circle cx="14.8119" cy="14.9731" r="14" fill="url(#paint1_linear)"/>
<path opacity="0.1" fill-rule="evenodd" clip-rule="evenodd" d="M23.9887 10.1066L24.5465 10.2015L24.8119 10.2752L24.6867 10.6074L24.6786 10.9743L24.4346 10.9981L24.2172 11.2615C24.1997 11.3525 24.0387 11.4173 23.8909 11.4769C23.8148 11.5075 23.7422 11.5368 23.6945 11.5675C23.6612 11.5888 23.6278 11.6146 23.5924 11.6419C23.4894 11.7215 23.3694 11.8141 23.1869 11.8482L23.1536 11.99L23.472 12.4713C23.613 12.5477 23.6334 12.8339 23.6522 13.0967C23.6619 13.2319 23.6711 13.3609 23.6961 13.452C23.7153 13.5219 23.7451 13.594 23.7768 13.6706C23.8667 13.8875 23.9715 14.1406 23.8908 14.4838C23.8249 14.7643 23.8189 14.7737 23.7266 14.9177C23.666 15.0121 23.5684 15.1645 23.3924 15.4892C23.1491 15.9377 22.9414 16.092 22.7431 16.2392C22.579 16.361 22.4214 16.478 22.2557 16.7529C22.1257 16.9684 21.988 17.0516 21.8445 17.0803C21.8799 17.1735 21.9112 17.2712 21.9417 17.3664C21.9913 17.5214 22.0387 17.6694 22.0979 17.779C22.1422 17.8611 22.2006 17.9486 22.2626 18.0417C22.3363 18.1522 22.4151 18.2704 22.4815 18.3961L23.5908 19.2709L22.5617 19.393L22.5106 19.4083L22.5045 19.4173C22.4427 19.5078 22.3447 19.6515 22.1755 19.9743C21.9433 20.4176 21.6883 20.5425 21.4449 20.6618C21.3265 20.7198 21.2108 20.7765 21.1019 20.8678C20.9822 21.038 20.8715 21.2088 20.8614 21.5041C20.8463 21.9432 20.4754 22.0366 20.0802 22.1362C19.8562 22.1927 19.6243 22.2511 19.445 22.3755C18.9492 22.7195 17.6626 23.2699 17.7452 22.7768C17.7876 22.5235 17.9298 22.4337 18.0692 22.3455C18.2011 22.2621 18.3306 22.1802 18.3708 21.9627C18.4511 21.5277 18.3103 21.2069 18.3025 21.1894C17.7838 21.1317 17.3301 20.9913 17.5264 20.7508C17.6905 20.5496 17.8597 20.5384 18.0256 20.5274C18.1827 20.5169 18.3368 20.5067 18.481 20.3358C18.5098 20.3017 18.5305 20.2683 18.5514 20.2348C18.5598 20.2213 18.5682 20.2077 18.5772 20.1941C18.3146 20.1465 18.0466 19.9608 17.7975 19.7882C17.6489 19.6852 17.507 19.587 17.3771 19.5255C17.2756 19.4775 17.1545 19.4339 17.0258 19.3875C16.6611 19.2561 16.2356 19.1028 16.0216 18.7652C15.8468 18.4893 15.8471 18.4779 15.8526 18.3022C15.8562 18.187 15.8619 18.0011 15.8219 17.6237C15.7666 17.1023 15.9498 16.8507 16.1247 16.6106C16.2693 16.412 16.4083 16.2212 16.4016 15.8919C16.3923 15.4277 16.842 15.3033 17.3214 15.1706C17.5931 15.0955 17.8742 15.0177 18.0867 14.8739C18.0894 14.8721 18.0928 14.8701 18.0962 14.8681C18.0995 14.8662 18.1027 14.8643 18.1053 14.8625L17.9459 14.5501L16.8612 14.0928L17.3195 13.5652L17.6021 13.0962L17.9841 12.2051L18.2667 12.463L18.7861 12.7327C18.9475 12.7327 19.109 12.973 19.2572 13.1936C19.3334 13.3071 19.4061 13.4154 19.4736 13.4831C19.5242 13.5339 19.5842 13.5828 19.648 13.6348C19.7489 13.717 19.8592 13.8068 19.9563 13.9238C20.1216 13.7965 20.2184 13.6103 20.3134 13.4276C20.4596 13.1465 20.6014 12.8739 20.9811 12.837C20.9843 12.8366 20.8785 12.414 20.7735 11.9951C20.7513 11.9064 20.7292 11.8179 20.7081 11.7336C20.6999 11.7433 20.6922 11.7526 20.6847 11.7616C20.6639 11.7868 20.6444 11.8104 20.6188 11.8358L20.3233 12.603L20.0597 12.0666L20.0413 12.0417C20.0393 12.0412 20.0372 12.0407 20.0351 12.0401C19.9713 12.0235 19.8702 11.9972 19.6524 11.9659C19.3535 11.9229 19.2336 11.8078 19.1192 11.6979C19.0636 11.6444 19.0092 11.5922 18.9362 11.5502C18.8157 11.5171 18.6966 11.4889 18.5245 11.5389C18.2688 11.6132 18.1454 11.4292 18.0138 11.233C17.9392 11.1219 17.862 11.0069 17.7567 10.9328C17.4655 10.7279 16.9069 10.132 17.2064 10.0843C17.3602 10.0598 17.4387 10.1202 17.5156 10.1794C17.5884 10.2355 17.6599 10.2905 17.7927 10.2715C18.0583 10.2334 18.2167 10.0966 18.2253 10.0891C18.1611 9.79636 18.1567 9.52346 18.3321 9.58496C18.4788 9.63633 18.5171 9.72618 18.5546 9.81432C18.5901 9.89772 18.6249 9.97958 18.7504 10.0259C18.7756 10.0351 18.7988 10.0401 18.8221 10.0452C18.8314 10.0472 18.8407 10.0492 18.8501 10.0515C18.8282 9.89982 18.8849 9.71923 18.9375 9.55147C18.9689 9.45137 18.9988 9.35584 19.0098 9.27374C19.0184 9.2095 19.0208 9.13547 19.0233 9.0568C19.0305 8.83392 19.0389 8.57388 19.1932 8.39422C19.3193 8.24737 19.3259 8.24542 19.4281 8.21539C19.4951 8.1957 19.6033 8.16393 19.8131 8.07134C20.103 7.94336 20.2823 7.99569 20.4534 8.04563C20.595 8.08695 20.731 8.12664 20.9194 8.06119C21.185 7.96894 21.3411 8.19002 21.5075 8.42563C21.6018 8.55915 21.6994 8.69734 21.8221 8.78581C21.8237 8.78692 21.8254 8.78837 21.8272 8.78983C21.8289 8.79127 21.8306 8.79271 21.8322 8.79383L21.9822 8.64847L22.0419 7.97308L22.4318 8.12311L22.755 8.18866L23.34 8.22884L23.2445 8.43091L23.1867 8.76387C23.217 8.85157 23.1089 8.9844 23.0097 9.10638C22.9586 9.16914 22.9099 9.22902 22.8836 9.2784C22.8639 9.31542 22.847 9.35721 22.829 9.4016C22.8006 9.4719 22.7696 9.54873 22.7205 9.6235C22.8248 9.68945 22.9503 9.70712 23.0733 9.72446C23.2626 9.75112 23.4463 9.77698 23.5388 9.97642C23.5396 9.97808 23.7564 9.84528 23.9746 9.71162C24.1957 9.57625 24.4181 9.44 24.4189 9.44173L23.9887 10.1066ZM20.8885 11.527C20.8848 11.5314 20.8812 11.5357 20.878 11.5391L21.4389 12.2051L21.8217 11.5201C21.745 11.4746 21.6596 11.4322 21.5228 11.4045C21.3743 11.3743 21.3005 11.3151 21.2571 11.2425C21.2101 11.2793 21.1596 11.3146 21.1106 11.349C21.0306 11.4051 20.9542 11.4587 20.9022 11.5114C20.8981 11.5156 20.8932 11.5214 20.8885 11.527Z" fill="black"/>
<path d="M28.8119 14.8734C28.8119 22.6453 22.5423 28.9731 14.8119 28.9731C7.08148 28.9731 0.81189 22.6453 0.81189 14.8734C0.81189 12.3765 1.46925 10.0266 2.60142 7.99489C1.8832 6.96675 1.62752 4.93505 3.24667 3.24602C3.24667 3.89467 3.63625 5.00849 4.07449 5.84075C4.42751 6.50165 4.80534 6.98063 5.07276 6.91782C5.68233 6.77465 7.81189 6.77095 8.11624 6.91782C8.61533 6.2691 9.83273 4.46995 11.7684 4.46995C10.6849 5.55927 7.58058 9.36568 12.9858 9.36568C13.5945 9.36568 14.2032 9.36568 14.2032 9.36568L10.551 11.8135C10.551 11.8135 10.965 12.6213 10.551 13.0375C10.0884 12.5724 8.11624 13.5393 8.11624 14.8734C8.11624 16.2074 9.52838 17.9332 12.3771 17.9332C15.2258 17.9332 14.5075 16.7093 16.0293 16.7093C17.551 16.7093 17.8554 17.9332 17.8554 17.9332C15.7615 17.9332 14.2398 20.3811 11.7684 20.3811C12.9858 21.2868 13.7892 21.605 15.4206 21.605C19.4501 21.605 22.7249 18.3126 22.7249 14.2614C22.7249 12.6213 22.1893 11.1159 21.2884 9.89197C22.9197 11.1159 24.0154 13.0007 24.2101 15.1426C24.4293 14.2858 24.551 13.3679 24.551 12.4255C24.551 8.75372 23.0901 3.83349 20.3997 1.97308C25.3545 4.13947 28.8119 9.09638 28.8119 14.8734Z" fill="url(#paint2_radial)"/>
<path opacity="0.1" d="M8.03726 14.731C8.03726 13.4966 10.1262 12.602 10.6162 13.0323C10.9753 12.7169 10.7484 12.1648 10.6537 11.9731C10.6288 12.09 10.5767 12.2019 10.4728 12.2932C9.9672 11.8492 7.81189 12.7722 7.81189 14.0458C7.81189 14.3432 7.90436 14.6607 8.07293 14.9731C8.06086 14.8922 8.03726 14.8095 8.03726 14.731Z" fill="black"/>
<path d="M24.5344 12.6989C24.5344 13.2262 24.4372 14.7253 24.232 15.4862C24.2538 15.6481 24.2806 15.8082 24.2937 15.9731C24.4965 15.066 24.8119 12.857 24.8119 11.8593C24.8119 9.13157 24.1441 5.75711 22.8872 3.30358C22.2357 2.79058 21.5442 2.33952 20.8119 1.97308C23.2244 3.8821 24.5344 8.93109 24.5344 12.6989Z" fill="url(#paint3_linear)"/>
<path d="M21.8119 9.97308C22.8793 11.1112 23.5139 12.5111 23.5139 14.0363C23.5139 14.7094 23.3852 15.3585 23.1545 15.9731C23.5751 15.156 23.8119 14.2648 23.8119 13.3295C23.8119 12.5755 23.6534 11.8538 23.3755 11.1745C22.9179 10.7264 22.3985 10.3185 21.8119 9.97308Z" fill="url(#paint4_linear)"/>
<path opacity="0.1" d="M17.8119 17.5511C17.8119 17.5511 17.7456 17.266 17.5272 16.9731C15.8079 17.263 13.9109 19.4852 11.8119 19.4852C12.0372 19.6729 12.2452 19.8298 12.4488 19.9703C14.3253 20.069 16.1281 17.5511 17.8119 17.5511Z" fill="black"/>
<path opacity="0.1" d="M3.41855 3.81702C3.3522 3.56073 3.30325 3.31818 3.30325 3.12915C3.26529 3.16858 3.24081 3.21008 3.20523 3.24994C3.26669 3.43744 3.34006 3.62854 3.41855 3.81702Z" fill="black"/>
<path opacity="0.1" d="M2.31726 6.54962C2.32617 6.53351 2.33234 6.51562 2.34137 6.49957C2.31976 6.46875 2.30304 6.42932 2.28241 6.39655C2.29437 6.44763 2.30292 6.50037 2.31726 6.54962Z" fill="black"/>
<path opacity="0.1" d="M14.3273 28.6887C9.71404 28.6887 5.54414 26.8484 2.81189 23.9731C5.44965 26.9886 9.6459 28.9731 14.3273 28.9731C19.0087 28.9731 23.1741 27.0266 25.8119 24.011C23.0796 26.8863 18.9405 28.6887 14.3273 28.6887Z" fill="black"/>
<path opacity="0.1" d="M13.3605 9.97308L10.8119 11.308C10.8119 11.308 11.0296 11.6479 11.0052 11.9731L14.8119 9.97917C14.8119 9.97917 14.1691 9.97917 13.5262 9.97917C13.4651 9.97917 13.4195 9.97379 13.3605 9.97308Z" fill="black"/>
<path opacity="0.1" d="M9.99405 7.97308C9.81189 6.78351 11.2504 5.44703 11.8119 4.97308C11.3796 4.97308 10.9887 5.05653 10.6288 5.18048C10.0126 5.92831 9.53654 7.33319 9.99405 7.97308Z" fill="black"/>
<path d="M20.3998 2.11739C20.4458 2.14901 20.4885 2.18831 20.5337 2.22171C18.7881 1.42717 16.8549 0.973083 14.8119 0.973083C10.502 0.973083 6.65313 2.94368 4.11443 6.0321C4.10119 6.00811 4.08766 5.98895 4.07448 5.96439C3.63627 5.13653 3.24669 4.02868 3.24669 3.38353C1.6275 5.06354 1.88321 7.08434 2.60141 8.10695C1.46928 10.1278 0.81189 12.4652 0.81189 14.9487C0.81189 22.6791 7.08151 28.9731 14.8119 28.9731C22.5423 28.9731 28.8119 22.6791 28.8119 14.9487C28.8119 9.20263 25.3545 4.27221 20.3998 2.11739Z" fill="url(#paint5_linear)"/>
<defs>
<radialGradient id="paint0_radial" cx="0" cy="0" r="1" gradientUnits="userSpaceOnUse" gradientTransform="translate(8.32231 0.316832) scale(24.5976)">
<stop stop-color="#15BEF0"/>
<stop offset="0.268032" stop-color="#0D91CE"/>
<stop offset="0.530391" stop-color="#066DB1"/>
<stop offset="0.742498" stop-color="#0257A0"/>
<stop offset="0.877771" stop-color="#004E9A"/>
</radialGradient>
<linearGradient id="paint1_linear" x1="0.81189" y1="0.973083" x2="0.81189" y2="28.9731" gradientUnits="userSpaceOnUse">
<stop stop-opacity="0.01"/>
<stop offset="1" stop-opacity="0.4"/>
</linearGradient>
<radialGradient id="paint2_radial" cx="0" cy="0" r="1" gradientUnits="userSpaceOnUse" gradientTransform="translate(21.3744 7.20521) rotate(141.612) scale(19.4645 19.3154)">
<stop stop-color="#FFF203"/>
<stop offset="0.298428" stop-color="#FBC40D"/>
<stop offset="0.776505" stop-color="#F47E1C"/>
<stop offset="1" stop-color="#F26322"/>
</radialGradient>
<linearGradient id="paint3_linear" x1="18.2168" y1="20.115" x2="25.8996" y2="20.4514" gradientUnits="userSpaceOnUse">
<stop stop-color="white" stop-opacity="0.5"/>
<stop offset="1" stop-color="white" stop-opacity="0.2"/>
</linearGradient>
<linearGradient id="paint4_linear" x1="20.2293" y1="18.2574" x2="24.2982" y2="18.4237" gradientUnits="userSpaceOnUse">
<stop stop-color="white" stop-opacity="0.5"/>
<stop offset="1" stop-color="white" stop-opacity="0.2"/>
</linearGradient>
<linearGradient id="paint5_linear" x1="-5.61212" y1="21.7836" x2="21.2387" y2="34.3043" gradientUnits="userSpaceOnUse">
<stop stop-color="white" stop-opacity="0.2"/>
<stop offset="1" stop-color="white" stop-opacity="0.01"/>
</linearGradient>
</defs>
</svg>
