<svg width="16" height="16" viewBox="0 0 16 16" fill="none" xmlns="http://www.w3.org/2000/svg">
<path d="M16 4V8C16 8.4 15.7333 8.66667 15.3333 8.66667C14.9333 8.66667 14.6667 8.4 14.6667 8V5.6L9.46667 10.8C9.2 11.0667 8.8 11.0667 8.53333 10.8L5.66667 7.93333L1.13333 12.4667C1 12.6 0.866667 12.6667 0.666667 12.6667C0.466667 12.6667 0.333333 12.6 0.2 12.4667C-0.0666667 12.2 -0.0666667 11.8 0.2 11.5333L5.2 6.53333C5.46667 6.26667 5.86667 6.26667 6.13333 6.53333L9 9.4L13.7333 4.66667H11.3333C10.9333 4.66667 10.6667 4.4 10.6667 4C10.6667 3.6 10.9333 3.33333 11.3333 3.33333H15.3333C15.4 3.33333 15.5333 3.33333 15.6 3.4C15.7333 3.46667 15.8667 3.6 15.9333 3.73333C16 3.8 16 3.93333 16 4Z" fill="black"/>
<mask id="mask0" style="mask-type:alpha" maskUnits="userSpaceOnUse" x="0" y="3" width="16" height="10">
<path d="M16 4V8C16 8.4 15.7333 8.66667 15.3333 8.66667C14.9333 8.66667 14.6667 8.4 14.6667 8V5.6L9.46667 10.8C9.2 11.0667 8.8 11.0667 8.53333 10.8L5.66667 7.93333L1.13333 12.4667C1 12.6 0.866667 12.6667 0.666667 12.6667C0.466667 12.6667 0.333333 12.6 0.2 12.4667C-0.0666667 12.2 -0.0666667 11.8 0.2 11.5333L5.2 6.53333C5.46667 6.26667 5.86667 6.26667 6.13333 6.53333L9 9.4L13.7333 4.66667H11.3333C10.9333 4.66667 10.6667 4.4 10.6667 4C10.6667 3.6 10.9333 3.33333 11.3333 3.33333H15.3333C15.4 3.33333 15.5333 3.33333 15.6 3.4C15.7333 3.46667 15.8667 3.6 15.9333 3.73333C16 3.8 16 3.93333 16 4Z" fill="white"/>
</mask>
<g mask="url(#mask0)">
<rect width="16" height="16" fill="#28C76F"/>
</g>
</svg>
