<svg width="25" height="24" viewBox="0 0 25 24" fill="none" xmlns="http://www.w3.org/2000/svg">
<path d="M24.4247 6V12C24.4247 12.6 24.0247 13 23.4247 13C22.8247 13 22.4247 12.6 22.4247 12V8.4L14.6247 16.2C14.2247 16.6 13.6247 16.6 13.2247 16.2L8.92466 11.9L2.12466 18.7C1.92466 18.9 1.72466 19 1.42466 19C1.12466 19 0.924658 18.9 0.724658 18.7C0.324658 18.3 0.324658 17.7 0.724658 17.3L8.22466 9.8C8.62466 9.4 9.22466 9.4 9.62466 9.8L13.9247 14.1L21.0247 7H17.4247C16.8247 7 16.4247 6.6 16.4247 6C16.4247 5.4 16.8247 5 17.4247 5H23.4247C23.5247 5 23.7247 5 23.8247 5.1C24.0247 5.2 24.2247 5.4 24.3247 5.6C24.4247 5.7 24.4247 5.9 24.4247 6Z" fill="black"/>
<mask id="mask0" style="mask-type:alpha" maskUnits="userSpaceOnUse" x="0" y="5" width="25" height="14">
<path d="M24.4247 6V12C24.4247 12.6 24.0247 13 23.4247 13C22.8247 13 22.4247 12.6 22.4247 12V8.4L14.6247 16.2C14.2247 16.6 13.6247 16.6 13.2247 16.2L8.92466 11.9L2.12466 18.7C1.92466 18.9 1.72466 19 1.42466 19C1.12466 19 0.924658 18.9 0.724658 18.7C0.324658 18.3 0.324658 17.7 0.724658 17.3L8.22466 9.8C8.62466 9.4 9.22466 9.4 9.62466 9.8L13.9247 14.1L21.0247 7H17.4247C16.8247 7 16.4247 6.6 16.4247 6C16.4247 5.4 16.8247 5 17.4247 5H23.4247C23.5247 5 23.7247 5 23.8247 5.1C24.0247 5.2 24.2247 5.4 24.3247 5.6C24.4247 5.7 24.4247 5.9 24.4247 6Z" fill="white"/>
</mask>
<g mask="url(#mask0)">
<rect x="0.424658" width="24" height="24" fill="#7367F0"/>
</g>
</svg>
