<svg width="22" height="22" viewBox="0 0 22 22" fill="none" xmlns="http://www.w3.org/2000/svg">
<g opacity="0.2">
<path d="M11.2567 14.0691C10.4329 14.8841 8.03417 20.6376 8.03417 20.6376C7.68211 21.2704 8.20888 21.7298 9.40694 21.1279L13.7116 18.8048C16.0309 17.5294 16.4793 17.1962 16.4486 14.5997L16.0172 11.5338C15.8695 10.4836 15.0748 10.2908 14.2511 11.1059L11.2567 14.0691Z" fill="#231F20"/>
</g>
<g opacity="0.2">
<path d="M7.87106 11.2114C7.05601 12.0352 1.30249 14.434 1.30249 14.434C0.669725 14.786 0.210344 14.2593 0.812201 13.0612L3.1353 8.75656C4.41077 6.43721 4.74392 5.98879 7.34044 6.0195L10.4063 6.45097C11.4565 6.59868 11.6493 7.39332 10.8342 8.21709L7.87106 11.2114Z" fill="#231F20"/>
</g>
<path fill-rule="evenodd" clip-rule="evenodd" d="M10.6255 13.0986C9.85236 13.9281 7.6009 19.7839 7.6009 19.7839C7.27047 20.4279 7.76488 20.8955 8.88937 20.2829L12.9297 17.9185C15.1066 16.6204 15.5275 16.2813 15.4987 13.6386L15.0937 10.5183C14.955 9.44938 14.2092 9.25319 13.436 10.0827L10.6255 13.0986Z" fill="#F96E6F"/>
<path fill-rule="evenodd" clip-rule="evenodd" d="M7.97038 11.0527C7.14084 11.9226 1.28504 14.4555 1.28504 14.4555C0.641029 14.8272 0.173482 14.271 0.786038 13.0059L3.15043 8.46059C4.44858 6.01154 4.78764 5.53806 7.43033 5.57048L10.5507 6.02608C11.6196 6.18204 11.8158 7.02112 10.9862 7.89095L7.97038 11.0527Z" fill="#F96E6F"/>
<g opacity="0.2">
<path d="M5.6235 13.9611C8.1605 11.2905 10.292 12.1053 10.292 12.1053C10.292 12.1053 11.0665 14.349 8.529 17.0195C5.9915 19.69 1.8835 21.63 1.5635 21.2932C1.2535 20.9663 3.086 16.6316 5.6235 13.9611Z" fill="#231F20"/>
</g>
<path fill-rule="evenodd" clip-rule="evenodd" d="M5.65234 12.6805C8.22537 9.82216 10.3871 10.6942 10.3871 10.6942C10.3871 10.6942 11.1726 13.0957 8.5991 15.954C6.02557 18.8124 1.85924 20.8888 1.53469 20.5283C1.22029 20.1784 3.07881 15.5388 5.65234 12.6805Z" fill="#FFAF63"/>
<path d="M7.65234 10.6805C10.2254 7.82216 12.3871 8.6942 12.3871 8.6942C12.3871 8.6942 13.1726 11.0957 10.5991 13.954C8.02557 16.8124 3.85923 18.8888 3.53468 18.5283C3.22028 18.179 5.07931 13.5388 7.65234 10.6805Z" fill="#F5CF87"/>
<g opacity="0.2">
<path d="M17.1728 12.7499C13.1331 17.0589 6.94019 15.8799 6.94019 15.8799C6.94019 15.8799 5.83484 9.27462 9.8745 4.96511C13.9142 0.655588 20.0347 0.197657 20.8385 1.05504C21.6179 1.88648 21.2129 8.44097 17.1728 12.7499Z" fill="#231F20"/>
</g>
<path fill-rule="evenodd" clip-rule="evenodd" d="M16.61 12.362C12.6719 16.5783 6.6348 15.4246 6.6348 15.4246C6.6348 15.4246 5.55726 8.96149 9.49529 4.74468C13.4333 0.52786 19.3999 0.0797795 20.1835 0.918716C20.9433 1.73228 20.5485 8.14577 16.61 12.362Z" fill="white"/>
<g opacity="0.2">
<path d="M5.1004 18.4545C4.68693 18.8884 4.39099 19.2812 3.97752 18.8473C3.56405 18.4134 3.93834 18.1029 4.35181 17.669L9.59246 10.5979C10.0059 10.164 11.7996 9.77119 12.213 10.2051C12.6265 10.639 12.2522 12.5212 11.8388 12.9551L5.1004 18.4545Z" fill="#231F20"/>
</g>
<path fill-rule="evenodd" clip-rule="evenodd" d="M5.71244 16.9888C5.32759 17.4218 5.05213 17.8137 4.66729 17.3808C4.28244 16.9478 4.63082 16.6379 5.01567 16.205L9.89353 9.1491C10.2784 8.71614 11.9479 8.32421 12.3327 8.75717C12.7176 9.19012 12.3692 11.0683 11.9843 11.5012L5.71244 16.9888Z" fill="#F96E6F"/>
<g opacity="0.2">
<circle cx="15.0559" cy="7.64417" r="2.07835" transform="rotate(-45 15.0559 7.64417)" fill="#231F20"/>
</g>
<g opacity="0.2">
<circle cx="17.3632" cy="4.56517" r="1.14285" transform="rotate(-45 17.3632 4.56517)" fill="#231F20"/>
</g>
<circle cx="14.643" cy="6.58868" r="2.09934" transform="rotate(-45 14.643 6.58868)" fill="#838E9E"/>
<circle cx="17.5439" cy="3.55321" r="1.04967" transform="rotate(-45 17.5439 3.55321)" fill="#838E9E"/>
</svg>
