<svg width="22" height="19" viewBox="0 0 22 19" fill="none" xmlns="http://www.w3.org/2000/svg">
<g opacity="0.2">
<path d="M22 16.8462C22 18.0356 21.0149 19 19.8 19H2.2C0.98505 19 0 18.0356 0 16.8462V7.15385C0 5.96439 0.98505 5 2.2 5H19.8C21.0149 5 22 5.96439 22 7.15385V16.8462Z" fill="#231F20"/>
</g>
<path fill-rule="evenodd" clip-rule="evenodd" d="M13.8 2.14286V12.8571H7.2V2.14286H13.8ZM13.8 3.8147e-06H7.2C5.98505 3.8147e-06 5 0.959468 5 2.14286V12.8571C5 14.0405 5.98505 15 7.2 15H13.8C15.0149 15 16 14.0405 16 12.8571V2.14286C16 0.959468 15.0149 3.8147e-06 13.8 3.8147e-06Z" fill="#4B4B4B"/>
<path fill-rule="evenodd" clip-rule="evenodd" d="M0 8V15.6471C0 16.9465 0.98505 18 2.2 18H19.8C21.0149 18 22 16.9465 22 15.6471V8H0Z" fill="#F96E6F"/>
<path fill-rule="evenodd" clip-rule="evenodd" d="M13.5 8.54546V10.4545H8.5V8.54546H13.5ZM13.5 6H8.5C7.11937 6 6 7.13973 6 8.54546V10.4545C6 11.8603 7.11937 13 8.5 13H13.5C14.8806 13 16 11.8603 16 10.4545V8.54546C16 7.13973 14.8806 6 13.5 6Z" fill="white"/>
<g opacity="0.2">
<path d="M22 8.22223C22 6.995 21.0149 6 19.8 6H2.2C0.98505 6 0 6.995 0 8.22223V11H22V8.22223Z" fill="#231F20"/>
</g>
<path fill-rule="evenodd" clip-rule="evenodd" d="M22 6.22223C22 4.995 21.0149 4 19.8 4H2.2C0.98505 4 0 4.995 0 6.22223V9H22V6.22223Z" fill="#F96E6F"/>
</svg>
