<svg width="21" height="22" viewBox="0 0 21 22" fill="none" xmlns="http://www.w3.org/2000/svg">
<path opacity="0.2" d="M10 20.069C9.83958 20.069 9.68708 20.0069 9.57042 19.8943L0 10.2473L1.66667 9.3975L10 18.5541L19.4029 9.77398C19.4762 9.86831 19.3292 8.92413 19.4029 9.08815C19.5079 9.32271 19.8692 10.0574 20 10.2473L10.4292 19.8947C10.3129 20.0069 10.1604 20.069 10 20.069Z" fill="#231F20"/>
<path fill-rule="evenodd" clip-rule="evenodd" d="M10 20.069C9.83958 20.069 9.68708 20.0027 9.57042 19.8824L0 10.3075L1.7875 10.2957L10 18.4504L19.4029 9.06897C19.4762 9.16976 19.5821 9.42174 19.6558 9.59699C19.7613 9.84761 19.8692 10.1046 20 10.3075L10.4292 19.8828C10.3129 20.0027 10.1604 20.069 10 20.069Z" fill="#838E9E"/>
<g opacity="0.2">
<path d="M16.1515 9.29119C16.1227 9.08423 15.8546 8.94937 15.7273 8.88378C15.6335 8.8353 15.197 9.6986 15.0918 9.6986C14.8563 9.6986 14.8283 9.9186 14.7172 10.117L10.2121 17.7469L5.7071 10.117C5.59595 9.9186 5.78092 8.88378 5.54546 8.88378C5.43983 8.88378 5.21498 8.42789 5.12122 8.47637C4.99437 8.54197 4.72583 8.26941 4.69698 8.47637C4.6677 8.68415 3.33558 8.31708 3.42425 8.47637L9.34243 18.7903C9.93595 18.6742 10.549 18.6656 11.1633 18.6534L16.5758 9.29119C16.6644 9.13189 16.1808 9.49897 16.1515 9.29119Z" fill="#231F20"/>
</g>
<path fill-rule="evenodd" clip-rule="evenodd" d="M10.5 20.069C10.2668 20.069 10.0538 19.9325 9.9435 19.7128L5.02757 10.3875C4.93959 10.2114 5.08776 9.85294 5.11681 9.62329C5.14544 9.39453 5.23426 9.22207 5.36054 9.14957C5.45358 9.09598 5.55376 9.06897 5.65858 9.06897C5.89221 9.06897 5.92 9.31213 6.03029 9.53143L10.5 17.9652L14.9701 9.53188C15.0804 9.31213 15.1086 9.06942 15.3418 9.06942C15.4467 9.06942 15.5464 9.09643 15.6395 9.15002C15.7657 9.22252 15.8546 9.39499 15.8832 9.62374C15.9122 9.85294 16.0604 10.2114 15.9724 10.3875L11.0565 19.7128C10.9462 19.9325 10.7332 20.069 10.5 20.069Z" fill="#838E9E"/>
<g opacity="0.2">
<path d="M15.6094 11.069H19.3312L20.25 10.2356C19.8214 5.10272 15.4326 1.06897 10.125 1.06897C13.1541 1.06897 15.6094 5.54605 15.6094 11.069Z" fill="#231F20"/>
<path d="M10.125 1.06897C4.88278 1.06897 0.518484 5.19313 0 10.2356L0.918844 11.069H4.64062C4.64062 5.54605 7.09594 1.06897 10.125 1.06897Z" fill="#231F20"/>
<path d="M4.64062 11.069H15.6094C15.6094 5.54605 13.1541 1.06897 10.125 1.06897C7.09594 1.06897 4.64062 5.54605 4.64062 11.069Z" fill="#231F20"/>
</g>
<path fill-rule="evenodd" clip-rule="evenodd" d="M15.4167 10.069H20C20 4.54605 15.5229 0.0689659 10 0.0689659C12.9917 0.0689659 15.4167 4.54605 15.4167 10.069Z" fill="#F96E6F"/>
<path fill-rule="evenodd" clip-rule="evenodd" d="M10 0.0689659C4.47708 0.0689659 0 4.54605 0 10.069H4.58333C4.58333 4.54605 7.00833 0.0689659 10 0.0689659Z" fill="#F96E6F"/>
<path d="M4.58334 10.069H15.4167C15.4167 4.54605 12.9917 0.0689659 10 0.0689659C7.00834 0.0689659 4.58334 4.54605 4.58334 10.069Z" fill="white"/>
<circle cx="10" cy="19.069" r="2" fill="#717171"/>
</svg>
