<svg width="30" height="30" viewBox="0 0 30 30" fill="none" xmlns="http://www.w3.org/2000/svg">
<path fill-rule="evenodd" clip-rule="evenodd" d="M16.8546 9.06639C20.046 9.06639 22.1736 11.5223 22.2529 13.9587H11.3904C11.4962 11.8853 13.4453 9.06639 16.8546 9.06639ZM16.8546 23.167C13.6631 23.167 11.3902 20.4388 11.3111 17.6654H29.8119C30.0944 11.6927 27.9994 7.45676 22.6328 4.50201C23.417 3.6562 29.8402 1.43065 28.1963 7.47977L28.8275 8.37964C31.614 0.0560395 23.245 0.508657 17.7072 3.15019C9.7252 3.12428 5.20576 8.04923 3.96375 13.1035C6.12152 10.0652 8.91072 8.26459 10.7295 7.76394C0.319289 15.9747 -4.51802 34.0839 9.61963 28.3446L8.63839 27.7647C0.130564 30.3962 3.41774 22.959 5.0551 21.8865C7.01508 25.8181 11.1911 28.9603 16.2996 28.9603C22.8012 28.9603 27.6312 25.6676 29.5475 20.2058H22.0415C20.9579 22.0989 19.4515 23.167 16.8546 23.167Z" fill="#00BBF5"/>
</svg>
