<svg width="357" height="176" viewBox="0 0 357 176" fill="none" xmlns="http://www.w3.org/2000/svg">
<g clip-path="url(#clip0)">
<path d="M0 6C0 2.68629 2.68629 0 6 0H351C354.314 0 357 2.68629 357 6V175.081H0V6Z" fill="#7367F0" fill-opacity="0.1"/>
<mask id="mask0" style="mask-type:alpha" maskUnits="userSpaceOnUse" x="0" y="0" width="357" height="176">
<path d="M0 6C0 2.68629 2.68629 0 6 0H351C354.314 0 357 2.68629 357 6V175.081H0V6Z" fill="white"/>
</mask>
<g mask="url(#mask0)">
<path fill-rule="evenodd" clip-rule="evenodd" d="M215.577 123.956L207.666 185.896L211.814 185.842L219.725 124.536L215.577 123.956Z" fill="#D2D2D2"/>
<path fill-rule="evenodd" clip-rule="evenodd" d="M218.94 123.956L226.851 185.896L222.703 185.842L214.792 124.536L218.94 123.956Z" fill="#D2D2D2"/>
<path fill-rule="evenodd" clip-rule="evenodd" d="M243.058 123.956L250.969 185.896L246.821 185.842L238.91 124.536L243.058 123.956Z" fill="#D2D2D2"/>
<path fill-rule="evenodd" clip-rule="evenodd" d="M189.471 133.693C185.897 133.693 183 130.795 183 127.222C183 123.648 185.897 120.75 189.471 120.75H212.531C218.249 120.75 223.029 116.402 223.569 110.71L227.145 73.0403C227.685 67.348 232.465 63 238.183 63H247.758C254.22 63 259.312 68.5029 258.813 74.9452L255.051 123.462C254.603 129.236 249.787 133.693 243.996 133.693H189.471Z" fill="#D2D2D2"/>
<path fill-rule="evenodd" clip-rule="evenodd" d="M183.001 127.167C183.018 127.167 183.034 127.167 183.05 127.167H237.421C243.211 127.167 248.026 122.712 248.475 116.939L252.232 68.6198C252.367 66.8866 252.097 65.2213 251.504 63.7128C250.287 63.2526 248.966 63 247.582 63H238.084C232.367 63 227.587 67.3463 227.046 73.0373L223.475 110.549C222.933 116.24 218.154 120.586 212.437 120.586H189.454C185.89 120.586 183 123.476 183 127.041C183 127.083 183 127.125 183.001 127.167Z" fill="#B2B0B0"/>
<path fill-rule="evenodd" clip-rule="evenodd" d="M188.463 165.967C188.463 165.967 191.906 174.129 189.083 176.293C186.256 178.457 180.758 183.809 180.758 183.809L198.573 179.989L194.175 165.014L188.463 165.967Z" fill="url(#paint0_linear)"/>
<path fill-rule="evenodd" clip-rule="evenodd" d="M189.486 171.342C189.486 171.342 189.923 175.172 188.66 176.479C187.397 177.786 180.557 182.761 180.021 183.705C179.485 184.65 180.443 185.692 180.443 185.692C180.443 185.692 187.831 186.326 191.154 184.33C193.553 182.889 197.13 180.3 197.13 180.3L198.078 182.846L200.764 182.737C200.764 182.737 201.12 179.601 200.482 178.097C199.845 176.593 196.562 168.938 196.562 168.938C196.562 168.938 195.299 170.06 193.956 170.625C192.614 171.19 190.932 172.737 190.932 172.737L189.486 171.342Z" fill="#323740"/>
<path fill-rule="evenodd" clip-rule="evenodd" d="M218.265 105.451C212.275 105.715 178.94 112.994 172.884 114.23C166.827 115.467 161.707 122.159 166.325 129.908C171.512 138.606 184.896 163.309 188.146 168.878C189.754 171.634 197.868 170.089 195.962 165.463C192.409 156.839 190.759 135.174 181.701 127.275C181.701 127.275 212.164 132.509 225.323 126.513C234.886 122.155 232.723 104.812 218.265 105.451Z" fill="#42474F"/>
<path fill-rule="evenodd" clip-rule="evenodd" d="M176.484 67.2436C176.484 67.2436 176.551 62.4323 174.847 59.9178C173.142 57.4034 173.074 54.7325 171.784 54.8199C170.494 54.9074 171.771 61.1154 171.771 61.1154C171.771 61.1154 170.134 60.498 168.959 59.717C167.783 58.9361 164.217 55.086 163.383 55.7682C161.971 56.9307 164.246 63.4881 165.486 64.799C166.729 66.1104 173.523 70.4227 173.523 70.4227L190.162 87.2208L193.286 78.6873L176.484 67.2436Z" fill="#FFE0D1"/>
<path fill-rule="evenodd" clip-rule="evenodd" d="M213.29 65.6566C210.504 72.0365 205.403 83.7566 203.3 87.2532C200.664 91.6322 196.508 93.5614 191.642 90.3125C190.35 89.4499 186.415 86.1545 186.415 86.1545L191.177 75.8068L194.266 78.3238C194.266 78.3238 199.495 65.0909 203.701 57.4252C207.344 50.7931 217.531 55.9577 213.29 65.6566Z" fill="#FFB66F"/>
<path fill-rule="evenodd" clip-rule="evenodd" d="M194.212 78.3307C194.212 78.3307 192.808 83.0334 192.479 82.7611C192.151 82.4888 192.73 77.1016 192.73 77.1016L194.212 78.3307Z" fill="black" fill-opacity="0.159856"/>
<path fill-rule="evenodd" clip-rule="evenodd" d="M192.361 76.3795L188.378 89.5478L184.148 86.27L190.035 74.5961L192.361 76.3795Z" fill="#FFEDC2"/>
<path fill-rule="evenodd" clip-rule="evenodd" d="M218.384 21.1451C218.384 21.1451 220.483 17.7275 223.799 17.9761C227.114 18.2247 231.127 23.2159 230.903 28.7567C230.686 34.2968 231.919 35.1655 234.29 38.3639C240.663 46.9692 230.759 57.0835 230.759 57.0835L217.629 57.1175L217.186 32.9531L218.384 21.1451Z" fill="#42474F"/>
<path fill-rule="evenodd" clip-rule="evenodd" d="M223.587 23.13C232.52 29.1527 227.376 36.1779 226.476 37.8267C224.726 49.8127 228.274 50.4198 233.623 53.0848L231.752 56.3833L224.081 54.9717L217.681 23.7487L223.587 23.13Z" fill="black" fill-opacity="0.199355"/>
<path fill-rule="evenodd" clip-rule="evenodd" d="M227.775 52.2888C227.775 52.2888 223.212 51.3834 223.077 45.0645C222.941 38.7456 223.693 36.5886 223.693 36.5886L215.089 36.4353C215.089 36.4353 214.995 43.4777 214.994 46.0249C214.99 52.2184 210.162 52.9368 210.162 52.9368C210.162 52.9368 211.165 57.8361 218.962 58.269C225.049 58.6074 227.775 52.2888 227.775 52.2888Z" fill="#F9C7B0"/>
<path fill-rule="evenodd" clip-rule="evenodd" d="M223.396 22.9075C223.718 19.2602 217.638 18.3877 216.506 21.2068C216.506 21.2068 216.19 23.7175 218.168 24.6924C220.841 26.0056 223.396 22.9075 223.396 22.9075Z" fill="#FB9934"/>
<path fill-rule="evenodd" clip-rule="evenodd" d="M224.186 32.2982C227.91 31.3567 228.451 36.9131 224.549 37.7347C224.549 37.7347 223.922 45.9244 216.058 47.5961C209.671 48.9537 207.346 40.0579 206.907 38.278C206.438 36.3804 205.096 30.1041 205.096 30.1041L223.059 26.2773L224.186 32.2982Z" fill="#FFE0D1"/>
<path fill-rule="evenodd" clip-rule="evenodd" d="M222.927 36.063C222.252 36.0264 221.334 32.5593 221.334 32.5593C219.341 32.5909 218.914 32.2361 216.971 30.2021C210.839 32.9176 206.568 34.2567 206.991 39.0175C206.991 39.0175 199.892 29.3261 207.529 23.7217C214.248 18.797 222.755 20.2739 225.365 25.8257C227.211 29.7439 226.744 33.0088 226.744 33.0088C226.744 33.0088 225.445 31.6853 223.929 32.4071C222.413 33.1289 223.603 36.0997 222.927 36.063Z" fill="#42474F"/>
<path d="M216.473 42.0955C216.473 42.0955 214.933 44.0596 212.452 43.0544" stroke="#F77B7B" stroke-width="1.5" stroke-linecap="round"/>
<path d="M215.622 44.1717C215.096 44.5611 214.539 44.6997 213.982 44.5414" stroke="#F49494" stroke-linecap="round"/>
<path d="M224.424 35.2977C224.2 34.4355 224.322 33.687 225.192 33.357" stroke="#F77B7B" stroke-linecap="round"/>
<path fill-rule="evenodd" clip-rule="evenodd" d="M211.961 52.0926C211.856 52.0876 208.176 53.6814 207.753 54.2959C204.992 58.2989 199.925 72.3883 199.664 75.4447C199.37 78.9704 204.511 84.5866 204.574 89.6904C204.63 94.795 202.375 110.164 203.25 111.6C204.118 113.036 209.822 119.855 211.011 119.883C212.208 119.911 213.101 116.33 214.914 116.408C216.72 116.486 220.485 121.233 222.109 121.199C223.726 121.165 240.481 110.672 239.2 107.682C237.912 104.693 231.935 97.2631 232.544 93.1897C233.146 89.1169 237.954 74.082 239.69 68.965C241.418 63.8479 242.811 59.7717 239.585 57.5698C236.358 55.3679 225.86 51.3403 225.86 51.3403L216.461 56.538C216.461 56.538 212.506 52.1186 211.961 52.0926Z" fill="#FF9F43"/>
<path fill-rule="evenodd" clip-rule="evenodd" d="M215.303 56.3936C212.484 65.6611 208.615 74.7927 207.065 83.4827L211.572 81.0822L215.729 84.1962C215.436 75.1615 216.97 65.6751 217.676 56.3936H215.303Z" fill="#FFF6E1"/>
<path fill-rule="evenodd" clip-rule="evenodd" d="M231.769 63.5095L231.876 64.2589C233.139 73.5656 231.644 84.8587 229.054 86.5816C226.41 88.3404 216.119 86.6145 216.119 88.0073C216.119 89.4002 230.34 102.165 228.006 108.267C226.722 111.622 227.152 114.606 229.295 117.219L229.918 116.805C234.775 113.548 239.932 109.39 239.2 107.682C237.912 104.693 231.935 97.2631 232.544 93.1897C233.122 89.2798 237.576 75.2673 239.467 69.6253L240.07 67.8365C240.77 65.7391 241.352 63.8391 241.493 62.1998L241.059 61.9213C234.113 57.5197 231.016 58.0493 231.769 63.5095Z" fill="black" fill-opacity="0.159856"/>
<path fill-rule="evenodd" clip-rule="evenodd" d="M227.595 51.9966L225.86 51.3403L216.255 56.2691C216.255 56.2691 218.061 60.8126 221.259 58.5501C224.001 56.6153 222.844 54.9127 224.993 54.0345C227.135 53.1562 227.595 51.9966 227.595 51.9966Z" fill="#FFF6E1"/>
<path fill-rule="evenodd" clip-rule="evenodd" d="M216.255 56.2691C215.558 57.7979 214.143 58.6913 213.411 58.4135C212.203 57.9548 212.721 56.1272 212.245 55.2039C211.904 54.5489 211.684 54.45 211.386 53.835C211.109 53.2709 211.097 52.5938 211.168 52.4069L212.113 51.9824C212.113 51.9824 213.412 53.193 214.016 53.835C214.769 54.6351 216.255 56.2691 216.255 56.2691Z" fill="#FFF6E1"/>
<path fill-rule="evenodd" clip-rule="evenodd" d="M226.83 80.8157C226.83 80.8157 221.175 75.8741 219.443 75.3007C217.712 74.7272 207.573 74.0383 207.637 75.3342C207.71 76.7224 213.155 76.6425 213.72 77.3256C214.284 78.0082 214.412 82.6762 216.545 83.2003C218.674 83.7244 225.056 84.6279 225.056 84.6279L240.321 93.7174L240.974 85.4123L226.83 80.8157Z" fill="#FFE0D1"/>
<path fill-rule="evenodd" clip-rule="evenodd" d="M241.875 59.893C247.833 68.1949 252.92 80.8407 254.873 85.771C256.825 90.7012 254.855 98.1376 246.269 96.6777C244.819 96.4313 241.567 95.4426 241.567 95.4426L239.515 84.024L242.162 85.1211C242.162 85.1211 233.628 70.1874 231.545 66.1841C228.064 59.4983 236.627 52.5782 241.875 59.893Z" fill="#FFB66F"/>
<path fill-rule="evenodd" clip-rule="evenodd" d="M242.162 85.1211C242.162 85.1211 246.497 87.2113 245.952 86.2919C245.406 85.3724 240.527 82.2169 240.527 82.2169L242.162 85.1211Z" fill="black" fill-opacity="0.159856"/>
<path fill-rule="evenodd" clip-rule="evenodd" d="M241.749 84.5934L243.166 96.9407L237.561 95.1816L238.407 83.0813L241.749 84.5934Z" fill="#FFEDC2"/>
<path fill-rule="evenodd" clip-rule="evenodd" d="M167.659 166.243C167.659 166.243 167.763 174.324 161.018 177.346C154.277 180.367 149.475 180.185 150.086 182.521C150.697 184.856 168.243 184.762 169.881 182.935C171.278 181.382 174.315 166.911 175.151 168.018L167.659 166.243Z" fill="url(#paint1_linear)"/>
<path fill-rule="evenodd" clip-rule="evenodd" d="M173.95 172.613C173.95 172.613 172.533 176.045 172.408 178.125C172.283 180.206 169.056 186.12 169.056 186.12L166.507 186.436L166.274 184.291C166.274 184.291 162.584 185.844 160.269 186.092C157.955 186.34 150.016 185.409 148.437 184.113C146.858 182.818 147.656 180.994 152.213 179.883C156.769 178.771 163.849 175.524 165.196 173.173C166.544 170.822 166.552 170.883 166.552 170.883L166.525 174.801C166.525 174.801 167.691 172.739 169.068 172.463C170.444 172.188 173.95 172.613 173.95 172.613Z" fill="#323740"/>
<path fill-rule="evenodd" clip-rule="evenodd" d="M236.375 102.952C236.375 102.952 247.708 119.811 234.159 127.342C222.587 133.773 186.897 126.24 186.897 126.24C186.897 126.24 187.531 131.272 186.897 135.76C185.244 147.481 177.381 167.009 175.717 169.463C173.416 172.856 166.408 170.297 166.276 167.472C166.144 164.646 171.559 128.561 172.383 121.68C173.202 114.798 175.789 113.798 183.343 111.917C185.078 111.485 205.602 106.45 207.482 106.596C223.637 107.857 236.375 102.952 236.375 102.952Z" fill="#42474F"/>
<path opacity="0.439941" fill-rule="evenodd" clip-rule="evenodd" d="M228.143 125.468C216.426 126.764 185.409 124.092 184.163 125.306C182.973 126.465 183.172 146.631 180.504 158.302C183.132 151.23 185.977 142.285 186.897 135.76C187.531 131.272 186.897 126.24 186.897 126.24L188.109 126.479C194.433 127.691 223.749 132.898 234.159 127.342C240.264 124.083 242.626 119.037 241.245 112.204C239.58 120.264 235.212 124.686 228.143 125.468Z" fill="white" fill-opacity="0.192499"/>
<ellipse rx="1.96789" ry="3.56656" transform="matrix(-0.97437 0.224951 0.224951 0.97437 167.386 122.603)" fill="white" fill-opacity="0.192499"/>
<ellipse rx="2.62301" ry="3.89206" transform="matrix(-0.961262 -0.275637 -0.275637 0.961262 176.576 120.335)" fill="white" fill-opacity="0.192499"/>
<path d="M147.861 58.3995C147.03 56.8586 148.026 54.967 149.767 54.7802L166.251 53.0113C167.228 52.9064 168.174 53.3921 168.658 54.2471L179.565 73.509C180.406 74.9933 179.52 76.862 177.839 77.1513L161.405 79.9807C160.361 80.1603 159.32 79.6535 158.818 78.7217L147.861 58.3995Z" fill="#7596FF"/>
<path fill-rule="evenodd" clip-rule="evenodd" d="M148.632 58.2528C147.838 56.7585 148.751 54.9264 150.423 54.6623L166.491 52.123C167.53 51.9589 168.558 52.4717 169.051 53.4L179.526 73.1004C180.321 74.5947 179.407 76.4268 177.735 76.691L161.667 79.2302C160.629 79.3943 159.601 78.8815 159.107 77.9532L148.632 58.2528Z" fill="url(#paint2_linear)"/>
<path d="M148.737 56.297L167.75 53.0572L179.427 75.0176L160.505 77.8983L148.737 56.297Z" fill="white"/>
<path d="M153.764 53.8789C153.474 53.3864 153.779 52.7575 154.345 52.6803L160.961 51.7792C161.6 51.6922 162.229 51.9972 162.556 52.5529L163.473 54.1098C163.763 54.6023 163.457 55.2312 162.891 55.3083L156.275 56.2094C155.636 56.2964 155.008 55.9914 154.68 55.4358L153.764 53.8789Z" fill="#7367F0"/>
<path fill-rule="evenodd" clip-rule="evenodd" d="M163.572 59.4742C163.825 59.3396 164.139 59.4353 164.273 59.6879C164.398 59.9226 164.324 60.2101 164.11 60.3577L164.058 60.3892L155.596 61.8147C155.343 61.9494 155.029 61.8537 154.894 61.601C154.77 61.3664 154.844 61.0789 155.058 60.9312L155.11 60.8997L163.572 59.4742Z" fill="#A7C3FF"/>
<path fill-rule="evenodd" clip-rule="evenodd" d="M166.004 64.0493C166.257 63.9147 166.572 64.0103 166.706 64.263C166.831 64.4976 166.756 64.7851 166.542 64.9328L166.491 64.9643L158.029 66.3898C157.776 66.5245 157.461 66.4288 157.327 66.1761C157.202 65.9415 157.276 65.654 157.49 65.5063L157.542 65.4748L166.004 64.0493Z" fill="#A7C3FF"/>
<path fill-rule="evenodd" clip-rule="evenodd" d="M168.437 68.6244C168.69 68.4897 169.004 68.5854 169.139 68.8381C169.263 69.0727 169.189 69.3602 168.975 69.5079L168.923 69.5394L160.461 70.9649C160.208 71.0996 159.894 71.0039 159.76 70.7512C159.635 70.5166 159.709 70.2291 159.923 70.0814L159.975 70.0499L168.437 68.6244Z" fill="#A7C3FF"/>
<path fill-rule="evenodd" clip-rule="evenodd" d="M147.011 106.197H160.113V187.574H147.011V106.197Z" fill="#D2D2D2"/>
<path fill-rule="evenodd" clip-rule="evenodd" d="M147.011 103H154.872V187.574H147.011V103Z" fill="#EBEBEB"/>
<path fill-rule="evenodd" clip-rule="evenodd" d="M87.4026 106.197H152.257V130.605H100.504V187.574H87.4026V106.197Z" fill="#D2D2D2"/>
<path fill-rule="evenodd" clip-rule="evenodd" d="M87.4026 106.197H95.2637V187.574H87.4026V106.197Z" fill="#EBEBEB"/>
<path fill-rule="evenodd" clip-rule="evenodd" d="M249.588 106.197H262.69V187.574H249.588V106.197Z" fill="#C5C5C5"/>
<path fill-rule="evenodd" clip-rule="evenodd" d="M189.98 106.197H254.834V136.41H203.082V187.574H189.98V106.197Z" fill="#D2D2D2"/>
<path fill-rule="evenodd" clip-rule="evenodd" d="M97.8789 103L197.765 103V136.35H97.8789V103Z" fill="#EBEBEB"/>
<path fill-rule="evenodd" clip-rule="evenodd" d="M188.015 106.197H195.876V136.35H188.015V106.197Z" fill="#C3C3C3"/>
<path fill-rule="evenodd" clip-rule="evenodd" d="M189.98 106.197H197.841V187.574H189.98V106.197Z" fill="#EBEBEB"/>
<path fill-rule="evenodd" clip-rule="evenodd" d="M192.631 107.796C192.631 105.147 194.778 103 197.427 103L265.106 103C267.754 103 269.901 105.147 269.901 107.796C269.901 110.444 267.754 112.591 265.106 112.591H197.427C194.778 112.591 192.631 110.444 192.631 107.796Z" fill="#C5C5C5"/>
<path fill-rule="evenodd" clip-rule="evenodd" d="M90.0939 104.918H189.98V114.509H90.0939V104.918Z" fill="#D2D2D2"/>
<path fill-rule="evenodd" clip-rule="evenodd" d="M80.3984 107.796C80.3984 105.147 82.5455 103 85.194 103H199.596C202.245 103 204.392 105.147 204.392 107.796C204.392 110.444 202.245 112.591 199.596 112.591H85.194C82.5455 112.591 80.3984 110.444 80.3984 107.796Z" fill="#EBEBEB"/>
<path fill-rule="evenodd" clip-rule="evenodd" d="M215.584 93.1924H218.856C219.488 93.1924 220 93.682 220 94.2861V95.7843C220 97.2157 218.786 98.3762 217.288 98.3762H215.584C215.313 98.3762 215.093 98.1663 215.093 97.9074C215.093 97.6485 215.313 97.4387 215.584 97.4387H217.288C218.244 97.4387 219.019 96.698 219.019 95.7843V94.2861C219.019 94.1998 218.946 94.1299 218.856 94.1299H215.584C215.313 94.1299 215.093 93.92 215.093 93.6611C215.093 93.4022 215.313 93.1924 215.584 93.1924Z" fill="#8C81FF"/>
<path fill-rule="evenodd" clip-rule="evenodd" d="M204.718 92C203.996 92 203.41 92.5596 203.41 93.25V96.375C203.41 98.625 205.187 100.478 207.473 100.723L207.473 101.375H213.197L213.198 100.708C215.426 100.414 217.141 98.5858 217.141 96.375V93.25C217.141 92.5596 216.556 92 215.833 92H204.718Z" fill="#7367F0"/>
<path fill-rule="evenodd" clip-rule="evenodd" d="M217.385 101.072C217.385 100.894 217.24 100.75 217.062 100.75H203.976C203.798 100.75 203.654 100.894 203.654 101.072C203.654 101.243 203.786 101.383 203.956 101.394L208.784 101.701H212.216L217.083 101.394C217.252 101.383 217.385 101.242 217.385 101.072Z" fill="#8C81FF"/>
<path fill-rule="evenodd" clip-rule="evenodd" d="M128.384 100.832C128.384 100.34 128.784 99.9402 129.276 99.9402H192.075C192.567 99.9402 192.967 100.34 192.967 100.832C192.967 101.325 192.567 101.725 192.075 101.725H129.276C128.784 101.725 128.384 101.325 128.384 100.832Z" fill="#8C81FF"/>
<path fill-rule="evenodd" clip-rule="evenodd" d="M170.927 100.832C170.927 100.34 171.327 99.9402 171.819 99.9402H192.075C192.567 99.9402 192.967 100.34 192.967 100.832C192.967 101.325 192.567 101.725 192.075 101.725H171.819C171.327 101.725 170.927 101.325 170.927 100.832Z" fill="#7367F0"/>
<path fill-rule="evenodd" clip-rule="evenodd" d="M125.523 77.06C125.246 74.907 126.923 73 129.094 73L165.692 73C167.503 73 169.031 74.3444 169.263 76.14L171.816 95.9572C172.093 98.1102 170.416 100.017 168.245 100.017H131.647C129.836 100.017 128.308 98.6727 128.076 96.8772L125.523 77.06Z" fill="#7367F0"/>
<path fill-rule="evenodd" clip-rule="evenodd" d="M125.523 77.06C125.246 74.907 126.923 73 129.094 73L164.3 73C166.11 73 167.639 74.3444 167.87 76.14L170.424 95.9572C170.701 98.1102 169.024 100.017 166.853 100.017H131.647C129.836 100.017 128.308 98.6727 128.076 96.8772L125.523 77.06Z" fill="url(#paint3_linear)"/>
<ellipse rx="2.76483" ry="3.0121" transform="matrix(0.798636 -0.601814 0.601816 0.798635 147.258 86.9385)" fill="white"/>
<path fill-rule="evenodd" clip-rule="evenodd" d="M262.987 155.156C266.966 146.313 270.581 137.231 273.89 127.948C266.268 135.006 260.34 143.605 261.184 155.156H262.987Z" fill="#57E295"/>
<path fill-rule="evenodd" clip-rule="evenodd" d="M260.866 156.079C259.925 141.001 260.324 126.997 268.217 119C267.128 135.556 265.091 147.219 262.512 156.079H260.866Z" fill="#28C76F"/>
<path fill-rule="evenodd" clip-rule="evenodd" d="M260.504 154.509C256.094 143.972 251.663 140.952 248 130.135C259.988 136.242 260.739 141.285 263.092 154.509H260.504Z" fill="#57E295"/>
<path fill-rule="evenodd" clip-rule="evenodd" d="M258.131 154.509L250.22 143.972C254.04 145.042 260.427 146.775 260.427 154.509H258.131Z" fill="#28C76F"/>
<path fill-rule="evenodd" clip-rule="evenodd" d="M265.53 154.509H268.169C269.846 151.069 272.21 148.701 277.927 151.571C274.179 145.963 266.489 144.266 265.53 154.509Z" fill="#57E295"/>
<path fill-rule="evenodd" clip-rule="evenodd" d="M263.102 154.509H265.297C269.325 148.85 271.057 146.385 275.225 141.552C269.734 143.599 264.097 146.385 263.102 154.509Z" fill="#28C76F"/>
<path fill-rule="evenodd" clip-rule="evenodd" d="M257.731 153.269H268.645C269.06 153.269 269.397 153.6 269.397 154.008V156.04C272.157 159.458 273.537 162.876 273.537 166.294C273.537 169.607 272.359 172.92 270.002 176.233C269.861 176.431 269.631 176.548 269.385 176.548H256.991C256.745 176.548 256.515 176.431 256.374 176.233C254.017 172.92 252.839 169.607 252.839 166.294C252.839 162.941 254.167 159.587 256.824 156.234L256.978 156.04V154.008C256.978 153.6 257.315 153.269 257.731 153.269Z" fill="#7367F0"/>
<mask id="mask1" style="mask-type:alpha" maskUnits="userSpaceOnUse" x="252" y="153" width="22" height="24">
<path fill-rule="evenodd" clip-rule="evenodd" d="M257.731 153.269H268.645C269.06 153.269 269.397 153.6 269.397 154.008V156.04C272.157 159.458 273.537 162.876 273.537 166.294C273.537 169.607 272.359 172.92 270.002 176.233C269.861 176.431 269.631 176.548 269.385 176.548H256.991C256.745 176.548 256.515 176.431 256.374 176.233C254.017 172.92 252.839 169.607 252.839 166.294C252.839 162.941 254.167 159.587 256.824 156.234L256.978 156.04V154.008C256.978 153.6 257.315 153.269 257.731 153.269Z" fill="white"/>
</mask>
<g mask="url(#mask1)">
<path fill-rule="evenodd" clip-rule="evenodd" d="M250.204 152.629H259.989C255.305 163.336 264.545 169.676 259.989 180.343H250.204V152.629Z" fill="#857AF9"/>
</g>
</g>
</g>
<defs>
<linearGradient id="paint0_linear" x1="201.655" y1="160.439" x2="200.132" y2="182.838" gradientUnits="userSpaceOnUse">
<stop stop-color="#FDC6C6"/>
<stop offset="1" stop-color="#FAB2B2"/>
</linearGradient>
<linearGradient id="paint1_linear" x1="179.497" y1="161.849" x2="178.498" y2="183.413" gradientUnits="userSpaceOnUse">
<stop stop-color="#FDC6C6"/>
<stop offset="1" stop-color="#FAB2B2"/>
</linearGradient>
<linearGradient id="paint2_linear" x1="136.988" y1="39.7644" x2="161.805" y2="86.437" gradientUnits="userSpaceOnUse">
<stop stop-color="#7367F0"/>
<stop offset="1" stop-color="#8CA5FF"/>
</linearGradient>
<linearGradient id="paint3_linear" x1="121.378" y1="58.652" x2="121.378" y2="100.017" gradientUnits="userSpaceOnUse">
<stop stop-color="#7367F0"/>
<stop offset="1" stop-color="#8CA5FF"/>
</linearGradient>
<clipPath id="clip0">
<rect width="357" height="175.081" fill="white"/>
</clipPath>
</defs>
</svg>
