<svg width="25" height="24" viewBox="0 0 25 24" fill="none" xmlns="http://www.w3.org/2000/svg">
<path fill-rule="evenodd" clip-rule="evenodd" d="M7.69862 7C7.69862 4.2 9.89862 2 12.6986 2C15.4986 2 17.6986 4.2 17.6986 7C17.6986 9.8 15.4986 12 12.6986 12C9.89862 12 7.69862 9.8 7.69862 7ZM21.6986 19V21C21.6986 21.6 21.2986 22 20.6986 22C20.0986 22 19.6986 21.6 19.6986 21V19C19.6986 17.3 18.3986 16 16.6986 16H8.69862C6.99862 16 5.69862 17.3 5.69862 19V21C5.69862 21.6 5.29862 22 4.69862 22C4.09862 22 3.69862 21.6 3.69862 21V19C3.69862 16.2 5.89862 14 8.69862 14H16.6986C19.4986 14 21.6986 16.2 21.6986 19ZM12.6986 10C10.9986 10 9.69862 8.7 9.69862 7C9.69862 5.3 10.9986 4 12.6986 4C14.3986 4 15.6986 5.3 15.6986 7C15.6986 8.7 14.3986 10 12.6986 10Z" fill="black"/>
<mask id="mask0" style="mask-type:alpha" maskUnits="userSpaceOnUse" x="3" y="2" width="19" height="20">
<path fill-rule="evenodd" clip-rule="evenodd" d="M7.69862 7C7.69862 4.2 9.89862 2 12.6986 2C15.4986 2 17.6986 4.2 17.6986 7C17.6986 9.8 15.4986 12 12.6986 12C9.89862 12 7.69862 9.8 7.69862 7ZM21.6986 19V21C21.6986 21.6 21.2986 22 20.6986 22C20.0986 22 19.6986 21.6 19.6986 21V19C19.6986 17.3 18.3986 16 16.6986 16H8.69862C6.99862 16 5.69862 17.3 5.69862 19V21C5.69862 21.6 5.29862 22 4.69862 22C4.09862 22 3.69862 21.6 3.69862 21V19C3.69862 16.2 5.89862 14 8.69862 14H16.6986C19.4986 14 21.6986 16.2 21.6986 19ZM12.6986 10C10.9986 10 9.69862 8.7 9.69862 7C9.69862 5.3 10.9986 4 12.6986 4C14.3986 4 15.6986 5.3 15.6986 7C15.6986 8.7 14.3986 10 12.6986 10Z" fill="white"/>
</mask>
<g mask="url(#mask0)">
<rect x="0.698624" width="24" height="24" fill="#00CFE8"/>
</g>
</svg>
