<svg width="14" height="18" viewBox="0 0 14 18" fill="none" xmlns="http://www.w3.org/2000/svg">
<path fill-rule="evenodd" clip-rule="evenodd" d="M13.6 5.5875C13.6187 5.625 13.6375 5.6625 13.675 5.7C13.75 5.775 13.75 5.925 13.75 6V15C13.75 16.275 12.775 17.25 11.5 17.25H2.5C1.225 17.25 0.25 16.275 0.25 15V3C0.25 1.725 1.225 0.75 2.5 0.75H8.5C8.575 0.75 8.725 0.75 8.8 0.825C8.875 0.825 8.95 0.9 9.025 0.975L13.525 5.475C13.5625 5.5125 13.5813 5.55 13.6 5.5875ZM11.2 5.25L9.25 3.3V5.25H11.2ZM11.5 15.75H2.5C2.05 15.75 1.75 15.45 1.75 15V3C1.75 2.55 2.05 2.25 2.5 2.25H7.75V6C7.75 6.45 8.05 6.75 8.5 6.75H12.25V15C12.25 15.45 11.95 15.75 11.5 15.75ZM10 10.5C10.45 10.5 10.75 10.2 10.75 9.75C10.75 9.3 10.45 9 10 9H4C3.55 9 3.25 9.3 3.25 9.75C3.25 10.2 3.55 10.5 4 10.5H10ZM10.75 12.75C10.75 13.2 10.45 13.5 10 13.5H4C3.55 13.5 3.25 13.2 3.25 12.75C3.25 12.3 3.55 12 4 12H10C10.45 12 10.75 12.3 10.75 12.75ZM4 6C3.55 6 3.25 6.3 3.25 6.75C3.25 7.2 3.55 7.5 4 7.5H5.5C5.95 7.5 6.25 7.2 6.25 6.75C6.25 6.3 5.95 6 5.5 6H4Z" fill="black"/>
</svg>
