<svg width="20" height="20" viewBox="0 0 20 20" fill="none" xmlns="http://www.w3.org/2000/svg">
<path fill-rule="evenodd" clip-rule="evenodd" d="M1.66666 8.33333C1.66666 3.75 5.41666 0 9.99999 0C14.5833 0 18.3333 3.75 18.3333 8.33333C18.3333 14.5 10.75 19.6667 10.5 19.8333C10.3333 19.9167 10.1667 20 9.99999 20C9.83332 20 9.66666 19.9167 9.49999 19.8333C9.24999 19.6667 1.66666 14.5 1.66666 8.33333ZM3.33332 8.33333C3.33332 12.8333 8.41666 17 9.99999 18.1667C11.5833 17 16.6667 12.8333 16.6667 8.33333C16.6667 4.66667 13.6667 1.66667 9.99999 1.66667C6.33332 1.66667 3.33332 4.66667 3.33332 8.33333ZM9.99999 5C8.16666 5 6.66666 6.5 6.66666 8.33333C6.66666 10.1667 8.16666 11.6667 9.99999 11.6667C11.8333 11.6667 13.3333 10.1667 13.3333 8.33333C13.3333 6.5 11.8333 5 9.99999 5ZM8.33332 8.33333C8.33332 9.25 9.08332 10 9.99999 10C10.9167 10 11.6667 9.25 11.6667 8.33333C11.6667 7.41667 10.9167 6.66667 9.99999 6.66667C9.08332 6.66667 8.33332 7.41667 8.33332 8.33333Z" fill="black"/>
<mask id="mask0" style="mask-type:alpha" maskUnits="userSpaceOnUse" x="1" y="0" width="18" height="20">
<path fill-rule="evenodd" clip-rule="evenodd" d="M1.66666 8.33333C1.66666 3.75 5.41666 0 9.99999 0C14.5833 0 18.3333 3.75 18.3333 8.33333C18.3333 14.5 10.75 19.6667 10.5 19.8333C10.3333 19.9167 10.1667 20 9.99999 20C9.83332 20 9.66666 19.9167 9.49999 19.8333C9.24999 19.6667 1.66666 14.5 1.66666 8.33333ZM3.33332 8.33333C3.33332 12.8333 8.41666 17 9.99999 18.1667C11.5833 17 16.6667 12.8333 16.6667 8.33333C16.6667 4.66667 13.6667 1.66667 9.99999 1.66667C6.33332 1.66667 3.33332 4.66667 3.33332 8.33333ZM9.99999 5C8.16666 5 6.66666 6.5 6.66666 8.33333C6.66666 10.1667 8.16666 11.6667 9.99999 11.6667C11.8333 11.6667 13.3333 10.1667 13.3333 8.33333C13.3333 6.5 11.8333 5 9.99999 5ZM8.33332 8.33333C8.33332 9.25 9.08332 10 9.99999 10C10.9167 10 11.6667 9.25 11.6667 8.33333C11.6667 7.41667 10.9167 6.66667 9.99999 6.66667C9.08332 6.66667 8.33332 7.41667 8.33332 8.33333Z" fill="white"/>
</mask>
<g mask="url(#mask0)">
<rect width="20" height="20" fill="#7367F0"/>
</g>
</svg>
