<svg width="19" height="18" viewBox="0 0 19 18" fill="none" xmlns="http://www.w3.org/2000/svg">
<path fill-rule="evenodd" clip-rule="evenodd" d="M9.73133 5.25C10.581 5.25 11.2761 4.575 11.2761 3.75C11.2761 2.925 10.581 2.25 9.73133 2.25C8.8817 2.25 8.18655 2.925 8.18655 3.75C8.18655 4.575 8.8817 5.25 9.73133 5.25ZM11.2761 9C11.2761 9.825 10.581 10.5 9.73133 10.5C8.8817 10.5 8.18655 9.825 8.18655 9C8.18655 8.175 8.8817 7.5 9.73133 7.5C10.581 7.5 11.2761 8.175 11.2761 9ZM8.18655 14.25C8.18655 13.425 8.8817 12.75 9.73133 12.75C10.581 12.75 11.2761 13.425 11.2761 14.25C11.2761 15.075 10.581 15.75 9.73133 15.75C8.8817 15.75 8.18655 15.075 8.18655 14.25Z" fill="black"/>
<mask id="mask0" style="mask-type:alpha" maskUnits="userSpaceOnUse" x="8" y="2" width="4" height="14">
<path fill-rule="evenodd" clip-rule="evenodd" d="M9.73133 5.25C10.581 5.25 11.2761 4.575 11.2761 3.75C11.2761 2.925 10.581 2.25 9.73133 2.25C8.8817 2.25 8.18655 2.925 8.18655 3.75C8.18655 4.575 8.8817 5.25 9.73133 5.25ZM11.2761 9C11.2761 9.825 10.581 10.5 9.73133 10.5C8.8817 10.5 8.18655 9.825 8.18655 9C8.18655 8.175 8.8817 7.5 9.73133 7.5C10.581 7.5 11.2761 8.175 11.2761 9ZM8.18655 14.25C8.18655 13.425 8.8817 12.75 9.73133 12.75C10.581 12.75 11.2761 13.425 11.2761 14.25C11.2761 15.075 10.581 15.75 9.73133 15.75C8.8817 15.75 8.18655 15.075 8.18655 14.25Z" fill="white"/>
</mask>
<g mask="url(#mask0)">
<rect x="0.462677" width="18.5373" height="18" fill="#6E6B7B"/>
</g>
</svg>
