<svg width="28" height="28" viewBox="0 0 28 28" fill="none" xmlns="http://www.w3.org/2000/svg">
<path fill-rule="evenodd" clip-rule="evenodd" d="M19.1667 22.1666C19.1667 22.6666 18.8333 23 18.3333 23H1.66668C1.16668 23 0.833344 22.6666 0.833344 22.1666C0.833344 21.6666 1.16668 21.3333 1.66668 21.3333C2.58334 21.3333 3.33334 20.5833 3.33334 19.6666V15.5C3.33334 11.8333 6.33334 8.83331 10 8.83331C13.6667 8.83331 16.6667 11.8333 16.6667 15.5V19.6666C16.6667 20.5833 17.4167 21.3333 18.3333 21.3333C18.8333 21.3333 19.1667 21.6666 19.1667 22.1666ZM12.1667 25.9166C11.6667 26.75 10.8333 27.1666 10 27.1666C9.58334 27.1666 9.16668 27.0833 8.75001 26.8333C8.33335 26.5833 8.08335 26.3333 7.83335 25.9166C7.58335 25.5 7.75001 25 8.16668 24.75C8.58335 24.5 9.08335 24.6666 9.33335 25.0833C9.35857 25.1085 9.3838 25.1414 9.41134 25.1773L9.41135 25.1773C9.47478 25.2599 9.55047 25.3585 9.66668 25.4166C10.0833 25.6666 10.5833 25.5 10.8333 25.0833C11.0833 24.6666 11.5833 24.5833 12 24.75C12.4167 24.9166 12.4167 25.5 12.1667 25.9166ZM15 19.6666C15 20.25 15.1667 20.8333 15.4167 21.3333H4.58334C4.83334 20.8333 5.00001 20.25 5.00001 19.6666V15.5C5.00001 12.75 7.25001 10.5 10 10.5C12.75 10.5 15 12.75 15 15.5V19.6666Z" fill="black"/>
<mask id="mask0" style="mask-type:alpha" maskUnits="userSpaceOnUse" x="0" y="8" width="20" height="20">
<path fill-rule="evenodd" clip-rule="evenodd" d="M19.1667 22.1666C19.1667 22.6666 18.8333 23 18.3333 23H1.66668C1.16668 23 0.833344 22.6666 0.833344 22.1666C0.833344 21.6666 1.16668 21.3333 1.66668 21.3333C2.58334 21.3333 3.33334 20.5833 3.33334 19.6666V15.5C3.33334 11.8333 6.33334 8.83331 10 8.83331C13.6667 8.83331 16.6667 11.8333 16.6667 15.5V19.6666C16.6667 20.5833 17.4167 21.3333 18.3333 21.3333C18.8333 21.3333 19.1667 21.6666 19.1667 22.1666ZM12.1667 25.9166C11.6667 26.75 10.8333 27.1666 10 27.1666C9.58334 27.1666 9.16668 27.0833 8.75001 26.8333C8.33335 26.5833 8.08335 26.3333 7.83335 25.9166C7.58335 25.5 7.75001 25 8.16668 24.75C8.58335 24.5 9.08335 24.6666 9.33335 25.0833C9.35857 25.1085 9.3838 25.1414 9.41134 25.1773L9.41135 25.1773C9.47478 25.2599 9.55047 25.3585 9.66668 25.4166C10.0833 25.6666 10.5833 25.5 10.8333 25.0833C11.0833 24.6666 11.5833 24.5833 12 24.75C12.4167 24.9166 12.4167 25.5 12.1667 25.9166ZM15 19.6666C15 20.25 15.1667 20.8333 15.4167 21.3333H4.58334C4.83334 20.8333 5.00001 20.25 5.00001 19.6666V15.5C5.00001 12.75 7.25001 10.5 10 10.5C12.75 10.5 15 12.75 15 15.5V19.6666Z" fill="white"/>
</mask>
<g mask="url(#mask0)">
<rect y="8" width="20" height="20" fill="#6E6B7B"/>
</g>
<circle cx="19" cy="9" r="9" fill="#EA5455"/>
<path d="M22.4437 11.092H20.9557V13H19.4437V11.092H14.8357V10.012L18.9757 4.6H20.6437L16.7437 9.772H19.4917V8.08H20.9557V9.772H22.4437V11.092Z" fill="white"/>
</svg>
