<svg width="29" height="29" viewBox="0 0 29 29" fill="none" xmlns="http://www.w3.org/2000/svg">
<path fill-rule="evenodd" clip-rule="evenodd" d="M0.820221 14.6861C0.820221 6.95408 7.08821 0.686096 14.8202 0.686096C22.5522 0.686096 28.8202 6.95408 28.8202 14.6861C28.8202 22.418 22.5522 28.6861 14.8202 28.6861C7.08821 28.6861 0.820221 22.418 0.820221 14.6861ZM7.82022 14.6861C7.82022 20.1629 11.2154 24.6028 15.4036 24.6028C19.5917 24.6028 22.9869 20.1629 22.9869 14.6861C22.9869 9.20923 19.5917 4.76943 15.4036 4.76943C11.2154 4.76943 7.82022 9.20923 7.82022 14.6861Z" fill="#EE3124"/>
<path fill-rule="evenodd" clip-rule="evenodd" d="M0.820221 14.6861C0.820221 6.95408 7.08821 0.686096 14.8202 0.686096C22.5522 0.686096 28.8202 6.95408 28.8202 14.6861C28.8202 22.418 22.5522 28.6861 14.8202 28.6861C7.08821 28.6861 0.820221 22.418 0.820221 14.6861ZM7.82022 14.6861C7.82022 20.1629 11.2154 24.6028 15.4036 24.6028C19.5917 24.6028 22.9869 20.1629 22.9869 14.6861C22.9869 9.20923 19.5917 4.76943 15.4036 4.76943C11.2154 4.76943 7.82022 9.20923 7.82022 14.6861Z" fill="url(#paint0_linear)"/>
<path d="M19.6882 26.3528C13.1754 26.3528 7.8957 21.1294 7.8957 14.6861C7.8957 8.24273 13.1754 3.01943 19.6882 3.01943C21.1442 3.01943 22.5326 3.29294 23.8202 3.77039C21.3962 1.8445 18.3222 0.686096 14.9712 0.686096C7.1558 0.686096 0.820221 6.95408 0.820221 14.6861C0.820221 22.418 7.1558 28.6861 14.9712 28.6861C18.3222 28.6861 21.3962 27.5278 23.8202 25.6018C22.5326 26.0793 21.1442 26.3528 19.6882 26.3528Z" fill="#EE3124"/>
<path d="M19.6882 26.3528C13.1754 26.3528 7.8957 21.1294 7.8957 14.6861C7.8957 8.24273 13.1754 3.01943 19.6882 3.01943C21.1442 3.01943 22.5326 3.29294 23.8202 3.77039C21.3962 1.8445 18.3222 0.686096 14.9712 0.686096C7.1558 0.686096 0.820221 6.95408 0.820221 14.6861C0.820221 22.418 7.1558 28.6861 14.9712 28.6861C18.3222 28.6861 21.3962 27.5278 23.8202 25.6018C22.5326 26.0793 21.1442 26.3528 19.6882 26.3528Z" fill="url(#paint1_linear)"/>
<path fill-rule="evenodd" clip-rule="evenodd" d="M0.820221 14.6861C0.820221 6.95408 7.08821 0.686096 14.8202 0.686096C22.5522 0.686096 28.8202 6.95408 28.8202 14.6861C28.8202 22.418 22.5522 28.6861 14.8202 28.6861C7.08821 28.6861 0.820221 22.418 0.820221 14.6861ZM7.82022 14.6861C7.82022 20.1629 11.2154 24.6028 15.4036 24.6028C19.5917 24.6028 22.9869 20.1629 22.9869 14.6861C22.9869 9.20923 19.5917 4.76943 15.4036 4.76943C11.2154 4.76943 7.82022 9.20923 7.82022 14.6861Z" fill="url(#paint2_linear)"/>
<defs>
<linearGradient id="paint0_linear" x1="26.737" y1="22.2614" x2="21.7301" y2="3.93504" gradientUnits="userSpaceOnUse">
<stop stop-color="#F2F2F2" stop-opacity="0.1"/>
<stop offset="0.341215" stop-color="#969696" stop-opacity="0.168243"/>
<stop offset="0.662638" stop-color="#454545" stop-opacity="0.232528"/>
<stop offset="0.888792" stop-color="#131313" stop-opacity="0.277758"/>
<stop offset="1" stop-opacity="0.3"/>
</linearGradient>
<linearGradient id="paint1_linear" x1="2.8744" y1="7.35301" x2="9.3546" y2="26.7252" gradientUnits="userSpaceOnUse">
<stop stop-color="white" stop-opacity="0.1"/>
<stop offset="1" stop-opacity="0.3"/>
</linearGradient>
<linearGradient id="paint2_linear" x1="-3.78919" y1="21.4594" x2="21.5935" y2="33.2955" gradientUnits="userSpaceOnUse">
<stop stop-color="white" stop-opacity="0.2"/>
<stop offset="1" stop-color="white" stop-opacity="0.01"/>
</linearGradient>
</defs>
</svg>
