<svg width="268" height="268" viewBox="0 0 268 268" fill="none" xmlns="http://www.w3.org/2000/svg">
<path d="M219.568 200.373C220.3 200.853 221.283 200.648 221.751 199.909C231.712 184.18 237.268 166.053 237.822 147.423C238.392 128.266 233.65 109.324 224.122 92.6945C214.594 76.0648 200.65 62.3954 183.835 53.1991C167.019 44.0028 147.987 39.6382 128.845 40.5882C109.702 41.5382 91.1958 47.7658 75.3734 58.5819C59.551 69.398 47.0295 84.3807 39.1947 101.872C31.3598 119.364 28.517 138.682 30.9809 157.689C33.3769 176.172 40.7 193.659 52.1694 208.325C52.7086 209.015 53.7073 209.12 54.3884 208.571C55.0694 208.021 55.1749 207.024 54.6361 206.335C43.5337 192.124 36.4446 175.184 34.1238 157.281C31.7351 138.854 34.4911 120.125 42.087 103.168C49.6828 86.2099 61.8222 71.6843 77.1619 61.1982C92.5016 50.7121 110.443 44.6745 129.002 43.7535C147.56 42.8325 166.012 47.064 182.314 55.9797C198.617 64.8954 212.135 78.1477 221.372 94.27C230.61 110.392 235.207 128.756 234.654 147.329C234.118 165.374 228.741 182.933 219.1 198.173C218.632 198.912 218.836 199.894 219.568 200.373Z" fill="#BABFC7" fill-opacity="0.12"/>
<path d="M112.563 130.32C114.163 130.933 115.39 131.813 116.243 132.96C117.097 134.107 117.523 135.48 117.523 137.08C117.523 138.76 117.07 140.227 116.163 141.48C115.257 142.707 113.963 143.653 112.283 144.32C110.603 144.987 108.63 145.32 106.363 145.32C104.123 145.32 102.163 144.987 100.483 144.32C98.8301 143.653 97.5501 142.707 96.6434 141.48C95.7368 140.227 95.2834 138.76 95.2834 137.08C95.2834 135.48 95.6968 134.107 96.5234 132.96C97.3768 131.813 98.6034 130.933 100.203 130.32C98.9234 129.707 97.9501 128.893 97.2834 127.88C96.6168 126.867 96.2834 125.667 96.2834 124.28C96.2834 122.733 96.6968 121.387 97.5234 120.24C98.3768 119.093 99.5634 118.213 101.083 117.6C102.603 116.987 104.363 116.68 106.363 116.68C108.39 116.68 110.163 116.987 111.683 117.6C113.23 118.213 114.417 119.093 115.243 120.24C116.097 121.387 116.523 122.733 116.523 124.28C116.523 125.64 116.177 126.84 115.483 127.88C114.817 128.893 113.843 129.707 112.563 130.32ZM106.363 119.92C104.47 119.92 102.977 120.333 101.883 121.16C100.79 121.96 100.243 123.053 100.243 124.44C100.243 125.827 100.777 126.92 101.843 127.72C102.937 128.52 104.443 128.92 106.363 128.92C108.31 128.92 109.83 128.52 110.923 127.72C112.043 126.92 112.603 125.827 112.603 124.44C112.603 123.053 112.03 121.96 110.883 121.16C109.763 120.333 108.257 119.92 106.363 119.92ZM106.363 142.08C108.577 142.08 110.323 141.627 111.603 140.72C112.883 139.787 113.523 138.533 113.523 136.96C113.523 135.413 112.883 134.2 111.603 133.32C110.323 132.413 108.577 131.96 106.363 131.96C104.15 131.96 102.417 132.413 101.163 133.32C99.9101 134.2 99.2834 135.413 99.2834 136.96C99.2834 138.533 99.9101 139.787 101.163 140.72C102.417 141.627 104.15 142.08 106.363 142.08ZM131.906 128.76C134.652 129.027 136.746 129.88 138.186 131.32C139.626 132.733 140.346 134.547 140.346 136.76C140.346 138.36 139.946 139.813 139.146 141.12C138.346 142.4 137.146 143.427 135.546 144.2C133.972 144.947 132.039 145.32 129.746 145.32C127.746 145.32 125.826 145.027 123.986 144.44C122.146 143.827 120.639 142.987 119.466 141.92L121.306 138.76C122.266 139.667 123.492 140.4 124.986 140.96C126.479 141.493 128.066 141.76 129.746 141.76C131.826 141.76 133.439 141.32 134.586 140.44C135.759 139.56 136.346 138.347 136.346 136.8C136.346 135.253 135.772 134.053 134.626 133.2C133.479 132.347 131.746 131.92 129.426 131.92H127.186V129.12L134.226 120.48H120.746V117H139.226V119.72L131.906 128.76ZM149.766 132.04C147.819 132.04 146.246 131.333 145.046 129.92C143.846 128.507 143.246 126.667 143.246 124.4C143.246 122.133 143.846 120.293 145.046 118.88C146.246 117.467 147.819 116.76 149.766 116.76C151.712 116.76 153.272 117.467 154.446 118.88C155.646 120.267 156.246 122.107 156.246 124.4C156.246 126.693 155.646 128.547 154.446 129.96C153.272 131.347 151.712 132.04 149.766 132.04ZM166.646 117H169.726L150.606 145H147.526L166.646 117ZM149.766 129.76C150.992 129.76 151.952 129.293 152.646 128.36C153.339 127.4 153.686 126.08 153.686 124.4C153.686 122.72 153.339 121.413 152.646 120.48C151.952 119.52 150.992 119.04 149.766 119.04C148.566 119.04 147.606 119.52 146.886 120.48C146.192 121.44 145.846 122.747 145.846 124.4C145.846 126.053 146.192 127.36 146.886 128.32C147.606 129.28 148.566 129.76 149.766 129.76ZM167.486 145.24C165.539 145.24 163.966 144.547 162.766 143.16C161.592 141.747 161.006 139.893 161.006 137.6C161.006 135.307 161.592 133.467 162.766 132.08C163.966 130.667 165.539 129.96 167.486 129.96C169.432 129.96 171.006 130.667 172.206 132.08C173.406 133.493 174.006 135.333 174.006 137.6C174.006 139.867 173.406 141.707 172.206 143.12C171.006 144.533 169.432 145.24 167.486 145.24ZM167.486 142.96C168.686 142.96 169.632 142.48 170.326 141.52C171.046 140.56 171.406 139.253 171.406 137.6C171.406 135.947 171.046 134.64 170.326 133.68C169.632 132.72 168.686 132.24 167.486 132.24C166.259 132.24 165.299 132.72 164.606 133.68C163.912 134.613 163.566 135.92 163.566 137.6C163.566 139.28 163.912 140.6 164.606 141.56C165.299 142.493 166.259 142.96 167.486 142.96Z" fill="#5E5873"/>
<path d="M235.518 144.5C237.993 144.5 240.01 142.492 239.906 140.019C239.254 124.553 235.238 109.396 228.116 95.6127C220.308 80.4998 208.993 67.4774 195.118 57.6353C181.243 47.7932 165.213 41.4179 148.369 39.043C131.524 36.6681 114.356 38.3627 98.301 43.9849C82.2459 49.6072 67.7713 58.9935 56.0885 71.3582C44.4058 83.723 35.8549 98.7063 31.1516 115.054C26.4483 131.402 25.7294 148.639 29.0552 165.321C32.0885 180.537 38.4057 194.888 47.5451 207.381C49.0068 209.379 51.8355 209.69 53.7702 208.146C55.7049 206.601 56.0122 203.787 54.5583 201.783C46.308 190.413 40.6002 177.38 37.8469 163.569C34.8011 148.29 35.4595 132.505 39.7669 117.533C44.0743 102.561 51.9054 88.8389 62.6047 77.515C73.3041 66.1911 86.5603 57.5949 101.264 52.4459C115.967 47.2969 131.69 45.7449 147.117 47.9199C162.543 50.0949 177.224 55.9336 189.931 64.9472C202.638 73.9608 213.001 85.8871 220.152 99.7278C226.617 112.239 230.287 125.986 230.932 140.019C231.046 142.492 233.042 144.5 235.518 144.5Z" fill="#28C76F"/>
</svg>
