<svg width="16" height="25" viewBox="0 0 16 25" fill="none" xmlns="http://www.w3.org/2000/svg">
<path d="M16 13.4231C16 14.0181 15.5227 14.5 14.9333 14.5H1.06667C0.477333 14.5 0 14.0181 0 13.4231V1.57692C0 0.981923 0.477333 0.5 1.06667 0.5H14.9333C15.5227 0.5 16 0.981923 16 1.57692V13.4231Z" fill="#4F5D73"/>
<path opacity="0.2" d="M0 13.5C0 13.5 0 13.9475 0 14.5V15.5C0 16.0525 0.477333 16.5 1.06667 16.5H4.8C4.8 16.5 6.4 16.5 6.4 18C6.4 20.09 6 21.1285 5.86827 21.414C5.8576 21.436 5.8464 21.4575 5.83627 21.48C5.82987 21.492 5.8256 21.5 5.8256 21.5H5.82933C5.7232 21.7505 5.6608 22.0215 5.6608 22.3075C5.66133 23.5185 6.70827 24.5 8 24.5C9.29173 24.5 10.3387 23.5185 10.3387 22.3075C10.3387 22.0215 10.2763 21.7505 10.1701 21.5H10.1739C10.1739 21.5 10.1696 21.492 10.1632 21.4795C10.1536 21.4575 10.1424 21.4365 10.1317 21.4145C10.0005 21.13 9.6 20.091 9.6 18C9.6 18 9.60533 16.5 11.2 16.5H14.9333C15.5227 16.5 16 16.0525 16 15.5V14.5C16 13.9475 16 13.5 16 13.5H0Z" fill="#231F20"/>
<path d="M0 12.5C0 12.5 0 12.9475 0 13.5V14.5C0 15.0525 0.477333 15.5 1.06667 15.5H4.8C4.8 15.5 6.4 15.5 6.4 17C6.4 19.09 6 20.1285 5.86827 20.414C5.8576 20.436 5.8464 20.4575 5.83627 20.48C5.82987 20.492 5.8256 20.5 5.8256 20.5H5.82933C5.7232 20.7505 5.6608 21.0215 5.6608 21.3075C5.66133 22.5185 6.70827 23.5 8 23.5C9.29173 23.5 10.3387 22.5185 10.3387 21.3075C10.3387 21.0215 10.2763 20.7505 10.1701 20.5H10.1739C10.1739 20.5 10.1696 20.492 10.1632 20.4795C10.1536 20.4575 10.1424 20.4365 10.1317 20.4145C10.0005 20.13 9.6 19.091 9.6 17C9.6 17 9.60533 15.5 11.2 15.5H14.9333C15.5227 15.5 16 15.0525 16 14.5V13.5C16 12.9475 16 12.5 16 12.5H0Z" fill="#FFAF63"/>
<rect opacity="0.2" y="10.5" width="16" height="3" fill="#231F20"/>
<rect y="9.5" width="16" height="3" fill="white"/>
<path opacity="0.2" d="M14.9333 2.5H1.06667C0.477333 2.5 0 2.9475 0 3.5V5.5V7.5C0 8.0525 0 8.5 0 8.5H7.2C7.6416 8.5 8 8.836 8 9.25C8 9.664 8.3584 10 8.8 10C9.2416 10 9.6 9.664 9.6 9.25C9.6 8.836 9.9584 8.5 10.4 8.5C10.8416 8.5 11.2 8.836 11.2 9.25V10.75C11.2 11.164 11.5584 11.5 12 11.5C12.4416 11.5 12.8 11.164 12.8 10.75V9.25C12.8 8.836 13.1584 8.5 13.6 8.5C14.0416 8.5 14.4 8.836 14.4 9.25V9.75C14.4 10.164 14.7584 10.5 15.2 10.5C15.6416 10.5 16 10.164 16 9.75V7.5V6.75V5.5V3.5C16 2.9475 15.5227 2.5 14.9333 2.5Z" fill="#838E9E"/>
<path d="M16 9.5C16 10.052 15.552 10.5 15 10.5C14.448 10.5 14 10.052 14 9.5V5.5C14 4.948 14.448 4.5 15 4.5C15.552 4.5 16 4.948 16 5.5V9.5Z" fill="#F96E6F"/>
<path d="M12 9.5C12 10.052 11.552 10.5 11 10.5C10.448 10.5 10 10.052 10 9.5V5.5C10 4.948 10.448 4.5 11 4.5C11.552 4.5 12 4.948 12 5.5V9.5Z" fill="#F96E6F"/>
<path d="M9 9.5C9 10.052 8.552 10.5 8 10.5C7.448 10.5 7 10.052 7 9.5V5.5C7 4.948 7.448 4.5 8 4.5C8.552 4.5 9 4.948 9 5.5V9.5Z" fill="#F96E6F"/>
<path d="M16 1.5C16 0.9475 15.5227 0.5 14.9333 0.5H1.06667C0.477333 0.5 0 0.9475 0 1.5V3.5H16V1.5Z" fill="#F96E6F"/>
<path d="M0 1.5V5.5C0 6.0525 0 6.5 0 6.5H14.9333C15.5227 6.5 16 6.0525 16 5.5V3.5L0 1.5Z" fill="#F96E6F"/>
</svg>
