<svg width="40" height="37" viewBox="0 0 40 37" fill="none" xmlns="http://www.w3.org/2000/svg">
<g clip-path="url(#clip0)">
<circle cx="19.3119" cy="20.4731" r="13.5" stroke="#E9ECEF" stroke-width="4"/>
<mask id="path-2-inside-1" fill="white">
<path d="M14.9623 33.3254C14.6203 34.336 15.1615 35.4453 16.2067 35.6591C17.751 35.9748 19.3382 36.0539 20.9135 35.8903C23.131 35.6599 25.2728 34.9539 27.1926 33.8203C29.1124 32.6868 30.7651 31.1524 32.0378 29.322C33.3106 27.4915 34.1735 25.408 34.5677 23.2137C34.9619 21.0193 34.878 18.7658 34.3219 16.6068C33.7657 14.4478 32.7504 12.4342 31.3451 10.7034C29.9399 8.97256 28.1777 7.56525 26.179 6.5775C24.7592 5.87583 23.2437 5.39761 21.686 5.15617C20.6317 4.99275 19.7383 5.84439 19.7072 6.91086C19.6761 7.97733 20.5218 8.85093 21.5684 9.05783C22.5711 9.25603 23.546 9.586 24.4673 10.0413C25.9678 10.7828 27.2906 11.8393 28.3456 13.1387C29.4006 14.4381 30.1628 15.9498 30.5803 17.5706C30.9979 19.1914 31.0608 20.8832 30.7649 22.5306C30.469 24.178 29.8211 25.7421 28.8656 27.1163C27.9101 28.4905 26.6694 29.6423 25.2282 30.4933C23.7869 31.3443 22.179 31.8744 20.5143 32.0473C19.4921 32.1535 18.4633 32.1235 17.4544 31.9604C16.4012 31.7901 15.3043 32.3148 14.9623 33.3254Z"/>
</mask>
<path d="M17.4544 31.9604L16.8159 35.9091L17.4544 31.9604ZM21.5684 9.05783L22.3441 5.13377L21.5684 9.05783ZM21.686 5.15617L22.2987 1.20337L21.686 5.15617ZM16.2067 35.6591L15.4054 39.578L16.2067 35.6591ZM15.4054 39.578C17.3482 39.9752 19.345 40.0748 21.3268 39.8689L20.5002 31.9117C19.3314 32.0331 18.1538 31.9744 17.0081 31.7401L15.4054 39.578ZM21.3268 39.8689C24.1166 39.5791 26.8111 38.6908 29.2263 37.2647L25.1588 30.3759C23.7345 31.2169 22.1455 31.7408 20.5002 31.9117L21.3268 39.8689ZM29.2263 37.2647C31.6415 35.8387 33.7207 33.9084 35.3219 31.6055L28.7537 27.0384C27.8094 28.3965 26.5832 29.5349 25.1588 30.3759L29.2263 37.2647ZM35.3219 31.6055C36.9232 29.3027 38.0088 26.6815 38.5047 23.9209L30.6307 22.5065C30.3382 24.1345 29.698 25.6804 28.7537 27.0384L35.3219 31.6055ZM38.5047 23.9209C39.0006 21.1603 38.8951 18.3252 38.1954 15.609L30.4483 17.6046C30.8609 19.2064 30.9231 20.8784 30.6307 22.5065L38.5047 23.9209ZM38.1954 15.609C37.4958 12.8929 36.2184 10.3596 34.4505 8.18212L28.2398 13.2246C29.2824 14.5088 30.0357 16.0028 30.4483 17.6046L38.1954 15.609ZM34.4505 8.18212C32.6826 6.00463 30.4657 4.23415 27.9512 2.9915L24.4069 10.1635C25.8898 10.8964 27.1971 11.9405 28.2398 13.2246L34.4505 8.18212ZM27.9512 2.9915C26.1649 2.10875 24.2583 1.50712 22.2987 1.20337L21.0733 9.10897C22.229 9.2881 23.3534 9.64291 24.4069 10.1635L27.9512 2.9915ZM20.7927 12.9819C21.4507 13.112 22.0905 13.3285 22.6951 13.6273L26.2394 6.45528C25.0015 5.84349 23.6914 5.40009 22.3441 5.13377L20.7927 12.9819ZM22.6951 13.6273C23.6798 14.1139 24.5479 14.8072 25.2402 15.66L31.451 10.6174C30.0333 8.8714 28.2557 7.45172 26.2394 6.45528L22.6951 13.6273ZM25.2402 15.66C25.9326 16.5127 26.4328 17.5047 26.7068 18.5684L34.4539 16.5728C33.8929 14.3948 32.8686 12.3635 31.451 10.6174L25.2402 15.66ZM26.7068 18.5684C26.9808 19.6321 27.0221 20.7423 26.8279 21.8234L34.7019 23.2378C35.0995 21.0242 35.0149 18.7508 34.4539 16.5728L26.7068 18.5684ZM26.8279 21.8234C26.6337 22.9045 26.2086 23.9309 25.5815 24.8327L32.1498 29.3998C33.4337 27.5533 34.3042 25.4514 34.7019 23.2378L26.8279 21.8234ZM25.5815 24.8327C24.9545 25.7345 24.1402 26.4905 23.1944 27.0489L27.2619 33.9377C29.1986 32.7942 30.8658 31.2464 32.1498 29.3998L25.5815 24.8327ZM23.1944 27.0489C22.2486 27.6074 21.1934 27.9552 20.1009 28.0687L20.9276 36.0259C23.1646 35.7935 25.3252 35.0812 27.2619 33.9377L23.1944 27.0489ZM20.1009 28.0687C19.4302 28.1384 18.755 28.1187 18.0929 28.0117L16.8159 35.9091C18.1716 36.1283 19.5541 36.1686 20.9276 36.0259L20.1009 28.0687ZM18.0929 28.0117C15.5201 27.5957 12.2661 28.8145 11.1734 32.0431L18.7512 34.6076C18.5585 35.1772 18.1625 35.5513 17.8052 35.7394C17.4693 35.9163 17.1265 35.9593 16.8159 35.9091L18.0929 28.0117ZM15.7089 6.79431C15.6096 10.2013 18.2359 12.4765 20.7927 12.9819L22.3441 5.13377C22.6528 5.19479 22.9592 5.35448 23.2125 5.63718C23.482 5.93786 23.723 6.42642 23.7055 7.02741L15.7089 6.79431ZM22.2987 1.20337C18.5307 0.619324 15.7998 3.67502 15.7089 6.79431L23.7055 7.02741C23.6768 8.01376 22.7327 9.36617 21.0733 9.10897L22.2987 1.20337ZM17.0081 31.7401C18.6532 32.0765 19.0676 33.673 18.7512 34.6076L11.1734 32.0431C10.173 34.999 11.6697 38.8141 15.4054 39.578L17.0081 31.7401Z" fill="#EA5455" mask="url(#path-2-inside-1)"/>
</g>
<defs>
<clipPath id="clip0">
<rect width="39" height="35.852" fill="white" transform="translate(0.154694 0.973083)"/>
</clipPath>
</defs>
</svg>
