<svg width="22" height="16" viewBox="0 0 22 16" fill="none" xmlns="http://www.w3.org/2000/svg">
<g opacity="0.2">
<path fill-rule="evenodd" clip-rule="evenodd" d="M13.9505 15.948C14.0969 15.9825 14.2469 16 14.3963 16C15.2437 16 15.9784 15.454 16.1832 14.6725L16.9453 11.761C17.1905 10.825 16.5884 9.8735 15.6026 9.6405L10.4953 8.4335C10.349 8.399 10.199 8.3815 10.0495 8.3815C9.20212 8.3815 8.46738 8.9275 8.26264 9.709L7.50054 12.6205C7.25528 13.5565 7.85738 14.508 8.84317 14.741L13.9505 15.948ZM9.79475 10.0715C9.82896 9.941 9.95054 9.8815 10.0495 9.8815C10.0711 9.8815 10.0926 9.884 10.1137 9.889L15.2211 11.096C15.3621 11.129 15.4479 11.265 15.4132 11.399L14.6511 14.31C14.6095 14.469 14.4516 14.5215 14.3321 14.4925L9.22475 13.2855C9.0837 13.2525 8.99791 13.1165 9.03264 12.9825L9.79475 10.0715Z" fill="#231F20"/>
</g>
<path fill-rule="evenodd" clip-rule="evenodd" d="M14.2748 15C14.1184 15 13.9614 14.9816 13.8082 14.9454L8.46257 13.678C7.43078 13.4333 6.80059 12.4341 7.05729 11.4513L7.85496 8.39398C8.06925 7.57334 8.83826 7 9.72517 7C9.88162 7 10.0386 7.01838 10.1918 7.0546L15.5374 8.32204C16.5692 8.56671 17.1994 9.56586 16.9427 10.5487L16.145 13.606C15.9308 14.4267 15.1617 15 14.2748 15ZM9.72517 8.57511C9.62161 8.57511 9.49435 8.63759 9.45855 8.77463L8.66088 11.8314C8.62453 11.9721 8.71432 12.1149 8.86195 12.1496L14.2076 13.417C14.3327 13.4475 14.4979 13.3923 14.5415 13.2254L15.3391 10.1686C15.3755 10.0279 15.2857 9.88508 15.138 9.85043L9.79238 8.58299C9.77034 8.57774 9.74776 8.57511 9.72517 8.57511Z" fill="#838E9E"/>
<path opacity="0.2" d="M20.9524 1C20.3736 1 19.9048 1.48192 19.9048 2.07692V1.80769L1.91924 5.78746C1.73119 5.49831 1.41114 5.30769 1.04762 5.30769C0.46881 5.30769 0 5.78962 0 6.38462V9.61539C0 10.2104 0.46881 10.6923 1.04762 10.6923C1.41114 10.6923 1.73119 10.5017 1.91924 10.2125L19.9048 14.1923V13.9231C19.9048 14.5181 20.3736 15 20.9524 15C21.5312 15 22 14.5181 22 13.9231V2.07692C22 1.48192 21.5312 1 20.9524 1Z" fill="#231F20"/>
<path fill-rule="evenodd" clip-rule="evenodd" d="M20 14L0 9.47826V5.52174L20 1V14Z" fill="#F96E6F"/>
<path fill-rule="evenodd" clip-rule="evenodd" d="M2 8.8C2 9.463 1.5525 10 1 10C0.4475 10 0 9.463 0 8.8V5.2C0 4.537 0.4475 4 1 4C1.5525 4 2 4.537 2 5.2V8.8Z" fill="#FFAF63"/>
<path fill-rule="evenodd" clip-rule="evenodd" d="M22 12.9231C22 13.5181 21.5525 14 21 14C20.4475 14 20 13.5181 20 12.9231V1.07692C20 0.481923 20.4475 0 21 0C21.5525 0 22 0.481923 22 1.07692V12.9231Z" fill="#FFAF63"/>
</svg>
