<svg width="16" height="16" viewBox="0 0 16 16" fill="none" xmlns="http://www.w3.org/2000/svg">
<path d="M16 12C16 12.0667 16 12.2 15.9333 12.2667C15.8667 12.4 15.7333 12.5333 15.6 12.6C15.5333 12.6667 15.4 12.6667 15.3333 12.6667H11.3333C10.9333 12.6667 10.6667 12.4 10.6667 12C10.6667 11.6 10.9333 11.3333 11.3333 11.3333H13.7333L9 6.6L6.13333 9.46667C5.86667 9.73333 5.46667 9.73333 5.2 9.46667L0.2 4.46667C-0.0666667 4.2 -0.0666667 3.8 0.2 3.53333C0.466667 3.26667 0.866667 3.26667 1.13333 3.53333L5.66667 8.06667L8.53333 5.2C8.8 4.93333 9.2 4.93333 9.46667 5.2L14.6667 10.4V8C14.6667 7.6 14.9333 7.33333 15.3333 7.33333C15.7333 7.33333 16 7.6 16 8V12Z" fill="black"/>
<mask id="mask0" style="mask-type:alpha" maskUnits="userSpaceOnUse" x="0" y="3" width="16" height="10">
<path d="M16 12C16 12.0667 16 12.2 15.9333 12.2667C15.8667 12.4 15.7333 12.5333 15.6 12.6C15.5333 12.6667 15.4 12.6667 15.3333 12.6667H11.3333C10.9333 12.6667 10.6667 12.4 10.6667 12C10.6667 11.6 10.9333 11.3333 11.3333 11.3333H13.7333L9 6.6L6.13333 9.46667C5.86667 9.73333 5.46667 9.73333 5.2 9.46667L0.2 4.46667C-0.0666667 4.2 -0.0666667 3.8 0.2 3.53333C0.466667 3.26667 0.866667 3.26667 1.13333 3.53333L5.66667 8.06667L8.53333 5.2C8.8 4.93333 9.2 4.93333 9.46667 5.2L14.6667 10.4V8C14.6667 7.6 14.9333 7.33333 15.3333 7.33333C15.7333 7.33333 16 7.6 16 8V12Z" fill="white"/>
</mask>
<g mask="url(#mask0)">
<rect width="16" height="16" fill="#EA5455"/>
</g>
</svg>
