<svg width="115" height="113" viewBox="0 0 115 113" fill="none" xmlns="http://www.w3.org/2000/svg">
<circle opacity="0.2" cx="60" cy="58" r="47" stroke="#28C76F" stroke-width="16"/>
<path opacity="0.4" d="M52.1348 104.337C59.0593 105.513 66.1593 105.121 72.9126 103.192C79.6659 101.262 85.9009 97.8433 91.1592 93.1869C96.4174 88.5306 100.565 82.7549 103.298 76.2846C106.03 69.8143 107.278 62.8138 106.948 55.798C106.619 48.7821 104.722 41.9291 101.396 35.743C98.0699 29.5569 93.3997 24.1949 87.7287 20.0511C82.0576 15.9074 75.53 13.0874 68.6257 11.7984C61.7214 10.5094 54.616 10.7842 47.8319 12.6026" stroke="#28C76F" stroke-width="16"/>
<g opacity="0.74" filter="url(#filter0_d)">
<path d="M48.2555 12.4912C41.5657 14.2176 35.3388 17.3977 30.0181 21.805C24.6975 26.2124 20.4139 31.7385 17.4724 37.9901C14.531 44.2416 13.0039 51.0648 13 57.9738C12.9962 64.8828 14.5156 71.7076 17.45 77.9625" stroke="#28C76F" stroke-width="16"/>
</g>
<path d="M47.7485 50.692C48.9845 50.812 49.9265 51.196 50.5745 51.844C51.2225 52.48 51.5465 53.296 51.5465 54.292C51.5465 55.012 51.3665 55.666 51.0065 56.254C50.6465 56.83 50.1065 57.292 49.3865 57.64C48.6785 57.976 47.8085 58.144 46.7765 58.144C45.8765 58.144 45.0125 58.012 44.1845 57.748C43.3565 57.472 42.6785 57.094 42.1505 56.614L42.9785 55.192C43.4105 55.6 43.9625 55.93 44.6345 56.182C45.3065 56.422 46.0205 56.542 46.7765 56.542C47.7125 56.542 48.4385 56.344 48.9545 55.948C49.4825 55.552 49.7465 55.006 49.7465 54.31C49.7465 53.614 49.4885 53.074 48.9725 52.69C48.4565 52.306 47.6765 52.114 46.6325 52.114H45.6245V50.854L48.7925 46.966H42.7265V45.4H51.0425V46.624L47.7485 50.692ZM60.9293 51.394C61.6493 51.67 62.2013 52.066 62.5853 52.582C62.9693 53.098 63.1613 53.716 63.1613 54.436C63.1613 55.192 62.9573 55.852 62.5493 56.416C62.1413 56.968 61.5593 57.394 60.8033 57.694C60.0473 57.994 59.1593 58.144 58.1393 58.144C57.1313 58.144 56.2493 57.994 55.4933 57.694C54.7493 57.394 54.1733 56.968 53.7653 56.416C53.3573 55.852 53.1533 55.192 53.1533 54.436C53.1533 53.716 53.3393 53.098 53.7113 52.582C54.0953 52.066 54.6473 51.67 55.3673 51.394C54.7913 51.118 54.3533 50.752 54.0533 50.296C53.7533 49.84 53.6033 49.3 53.6033 48.676C53.6033 47.98 53.7893 47.374 54.1613 46.858C54.5453 46.342 55.0793 45.946 55.7633 45.67C56.4473 45.394 57.2393 45.256 58.1393 45.256C59.0513 45.256 59.8493 45.394 60.5333 45.67C61.2293 45.946 61.7633 46.342 62.1353 46.858C62.5193 47.374 62.7113 47.98 62.7113 48.676C62.7113 49.288 62.5553 49.828 62.2433 50.296C61.9433 50.752 61.5053 51.118 60.9293 51.394ZM58.1393 46.714C57.2873 46.714 56.6153 46.9 56.1233 47.272C55.6313 47.632 55.3853 48.124 55.3853 48.748C55.3853 49.372 55.6253 49.864 56.1053 50.224C56.5973 50.584 57.2753 50.764 58.1393 50.764C59.0153 50.764 59.6993 50.584 60.1913 50.224C60.6953 49.864 60.9473 49.372 60.9473 48.748C60.9473 48.124 60.6893 47.632 60.1733 47.272C59.6693 46.9 58.9913 46.714 58.1393 46.714ZM58.1393 56.686C59.1353 56.686 59.9213 56.482 60.4973 56.074C61.0733 55.654 61.3613 55.09 61.3613 54.382C61.3613 53.686 61.0733 53.14 60.4973 52.744C59.9213 52.336 59.1353 52.132 58.1393 52.132C57.1433 52.132 56.3633 52.336 55.7993 52.744C55.2353 53.14 54.9533 53.686 54.9533 54.382C54.9533 55.09 55.2353 55.654 55.7993 56.074C56.3633 56.482 57.1433 56.686 58.1393 56.686ZM67.3695 52.168C66.4935 52.168 65.7855 51.85 65.2455 51.214C64.7055 50.578 64.4355 49.75 64.4355 48.73C64.4355 47.71 64.7055 46.882 65.2455 46.246C65.7855 45.61 66.4935 45.292 67.3695 45.292C68.2455 45.292 68.9475 45.61 69.4755 46.246C70.0155 46.87 70.2855 47.698 70.2855 48.73C70.2855 49.762 70.0155 50.596 69.4755 51.232C68.9475 51.856 68.2455 52.168 67.3695 52.168ZM74.9655 45.4H76.3515L67.7475 58H66.3615L74.9655 45.4ZM67.3695 51.142C67.9215 51.142 68.3535 50.932 68.6655 50.512C68.9775 50.08 69.1335 49.486 69.1335 48.73C69.1335 47.974 68.9775 47.386 68.6655 46.966C68.3535 46.534 67.9215 46.318 67.3695 46.318C66.8295 46.318 66.3975 46.534 66.0735 46.966C65.7615 47.398 65.6055 47.986 65.6055 48.73C65.6055 49.474 65.7615 50.062 66.0735 50.494C66.3975 50.926 66.8295 51.142 67.3695 51.142ZM75.3435 58.108C74.4675 58.108 73.7595 57.796 73.2195 57.172C72.6915 56.536 72.4275 55.702 72.4275 54.67C72.4275 53.638 72.6915 52.81 73.2195 52.186C73.7595 51.55 74.4675 51.232 75.3435 51.232C76.2195 51.232 76.9275 51.55 77.4675 52.186C78.0075 52.822 78.2775 53.65 78.2775 54.67C78.2775 55.69 78.0075 56.518 77.4675 57.154C76.9275 57.79 76.2195 58.108 75.3435 58.108ZM75.3435 57.082C75.8835 57.082 76.3095 56.866 76.6215 56.434C76.9455 56.002 77.1075 55.414 77.1075 54.67C77.1075 53.926 76.9455 53.338 76.6215 52.906C76.3095 52.474 75.8835 52.258 75.3435 52.258C74.7915 52.258 74.3595 52.474 74.0475 52.906C73.7355 53.326 73.5795 53.914 73.5795 54.67C73.5795 55.426 73.7355 56.02 74.0475 56.452C74.3595 56.872 74.7915 57.082 75.3435 57.082Z" fill="#5E5873"/>
<path d="M48.2856 76.072C47.6616 76.072 47.0616 75.972 46.4856 75.772C45.9176 75.572 45.4776 75.308 45.1656 74.98L45.5136 74.296C45.8176 74.6 46.2216 74.848 46.7256 75.04C47.2296 75.224 47.7496 75.316 48.2856 75.316C49.0376 75.316 49.6016 75.18 49.9776 74.908C50.3536 74.628 50.5416 74.268 50.5416 73.828C50.5416 73.492 50.4376 73.224 50.2296 73.024C50.0296 72.824 49.7816 72.672 49.4856 72.568C49.1896 72.456 48.7776 72.336 48.2496 72.208C47.6176 72.048 47.1136 71.896 46.7376 71.752C46.3616 71.6 46.0376 71.372 45.7656 71.068C45.5016 70.764 45.3696 70.352 45.3696 69.832C45.3696 69.408 45.4816 69.024 45.7056 68.68C45.9296 68.328 46.2736 68.048 46.7376 67.84C47.2016 67.632 47.7776 67.528 48.4656 67.528C48.9456 67.528 49.4136 67.596 49.8696 67.732C50.3336 67.86 50.7336 68.04 51.0696 68.272L50.7696 68.98C50.4176 68.748 50.0416 68.576 49.6416 68.464C49.2416 68.344 48.8496 68.284 48.4656 68.284C47.7296 68.284 47.1736 68.428 46.7976 68.716C46.4296 68.996 46.2456 69.36 46.2456 69.808C46.2456 70.144 46.3456 70.416 46.5456 70.624C46.7536 70.824 47.0096 70.98 47.3136 71.092C47.6256 71.196 48.0416 71.312 48.5616 71.44C49.1776 71.592 49.6736 71.744 50.0496 71.896C50.4336 72.04 50.7576 72.264 51.0216 72.568C51.2856 72.864 51.4176 73.268 51.4176 73.78C51.4176 74.204 51.3016 74.592 51.0696 74.944C50.8456 75.288 50.4976 75.564 50.0256 75.772C49.5536 75.972 48.9736 76.072 48.2856 76.072ZM55.3804 69.64C56.2044 69.64 56.8364 69.848 57.2764 70.264C57.7164 70.672 57.9364 71.28 57.9364 72.088V76H57.1204V75.016C56.9284 75.344 56.6444 75.6 56.2684 75.784C55.9004 75.968 55.4604 76.06 54.9484 76.06C54.2444 76.06 53.6844 75.892 53.2684 75.556C52.8524 75.22 52.6444 74.776 52.6444 74.224C52.6444 73.688 52.8364 73.256 53.2204 72.928C53.6124 72.6 54.2324 72.436 55.0804 72.436H57.0844V72.052C57.0844 71.508 56.9324 71.096 56.6284 70.816C56.3244 70.528 55.8804 70.384 55.2964 70.384C54.8964 70.384 54.5124 70.452 54.1444 70.588C53.7764 70.716 53.4604 70.896 53.1964 71.128L52.8124 70.492C53.1324 70.22 53.5164 70.012 53.9644 69.868C54.4124 69.716 54.8844 69.64 55.3804 69.64ZM55.0804 75.388C55.5604 75.388 55.9724 75.28 56.3164 75.064C56.6604 74.84 56.9164 74.52 57.0844 74.104V73.072H55.1044C54.0244 73.072 53.4844 73.448 53.4844 74.2C53.4844 74.568 53.6244 74.86 53.9044 75.076C54.1844 75.284 54.5764 75.388 55.0804 75.388ZM60.2505 67.096H61.1025V76H60.2505V67.096ZM68.9692 73.108H63.6892C63.7372 73.764 63.9892 74.296 64.4452 74.704C64.9012 75.104 65.4772 75.304 66.1732 75.304C66.5652 75.304 66.9252 75.236 67.2532 75.1C67.5812 74.956 67.8652 74.748 68.1052 74.476L68.5852 75.028C68.3052 75.364 67.9532 75.62 67.5292 75.796C67.1132 75.972 66.6532 76.06 66.1492 76.06C65.5012 76.06 64.9252 75.924 64.4212 75.652C63.9252 75.372 63.5372 74.988 63.2572 74.5C62.9772 74.012 62.8372 73.46 62.8372 72.844C62.8372 72.228 62.9692 71.676 63.2332 71.188C63.5052 70.7 63.8732 70.32 64.3372 70.048C64.8092 69.776 65.3372 69.64 65.9212 69.64C66.5052 69.64 67.0292 69.776 67.4932 70.048C67.9572 70.32 68.3212 70.7 68.5852 71.188C68.8492 71.668 68.9812 72.22 68.9812 72.844L68.9692 73.108ZM65.9212 70.372C65.3132 70.372 64.8012 70.568 64.3852 70.96C63.9772 71.344 63.7452 71.848 63.6892 72.472H68.1652C68.1092 71.848 67.8732 71.344 67.4572 70.96C67.0492 70.568 66.5372 70.372 65.9212 70.372ZM72.4073 76.06C71.8953 76.06 71.4033 75.988 70.9313 75.844C70.4673 75.692 70.1033 75.504 69.8393 75.28L70.2233 74.608C70.4873 74.816 70.8193 74.988 71.2193 75.124C71.6193 75.252 72.0353 75.316 72.4673 75.316C73.0433 75.316 73.4673 75.228 73.7393 75.052C74.0193 74.868 74.1593 74.612 74.1593 74.284C74.1593 74.052 74.0833 73.872 73.9313 73.744C73.7793 73.608 73.5873 73.508 73.3553 73.444C73.1233 73.372 72.8153 73.304 72.4313 73.24C71.9193 73.144 71.5073 73.048 71.1953 72.952C70.8833 72.848 70.6153 72.676 70.3913 72.436C70.1753 72.196 70.0673 71.864 70.0673 71.44C70.0673 70.912 70.2873 70.48 70.7273 70.144C71.1673 69.808 71.7793 69.64 72.5633 69.64C72.9713 69.64 73.3793 69.696 73.7873 69.808C74.1953 69.912 74.5313 70.052 74.7953 70.228L74.4233 70.912C73.9033 70.552 73.2833 70.372 72.5633 70.372C72.0193 70.372 71.6073 70.468 71.3273 70.66C71.0553 70.852 70.9193 71.104 70.9193 71.416C70.9193 71.656 70.9953 71.848 71.1473 71.992C71.3073 72.136 71.5033 72.244 71.7353 72.316C71.9673 72.38 72.2873 72.448 72.6953 72.52C73.1993 72.616 73.6033 72.712 73.9073 72.808C74.2113 72.904 74.4713 73.068 74.6873 73.3C74.9033 73.532 75.0113 73.852 75.0113 74.26C75.0113 74.812 74.7793 75.252 74.3153 75.58C73.8593 75.9 73.2233 76.06 72.4073 76.06Z" fill="#6E6B7B"/>
<defs>
<filter id="filter0_d" x="4.57764e-05" y="0.744965" width="59.2545" height="90.6154" filterUnits="userSpaceOnUse" color-interpolation-filters="sRGB">
<feFlood flood-opacity="0" result="BackgroundImageFix"/>
<feColorMatrix in="SourceAlpha" type="matrix" values="0 0 0 0 0 0 0 0 0 0 0 0 0 0 0 0 0 0 127 0" result="hardAlpha"/>
<feOffset dx="2" dy="3"/>
<feGaussianBlur stdDeviation="3.5"/>
<feColorMatrix type="matrix" values="0 0 0 0 0.333333 0 0 0 0 0.827451 0 0 0 0 0.552941 0 0 0 1 0"/>
<feBlend mode="normal" in2="BackgroundImageFix" result="effect1_dropShadow"/>
<feBlend mode="normal" in="SourceGraphic" in2="effect1_dropShadow" result="shape"/>
</filter>
</defs>
</svg>
