<svg width="18" height="18" viewBox="0 0 18 18" fill="none" xmlns="http://www.w3.org/2000/svg">
<path fill-rule="evenodd" clip-rule="evenodd" d="M13.3333 12.1667L17.0833 15.9167C17.4167 16.25 17.4167 16.75 17.0833 17.0834C16.9167 17.25 16.6667 17.3334 16.5 17.3334C16.3333 17.3334 16.0833 17.25 15.9167 17.0834L12.1667 13.3334C10.9167 14.25 9.41666 14.8334 7.74999 14.8334C3.83332 14.8334 0.666656 11.6667 0.666656 7.75002C0.666656 3.83335 3.83332 0.666687 7.74999 0.666687C11.6667 0.666687 14.8333 3.83335 14.8333 7.75002C14.8333 9.41669 14.25 11 13.3333 12.1667ZM7.74999 2.33335C4.74999 2.33335 2.33332 4.75002 2.33332 7.75002C2.33332 10.75 4.74999 13.1667 7.74999 13.1667C9.24999 13.1667 10.5833 12.5834 11.5833 11.5834C12.5833 10.5834 13.1667 9.25002 13.1667 7.75002C13.1667 4.75002 10.75 2.33335 7.74999 2.33335Z" fill="black"/>
</svg>
