<svg width="20" height="20" viewBox="0 0 20 20" fill="none" xmlns="http://www.w3.org/2000/svg">
<g opacity="0.2">
<path d="M19.939 8.26659C19.7914 7.83638 19.3995 7.52243 18.929 7.45683L13.5352 6.71266L11.1224 2.06988C10.9109 1.66319 10.4767 1.40623 9.99999 1.40623C9.52333 1.40623 9.08904 1.66319 8.87761 2.06988L6.46618 6.71266L1.07142 7.45683C0.599517 7.52243 0.208088 7.83593 0.0614214 8.26659C-0.0861977 8.69681 0.0361833 9.16909 0.378088 9.48531L4.28142 13.0998L3.36047 18.204C3.28047 18.6501 3.47333 19.1007 3.85856 19.3667C4.07523 19.5178 4.33285 19.5938 4.59333 19.5938C4.79237 19.5938 4.99237 19.5485 5.17523 19.4571L9.99999 17.0473L14.8248 19.4571C15.0076 19.5485 15.2076 19.5938 15.4067 19.5938C15.6657 19.5938 15.9248 19.5178 16.1424 19.3667C16.5276 19.1002 16.7205 18.6496 16.6405 18.204L15.719 13.0994L19.6224 9.48485C19.9629 9.17 20.0857 8.69681 19.939 8.26659Z" fill="#231F20"/>
</g>
<path fill-rule="evenodd" clip-rule="evenodd" d="M19.9391 6.78962C19.7914 6.36384 19.3995 6.05313 18.9291 5.98821L13.5353 5.25172L11.1225 0.6568C10.911 0.254303 10.4768 0 10.0001 0C9.52343 0 9.08915 0.254303 8.87772 0.6568L6.46631 5.25172L1.0716 5.98821C0.599695 6.05313 0.208269 6.3634 0.0616039 6.78962C-0.0860138 7.2154 0.0363661 7.68282 0.378268 7.99577L4.28157 11.573L3.36062 16.6246C3.28062 17.0661 3.47348 17.512 3.85871 17.7752C4.07538 17.9248 4.333 18 4.59347 18C4.79252 18 4.99251 17.9552 5.17537 17.8648L10.0001 15.4798L14.8248 17.8648C15.0077 17.9552 15.2077 18 15.4067 18C15.6658 18 15.9248 17.9248 16.1424 17.7752C16.5277 17.5115 16.7205 17.0656 16.6405 16.6246L15.7191 11.5726L19.6224 7.99532C19.9629 7.68371 20.0857 7.2154 19.9391 6.78962Z" fill="#FFAF63"/>
</svg>
