<svg width="20" height="19" viewBox="0 0 20 19" fill="none" xmlns="http://www.w3.org/2000/svg">
<path fill-rule="evenodd" clip-rule="evenodd" d="M18.4711 6.84113C18.8033 6.92429 19.0525 7.0906 19.1355 7.42324C19.2186 7.67271 19.1355 8.00534 18.8864 8.17166L15.0661 11.9138L15.9796 17.2359C16.0627 17.5685 15.8966 17.9012 15.6474 18.0675C15.4813 18.1506 15.3152 18.2338 15.1491 18.2338H14.7339L10 15.7391L5.26615 18.2338C4.93395 18.4001 4.60175 18.317 4.3526 18.1506C4.10345 17.9843 3.93734 17.6517 4.0204 17.3191L4.93395 11.9969L1.11364 8.25482C0.864487 8.0885 0.781437 7.75587 0.864487 7.42324C1.03059 7.0906 1.27974 6.84113 1.61194 6.84113L6.8441 6.00955L9.25256 1.26953C9.50171 0.68742 10.4983 0.68742 10.7475 1.26953L13.1559 6.0927L18.4711 6.84113ZM13.322 11.8306C13.322 11.5811 13.4051 11.3317 13.5712 11.0822L16.561 8.17166L12.4915 7.58955C12.1593 7.58955 11.9102 7.42324 11.8271 7.17376L10 3.5148L8.17291 7.25692C8.00681 7.42324 7.75766 7.67271 7.50851 7.67271L3.43905 8.25482L6.42885 11.0822C6.59495 11.3317 6.678 11.5811 6.678 11.8306L5.93055 15.9054L9.58476 13.9927C9.83391 13.8264 10.0831 13.8264 10.3322 13.9927L13.9864 15.9054L13.322 11.8306Z" fill="black"/>
</svg>
