<svg width="21" height="20" viewBox="0 0 21 20" fill="none" xmlns="http://www.w3.org/2000/svg">
<path fill-rule="evenodd" clip-rule="evenodd" d="M16.8095 1.66666H3.4762C2.05953 1.66666 0.976196 2.74999 0.976196 4.16666V9.16666C0.976196 14.25 5.05953 18.3333 10.1429 18.3333C15.2262 18.3333 19.3095 14.25 19.3095 9.16666V4.16666C19.3095 2.74999 18.2262 1.66666 16.8095 1.66666ZM17.6429 9.16666C17.6429 13.3333 14.3095 16.6667 10.1429 16.6667C5.9762 16.6667 2.64286 13.3333 2.64286 9.16666V4.16666C2.64286 3.66666 2.9762 3.33332 3.4762 3.33332H16.8095C17.3095 3.33332 17.6429 3.66666 17.6429 4.16666V9.16666ZM14.0595 8.91666C14.3929 8.58332 14.3929 8.08332 14.0595 7.74999C13.7262 7.41666 13.2262 7.41666 12.8929 7.74999L10.1429 10.5L7.39286 7.74999C7.05953 7.41666 6.55953 7.41666 6.2262 7.74999C5.89286 8.08332 5.89286 8.58332 6.2262 8.91666L9.55953 12.25C9.7262 12.4167 9.89286 12.5 10.1429 12.5C10.3929 12.5 10.5595 12.4167 10.7262 12.25L14.0595 8.91666Z" fill="black"/>
<mask id="mask0" style="mask-type:alpha" maskUnits="userSpaceOnUse" x="0" y="1" width="20" height="18">
<path fill-rule="evenodd" clip-rule="evenodd" d="M16.8095 1.66666H3.4762C2.05953 1.66666 0.976196 2.74999 0.976196 4.16666V9.16666C0.976196 14.25 5.05953 18.3333 10.1429 18.3333C15.2262 18.3333 19.3095 14.25 19.3095 9.16666V4.16666C19.3095 2.74999 18.2262 1.66666 16.8095 1.66666ZM17.6429 9.16666C17.6429 13.3333 14.3095 16.6667 10.1429 16.6667C5.9762 16.6667 2.64286 13.3333 2.64286 9.16666V4.16666C2.64286 3.66666 2.9762 3.33332 3.4762 3.33332H16.8095C17.3095 3.33332 17.6429 3.66666 17.6429 4.16666V9.16666ZM14.0595 8.91666C14.3929 8.58332 14.3929 8.08332 14.0595 7.74999C13.7262 7.41666 13.2262 7.41666 12.8929 7.74999L10.1429 10.5L7.39286 7.74999C7.05953 7.41666 6.55953 7.41666 6.2262 7.74999C5.89286 8.08332 5.89286 8.58332 6.2262 8.91666L9.55953 12.25C9.7262 12.4167 9.89286 12.5 10.1429 12.5C10.3929 12.5 10.5595 12.4167 10.7262 12.25L14.0595 8.91666Z" fill="white"/>
</mask>
<g mask="url(#mask0)">
<rect x="0.142853" width="20" height="20" fill="#7367F0"/>
</g>
</svg>
