<svg width="18" height="18" viewBox="0 0 18 18" fill="none" xmlns="http://www.w3.org/2000/svg">
<path fill-rule="evenodd" clip-rule="evenodd" d="M15 9C15 7.275 14.25 5.775 13.125 4.65L12.9 2.025C12.75 0.9 11.85 0 10.65 0H7.35C6.225 0 5.25 0.9 5.1 2.025L4.875 4.65C3.75 5.7 3 7.275 3 9C3 10.725 3.75 12.3 4.875 13.35L5.1 15.975C5.25 17.1 6.225 18 7.35 18H10.575C11.775 18 12.675 17.1 12.825 15.975L13.05 13.425C14.25 12.3 15 10.725 15 9ZM6.60001 2.175C6.60001 1.8 6.97501 1.5 7.35001 1.5H10.65C11.025 1.5 11.325 1.8 11.4 2.175L11.55 3.525C10.725 3.225 9.90001 3 9.00001 3C8.10001 3 7.27501 3.225 6.52501 3.525L6.60001 2.175ZM9 4.5C6.525 4.5 4.5 6.525 4.5 9C4.5 11.475 6.525 13.5 9 13.5C10.125 13.5 11.175 13.125 11.925 12.45C12.9 11.625 13.5 10.35 13.5 9C13.5 6.525 11.475 4.5 9 4.5ZM11.4 15.825C11.4 16.2 11.025 16.5 10.65 16.5H7.35001C6.97501 16.5 6.67501 16.2 6.60001 15.825L6.45001 14.475C7.20001 14.85 8.02501 15 8.92501 15C9.82501 15 10.65 14.775 11.4 14.475V15.825ZM8.25 9C8.25 9.225 8.325 9.375 8.475 9.525L9.6 10.65C9.75 10.8 9.975 10.875 10.125 10.875C10.275 10.875 10.5 10.8 10.65 10.65C10.95 10.35 10.95 9.9 10.65 9.6L9.75 8.7V6.75C9.75 6.3 9.45 6 9 6C8.55 6 8.25 6.3 8.25 6.75V9Z" fill="black"/>
<mask id="mask0" style="mask-type:alpha" maskUnits="userSpaceOnUse" x="3" y="0" width="12" height="18">
<path fill-rule="evenodd" clip-rule="evenodd" d="M15 9C15 7.275 14.25 5.775 13.125 4.65L12.9 2.025C12.75 0.9 11.85 0 10.65 0H7.35C6.225 0 5.25 0.9 5.1 2.025L4.875 4.65C3.75 5.7 3 7.275 3 9C3 10.725 3.75 12.3 4.875 13.35L5.1 15.975C5.25 17.1 6.225 18 7.35 18H10.575C11.775 18 12.675 17.1 12.825 15.975L13.05 13.425C14.25 12.3 15 10.725 15 9ZM6.60001 2.175C6.60001 1.8 6.97501 1.5 7.35001 1.5H10.65C11.025 1.5 11.325 1.8 11.4 2.175L11.55 3.525C10.725 3.225 9.90001 3 9.00001 3C8.10001 3 7.27501 3.225 6.52501 3.525L6.60001 2.175ZM9 4.5C6.525 4.5 4.5 6.525 4.5 9C4.5 11.475 6.525 13.5 9 13.5C10.125 13.5 11.175 13.125 11.925 12.45C12.9 11.625 13.5 10.35 13.5 9C13.5 6.525 11.475 4.5 9 4.5ZM11.4 15.825C11.4 16.2 11.025 16.5 10.65 16.5H7.35001C6.97501 16.5 6.67501 16.2 6.60001 15.825L6.45001 14.475C7.20001 14.85 8.02501 15 8.92501 15C9.82501 15 10.65 14.775 11.4 14.475V15.825ZM8.25 9C8.25 9.225 8.325 9.375 8.475 9.525L9.6 10.65C9.75 10.8 9.975 10.875 10.125 10.875C10.275 10.875 10.5 10.8 10.65 10.65C10.95 10.35 10.95 9.9 10.65 9.6L9.75 8.7V6.75C9.75 6.3 9.45 6 9 6C8.55 6 8.25 6.3 8.25 6.75V9Z" fill="white"/>
</mask>
<g mask="url(#mask0)">
<rect width="18" height="18" fill="#FF9F43"/>
</g>
</svg>
