<svg width="165" height="48" viewBox="0 0 165 48" fill="none" xmlns="http://www.w3.org/2000/svg">
<path d="M1.47632 21.8669C1.47632 21.8669 9.5322 25.4633 12.7047 30.7363C15.8772 36.0093 19.1292 39.6461 22.7018 32.4762C26.2745 25.3063 28.2465 20.0542 28.2465 20.0542C28.2465 20.0542 32.6177 12.4056 37.8782 19.0669C43.1387 25.7283 46.5326 30.7363 46.5326 30.7363C46.5326 30.7363 51.7475 36.8609 56.7235 32.4762C61.6994 28.0914 64.8638 25.5908 64.8638 25.5908C64.8638 25.5908 70.2495 22.139 72.5213 27.8502C74.7932 33.5614 78.2033 41.7809 78.2033 41.7809C78.2033 41.7809 79.6357 44.4228 81.4874 45.5245C83.339 46.6263 86.7284 46.2668 88.5408 42.4668C90.3532 38.6669 96.4824 20.8703 96.4824 20.8703C96.4824 20.8703 100.356 10.9291 102.454 6.35943C104.553 1.78974 110.311 -1.82428 114.354 7.35097C118.398 16.5262 119.113 20.0542 119.113 20.0542C119.113 20.0542 120.854 25.3606 125.979 24.7941C131.104 24.2275 131.318 26.709 133.019 30.2766C134.721 33.8441 139.375 38.5441 139.375 38.5441C139.375 38.5441 143.136 42.6669 149.278 37.3259C155.42 31.9849 159.507 28.0482 163.476 19.6131" stroke="#7367F0" stroke-width="2" stroke-linecap="round"/>
</svg>
