<svg width="168" height="32" viewBox="0 0 168 32" fill="none" xmlns="http://www.w3.org/2000/svg">
<path d="M1 8.82917C1 8.82917 8.97279 12.8833 11.3852 17.6578C13.7977 22.4324 16.7359 25.7703 19.9912 18.7678C23.2465 11.7652 27.0236 4.51168 27.0236 4.51168C27.0236 4.51168 31.5039 -3.22329 37.0588 4.51168C42.6137 12.2467 44.9519 15.0225 44.9519 15.0225C44.9519 15.0225 50.9491 24.0745 57.8223 16.4519C64.6955 8.82917 67.996 8.40821 67.996 8.40821C67.996 8.40821 72.3191 8.18723 74.4929 17.1319C76.6666 26.0766 78.6277 29.1131 78.6277 29.1131C78.6277 29.1131 83.5523 36.8298 90.2266 26.2537C96.901 15.6775 100.749 10.2149 100.749 10.2149C100.749 10.2149 106.231 3.61768 111.013 11.5309C115.795 19.4441 118.06 21.019 121.508 17.1319C124.957 13.2448 129.601 9.40854 134.517 17.6578C139.434 25.9071 146.978 32.0268 153.344 21.7788C159.709 11.5309 167 5.75645 167 5.75645" stroke="#DCDAE3" stroke-linecap="round" stroke-dasharray="5"/>
</svg>
