<svg width="18" height="8" viewBox="0 0 18 8" fill="none" xmlns="http://www.w3.org/2000/svg">
<path fill-rule="evenodd" clip-rule="evenodd" d="M5.25 4C5.25 4.25658 5.27463 4.50643 5.3217 4.74739C5.29826 4.74912 5.27435 4.75 5.25 4.75H0.75C0.3 4.75 0 4.45 0 4C0 3.55 0.3 3.25 0.75 3.25H5.25C5.27435 3.25 5.29826 3.25088 5.3217 3.25261C5.27463 3.49357 5.25 3.74342 5.25 4ZM12.6783 3.25261C12.3401 1.52144 10.8434 0.25 9 0.25C7.15658 0.25 5.65991 1.52144 5.3217 3.25261C5.73159 3.28291 6 3.57435 6 4C6 4.42565 5.73159 4.71709 5.3217 4.74739C5.65991 6.47856 7.15658 7.75 9 7.75C10.8434 7.75 12.3401 6.47856 12.6783 4.74739C12.7017 4.74912 12.7257 4.75 12.75 4.75H17.25C17.625 4.75 18 4.45 18 4C18 3.55 17.7 3.25 17.25 3.25H12.75C12.7257 3.25 12.7017 3.25088 12.6783 3.25261ZM12.6783 3.25261C12.7254 3.49357 12.75 3.74342 12.75 4C12.75 4.25658 12.7254 4.50643 12.6783 4.74739C12.2684 4.71709 12 4.42565 12 4C12 3.57435 12.2684 3.28291 12.6783 3.25261ZM6.75 4C6.75 2.725 7.725 1.75 9 1.75C10.275 1.75 11.25 2.725 11.25 4C11.25 5.275 10.275 6.25 9 6.25C7.725 6.25 6.75 5.275 6.75 4Z" fill="black"/>
</svg>
