<svg width="29" height="29" viewBox="0 0 29 29" fill="none" xmlns="http://www.w3.org/2000/svg">
<path d="M14.8202 0.923767C7.08785 0.923767 0.820221 7.19139 0.820221 14.9238C0.820221 22.6553 7.08785 28.9238 14.8202 28.9238C22.5526 28.9238 28.8202 22.6553 28.8202 14.9238C28.8202 7.19139 22.5526 0.923767 14.8202 0.923767Z" fill="#82868B"/>
<path d="M5.43214 12.1908L5.80107 14.4268C5.89499 14.9968 5.98976 15.6008 6.06591 16.2268H6.08453C6.1793 15.6008 6.31214 14.9748 6.42468 14.4378L6.91714 12.1908H8.05268L8.51553 14.3708C8.63907 14.9858 8.76176 15.6008 8.85653 16.2268H8.87514C8.94114 15.6008 9.03591 14.9858 9.13999 14.3598L9.53768 12.1908H10.9474L9.52753 17.6578H8.17537L7.73961 15.7338C7.62622 15.1968 7.54076 14.7048 7.44684 14.0348H7.42822C7.34276 14.7168 7.24884 15.2198 7.1253 15.7338L6.66161 17.6568H5.30945L3.96576 12.1898H5.43214V12.1908Z" fill="white"/>
<path d="M12.7962 12.1907L13.1651 14.4267C13.2591 14.9967 13.3538 15.6007 13.43 16.2267H13.4486C13.5434 15.6007 13.6762 14.9747 13.7888 14.4377L14.2812 12.1907H15.4168L15.8796 14.3707C16.0031 14.9857 16.1258 15.6007 16.2206 16.2267H16.2392C16.3052 15.6007 16.4 14.9857 16.5041 14.3597L16.9018 12.1907H18.3114L16.8916 17.6577H15.5394L15.1045 15.7347C14.9911 15.1977 14.9057 14.7057 14.8118 14.0357H14.7923C14.7068 14.7177 14.6129 15.2207 14.4894 15.7347L14.0257 17.6577H12.6735L11.3298 12.1907H12.7962V12.1907Z" fill="white"/>
<path d="M20.1594 12.1907L20.5284 14.4267C20.6223 14.9967 20.7171 15.6007 20.7932 16.2267H20.8118C20.9066 15.6007 21.0394 14.9747 21.152 14.4377L21.6444 12.1907H22.78L23.2428 14.3707C23.3664 14.9857 23.4891 15.6007 23.5838 16.2267H23.6024C23.6684 15.6007 23.7632 14.9857 23.8673 14.3597L24.265 12.1907H25.6747L24.2548 17.6577H22.9027L22.4677 15.7347C22.3544 15.1977 22.2689 14.7057 22.175 14.0357H22.1555C22.0701 14.7177 21.9761 15.2207 21.8526 15.7347L21.3889 17.6577H20.0367L18.6931 12.1907H20.1594V12.1907Z" fill="white"/>
</svg>
