<svg width="40" height="37" viewBox="0 0 40 37" fill="none" xmlns="http://www.w3.org/2000/svg">
<g clip-path="url(#clip0)">
<circle cx="19.3203" cy="20.4238" r="13.5" stroke="#E9ECEF" stroke-width="4"/>
<mask id="path-2-inside-1" fill="white">
<path d="M7.71799 13.177C6.86523 12.6443 5.73128 12.9004 5.30223 13.8097C4.10432 16.3485 3.61345 19.1766 3.8998 21.9921C4.24782 25.414 5.72413 28.6229 8.09626 31.1136C10.4684 33.6042 13.6016 35.2352 17.0024 35.7495C20.4033 36.2638 23.8786 35.6324 26.8812 33.9546C29.8837 32.2767 32.2429 29.6479 33.5873 26.4819C34.9316 23.316 35.1847 19.7929 34.3068 16.4673C33.4288 13.1417 31.4696 10.2026 28.7378 8.11277C26.49 6.3933 23.8242 5.32918 21.0341 5.01879C20.0348 4.90762 19.2225 5.73916 19.2292 6.74458C19.2359 7.75001 20.061 8.54531 21.0556 8.69244C23.0357 8.98536 24.92 9.77652 26.5255 11.0047C28.6157 12.6036 30.1146 14.8523 30.7864 17.3967C31.4581 19.9411 31.2644 22.6366 30.2359 25.0588C29.2073 27.4811 27.4023 29.4924 25.1051 30.7761C22.8078 32.0598 20.1489 32.5429 17.5469 32.1494C14.9449 31.7559 12.5477 30.5081 10.7328 28.6025C8.91793 26.6969 7.78842 24.2418 7.52214 21.6237C7.31761 19.6127 7.63135 17.5933 8.41967 15.7533C8.81564 14.8292 8.57076 13.7096 7.71799 13.177Z"/>
</mask>
<path d="M21.0556 8.69244L21.6409 4.7355L21.0556 8.69244ZM21.0341 5.01879L20.5918 8.99426L21.0341 5.01879ZM5.30223 13.8097L1.6847 12.1028L5.30223 13.8097ZM1.6847 12.1028C0.177646 15.2968 -0.439929 18.8547 -0.0796741 22.3968L7.87927 21.5874C7.66682 19.4985 8.03099 17.4002 8.91977 15.5166L1.6847 12.1028ZM-0.0796741 22.3968C0.358163 26.7018 2.21546 30.7388 5.19975 33.8722L10.9928 28.3549C9.23281 26.507 8.13748 24.1262 7.87927 21.5874L-0.0796741 22.3968ZM5.19975 33.8722C8.18404 37.0057 12.1258 39.0574 16.4043 39.7045L17.6006 31.7945C15.0774 31.4129 12.7527 30.2028 10.9928 28.3549L5.19975 33.8722ZM16.4043 39.7045C20.6828 40.3516 25.055 39.5572 28.8324 37.4464L24.93 30.4627C22.7023 31.7076 20.1238 32.1761 17.6006 31.7945L16.4043 39.7045ZM28.8324 37.4464C32.6098 35.3356 35.5778 32.0283 37.2691 28.0453L29.9055 24.9185C28.9081 27.2675 27.1577 29.2179 24.93 30.4627L28.8324 37.4464ZM37.2691 28.0453C38.9604 24.0624 39.2788 19.63 38.1743 15.4462L30.4393 17.4883C31.0907 19.9557 30.9029 22.5696 29.9055 24.9185L37.2691 28.0453ZM38.1743 15.4462C37.0697 11.2624 34.605 7.56484 31.1681 4.93574L26.3074 11.2898C28.3343 12.8403 29.7879 15.0209 30.4393 17.4883L38.1743 15.4462ZM31.1681 4.93574C28.3402 2.7725 24.9864 1.4338 21.4764 1.04331L20.5918 8.99426C22.6619 9.22455 24.6398 10.0141 26.3074 11.2898L31.1681 4.93574ZM20.4703 12.6494C21.7826 12.8435 23.0313 13.3679 24.0952 14.1817L28.9559 7.82766C26.8088 6.1852 24.2889 5.12721 21.6409 4.7355L20.4703 12.6494ZM24.0952 14.1817C25.4804 15.2413 26.4737 16.7315 26.9189 18.4177L34.6539 16.3756C33.7556 12.973 31.751 9.96585 28.9559 7.82766L24.0952 14.1817ZM26.9189 18.4177C27.364 20.1039 27.2357 21.8902 26.5541 23.4954L33.9177 26.6222C35.2932 23.383 35.5522 19.7782 34.6539 16.3756L26.9189 18.4177ZM26.5541 23.4954C25.8724 25.1007 24.6763 26.4336 23.1539 27.2843L27.0563 34.2679C30.1284 32.5512 32.5422 29.8615 33.9177 26.6222L26.5541 23.4954ZM23.1539 27.2843C21.6315 28.135 19.8694 28.4552 18.145 28.1944L16.9488 36.1044C20.4284 36.6307 23.9842 35.9846 27.0563 34.2679L23.1539 27.2843ZM18.145 28.1944C16.4207 27.9336 14.8321 27.1067 13.6293 25.8438L7.83632 31.3611C10.2634 33.9095 13.4691 35.5782 16.9488 36.1044L18.145 28.1944ZM13.6293 25.8438C12.4266 24.581 11.6781 22.954 11.5016 21.219L3.54267 22.0284C3.89876 25.5296 5.40926 28.8128 7.83632 31.3611L13.6293 25.8438ZM11.5016 21.219C11.3661 19.8863 11.574 18.548 12.0964 17.3287L4.74293 14.178C3.68874 16.6385 3.26914 19.339 3.54267 22.0284L11.5016 21.219ZM12.0964 17.3287C13.1179 14.9445 12.6697 11.5537 9.83702 9.78437L5.59897 16.5696C5.06514 16.2361 4.77191 15.7392 4.66217 15.3107C4.55812 14.9045 4.59928 14.5133 4.74293 14.178L12.0964 17.3287ZM15.2292 6.77122C15.2515 10.111 17.9044 12.2698 20.4703 12.6494L21.6409 4.7355C22.0018 4.78887 22.3565 4.95882 22.6479 5.26036C22.9554 5.57841 23.2249 6.08856 23.2291 6.71795L15.2292 6.77122ZM21.4764 1.04331C17.7798 0.632078 15.2088 3.7016 15.2292 6.77122L23.2291 6.71795C23.2361 7.77673 22.2898 9.18316 20.5918 8.99426L21.4764 1.04331ZM8.91977 15.5166C8.19074 17.0617 6.49699 17.1305 5.59897 16.5696L9.83702 9.78437C7.23346 8.15819 3.27181 8.73909 1.6847 12.1028L8.91977 15.5166Z" fill="#7367F0" mask="url(#path-2-inside-1)"/>
</g>
<defs>
<clipPath id="clip0">
<rect width="39" height="35.852" fill="white" transform="translate(0.163086 0.923767)"/>
</clipPath>
</defs>
</svg>
